<?xml version="1.0" standalone="no"?><!DOCTYPE svg PUBLIC "-//W3C//DTD SVG 1.1//EN" "http://www.w3.org/Graphics/SVG/1.1/DTD/svg11.dtd"><svg t="1768546430108" class="icon" viewBox="0 0 1024 1024" version="1.1" xmlns="http://www.w3.org/2000/svg" p-id="33940" xmlns:xlink="http://www.w3.org/1999/xlink" width="128" height="128"><path d="M650.21 139.43l78.24 38.41-329.41 62.47-70.14-36.62 321.31-64.26m6.82-52.35L180.2 182.45l211.1 110.23 493.78-93.65L657.03 87.08zM188.73 342.13l107.32 53.66v348.44l-107.32-53.66V342.13m-50-80.9v460.24l207.32 103.66V364.88L138.73 261.23zM752.15 338.8v353.85l-314.63 60.89V401.73l314.63-62.93m50-60.99l-414.63 82.93v453.41l414.63-80.24v-456.1z" fill="#040000" p-id="33941"></path><path d="M612.65 782.13l77.9 38.95-320.86 63.62-77.9-38.95 320.86-63.62m7.06-52.37l-480.98 95.37 223.9 111.95 480.98-95.37-223.9-111.95zM752.78 633.65l49.37 25.62 82.92 41.47V240.49l-65.38-29.06-86.28 16.36 101.66 45.2v346.85l-10.22-5.12-72.46-37.61zM677.76 352.27V238.35l50-9.48v114.59zM263.12 323.42l50.59 25.29-0.59-25.86v-18.73l9.54-1.47 69.42-9.98-76.48-39.53m0 0.01l-52.48 8.07v62.2M387.35 713.99l-42.28 9.2 0.98-47.33 42.88-9.16z" fill="#040000" p-id="33942"></path></svg>