<?xml version="1.0" standalone="no"?><!DOCTYPE svg PUBLIC "-//W3C//DTD SVG 1.1//EN" "http://www.w3.org/Graphics/SVG/1.1/DTD/svg11.dtd"><svg t="1766484081254" class="icon" viewBox="0 0 1024 1024" version="1.1" xmlns="http://www.w3.org/2000/svg" p-id="33905" xmlns:xlink="http://www.w3.org/1999/xlink" width="128" height="128"><path d="M484.531976 26.980848L399.422061 228.652994l65.911466-0.220315 1.014691 420.901236-326.78943 231.59777-34.012315-66.414158L3.081309 1004.686739l190.80223-17.668654-34.009212-66.420364 320.217212-226.921503a24.005042 20.340364 90 0 0 6.075734 1.123297 24.005042 20.340364 90 0 0 7.602424-1.799757l351.827782 149.370569-22.372849 72.933625 190.073018-26.350934-131.965672-163.079757-22.372849 72.933624-353.23966-149.975661-1.011588-420.531976 65.899054-0.220315z m59.786085 16.923928v7.447272c4.322521 0 7.621042 0.670255 9.89246 2.010764 8.415418 4.697988 13.929503 8.719515 16.545358 12.076994 2.730667 3.351273 7.847564 11.74497 15.350691 25.165576l63.441454 114.328048v64.605091c0 15.297939-1.244315 25.097309-3.745357 29.391903-4.096 6.975612-11.034376 10.463418-20.812025 10.463418h-8.188897v7.447273h98.24194v-7.447273h-7.503127c-9.324606 0-16.145067-2.817552-20.464485-8.452654-3.183709-4.158061-4.778667-14.630788-4.778667-31.402667V201.107394l55.773867-103.65983c6.820461-13.017212 12.557964-22.413188 17.221818-28.181722 4.660752-5.771636 9.836606-10.199661 15.524461-13.287175 5.684752-3.084412 10.00417-4.623515 12.961357-4.623515h4.43423v-7.450376h-80.672581v7.447272c6.140897 0 10.742691 0.871952 13.81469 2.615855 3.068897 1.613576 5.399273 3.8912 6.988025 6.845285 1.706667 2.947879 2.563103 6.305358 2.563103 10.063127 0 6.17503-3.41023 15.567903-10.230691 28.181721l-45.369406 84.135564-48.264534-87.9616c-6.935273-12.613818-10.404461-21.339539-10.40446-26.170958 0-5.905067 2.215564-10.333091 6.649794-13.284072a26.720194 26.720194 0 0 1 14.838691-4.424922h5.113794v-7.447272z m210.8416 383.1808v7.447272c11.257794 0.403394 21.203006 3.96257 29.844945 10.671322 8.641939 6.575321 19.161212 20.523442 31.554715 41.859878l45.533867 78.705261-54.576097 81.318012c-8.185794 12.210424-15.459297 21.271273-21.826715 27.17634-6.367418 5.901964-13.07617 10.596848-20.126255 14.087757-4.207709 2.144194-9.212897 3.55297-15.01246 4.226327v7.447273h82.037915v-7.447273c-8.641939-0.403394-14.497358-2.01697-17.569358-4.834521-3.072-2.817552-4.598691-6.373624-4.598691-10.668218 0-2.817552 0.505794-5.501673 1.529794-8.052364 1.024-2.684121 4.096-7.912727 9.216-15.69823l48.438303-73.262545 39.222303 70.0416c5.45823 9.526303 8.582982 15.434473 9.380461 17.718303 1.024 3.084412 1.536 6.165721 1.536 9.253236 0 2.550691-0.797479 5.104485-2.389333 7.652073-1.477042 2.417261-3.41023 4.22943-5.796461 5.436509-3.183709 1.477042-8.070982 2.277624-14.668024 2.414157v7.447273h99.259733v-7.447273c-10.233794-0.673358-18.701964-4.158061-25.410715-10.466521-6.593939-6.441891-16.771879-21.736727-30.530715-45.890715l-49.629867-87.356509 45.8752-69.241018c9.324606-14.087758 16.545358-23.7568 21.662255-28.991612 5.12-5.231709 10.742691-9.38977 16.883587-12.474182 4.096-2.013867 9.383564-3.220945 15.865794-3.62434v-7.447272h-82.037915v7.447272c8.185794 0.136533 13.58817 0.806788 16.204025 2.013867 2.615855 1.073648 4.772461 3.019248 6.476024 5.833697 1.365333 2.1504 2.051103 4.632824 2.051103 7.450376a20.945455 20.945455 0 0 1-1.706667 8.250957c-1.020897 2.681018-3.92223 7.64897-8.697794 14.894546l-41.102739 61.390351-35.476946-62.600533c-5.455127-9.526303-8.185794-16.774982-8.185794-21.73983 0-3.754667 1.644606-7.174206 4.946231-10.258618 3.41023-3.087515 9.662836-4.831418 18.757818-5.234813v-7.447272zM59.227539 506.855176l-4.77246 68.235636h6.485333c2.389333-16.371588 4.995879-27.511467 7.841358-33.416533 2.957188-6.038497 7.164897-10.599952 12.623127-13.684364 5.569939-3.220945 14.491152-4.834521 26.772945-4.834521h74.022788L33.816824 772.344242v7.447273h188.291879l10.919564-72.26337-5.632-1.210181c-6.026085 22.946909-12.958255 38.179685-20.802715 45.692121-7.732752 7.515539-18.878836 11.276412-33.435152 11.276412H78.336l151.9616-256.434424z" p-id="33906" fill="#2c2c2c"></path></svg>