<?xml version="1.0" standalone="no"?><!DOCTYPE svg PUBLIC "-//W3C//DTD SVG 1.1//EN" "http://www.w3.org/Graphics/SVG/1.1/DTD/svg11.dtd"><svg t="1766484986827" class="icon" viewBox="0 0 1024 1024" version="1.1" xmlns="http://www.w3.org/2000/svg" p-id="50732" xmlns:xlink="http://www.w3.org/1999/xlink" width="128" height="128"><path d="M631.4666666666667 952.2293333333334c-6.708266666666666-1.3941333333333332-13.421866666666666-2.7637333333333336-20.123733333333334-4.1856-28.357333333333333-6.0149333333333335-53.2096-18.996266666666667-75.45706666666666-37.434666666666665-19.332266666666666-16.0224-34.576-35.28-45.66186666666667-57.6544-8.512-17.181866666666668-14.981333333333332-35.21386666666666-16.587733333333333-54.553599999999996-0.9898666666666667-11.9168-2.466133333333333-23.921066666666665-1.947733333333333-35.809066666666666 0.8981333333333333-20.61546666666667 5.4719999999999995-40.58133333333333 13.501866666666666-59.7728 6.989866666666667-16.706133333333334 16.098133333333333-32.1056 27.50293333333333-46.007466666666666 13.0848-15.949866666666665 28.7776-29.00906666666667 46.563199999999995-39.6736 17.511466666666667-10.500266666666667 36.23466666666666-17.964799999999997 56.0736-21.921066666666665 17.550933333333333-3.4997333333333334 35.40266666666666-4.702933333333333 53.48373333333333-2.6698666666666666 14.281599999999997 1.6064 28.2432 4.0736 41.78026666666666 8.752 21.261866666666666 7.3472 40.49706666666667 18.171733333333336 57.792 32.7456 21.176533333333335 17.846400000000003 37.285333333333334 39.3472 48.63466666666666 64.4384 7.342933333333334 16.232533333333333 12.075733333333332 33.25546666666666 13.956266666666664 51.05919999999999 3.5445333333333333 33.56053333333333-0.16533333333333333 65.94453333333334-14.257066666666667 96.95573333333333-7.8751999999999995 17.33013333333333-18.29866666666667 32.755199999999995-30.889599999999998 46.99413333333334-15.293866666666666 17.296-33.39306666666667 30.79253333333333-53.938133333333326 40.86613333333333-18.344533333333334 8.994133333333334-37.636266666666664 15.415466666666667-58.266666666666666 16.8768-0.5621333333333334 0.039466666666666664-1.0848 0.6506666666666666-1.6256 0.9962666666666667-13.511466666666665-0.0021333333333333334-27.021866666666664-0.0021333333333333334-40.53333333333333-0.0021333333333333334z m-38.4-180.1888c-1.5231999999999999 32.05866666666667 26.496 58.99626666666666 57.07413333333333 59.61066666666667 34.624 0.6954666666666667 60.658133333333325-26.993066666666667 61.28213333333333-58.376533333333334 0.6741333333333334-33.87946666666666-27.719466666666666-58.470400000000005-55.6192-60.24533333333333-35.46026666666667-2.2570666666666668-64.52693333333333 28.830933333333334-62.737066666666664 59.0112zM992 264.22933333333333c-3.4816 7.618133333333333-5.995733333333334 15.894399999999997-10.638933333333334 22.721066666666665-11.026133333333332 16.209066666666665-26.62933333333333 25.243733333333335-46.6368 25.25333333333333-114.82026666666667 0.05333333333333334-229.64053333333334 0.0256-344.4608 0.0256h-7.019733333333334c5.144533333333333-20.170666666666666 7.897600000000001-40.074666666666666 7.905066666666666-60.50026666666667 0.007466666666666667-20.260266666666666-2.9792-39.95946666666667-8.110933333333334-60.033066666666656h6.098133333333333c115.3536 0 230.7072-0.19306666666666666 346.0597333333333 0.14293333333333333 27.0272 0.07893333333333333 51.41973333333333 21.313066666666668 55.85066666666666 47.834666666666664 0.0672 0.40426666666666666 0.6261333333333333 0.7274666666666667 0.9546666666666668 1.0890666666666666l-0.0010666666666666667 23.466666666666665zM32 760.2293333333333c3.4816-7.618133333333333 5.995733333333334-15.894399999999997 10.638933333333334-22.721066666666665 11.026133333333332-16.209066666666665 26.62933333333333-25.243733333333335 46.63786666666667-25.25333333333333 114.82026666666667-0.05333333333333334 229.64053333333334-0.0256 344.46186666666665-0.0256h7.061333333333334c-5.383466666666666 20.148266666666665-7.9392 40.081066666666665-7.932800000000001 60.49920000000001 0.0064 20.2496 2.840533333333333 39.974399999999996 8.210133333333333 60.03413333333333h-6.211200000000001c-115.3536 0-230.70826666666665 0.19306666666666666-346.06080000000003-0.14293333333333333-27.025066666666664-0.07893333333333333-51.41973333333333-21.31093333333333-55.85066666666666-47.83573333333333-0.0672-0.40426666666666666-0.6250666666666667-0.7274666666666667-0.9546666666666668-1.088v-23.466666666666665zM32 240.76266666666663c2.7786666666666666-9.2768 6.136533333333333-18.110933333333328 12.309333333333331-25.957333333333334 9.434666666666667-11.992533333333334 21.3472-19.668266666666668 36.21653333333334-21.846400000000003 9.544533333333334-1.397333333333333 19.364266666666666-1.12 29.064533333333333-1.216 17.041066666666666-0.16853333333333334 34.08533333333333-0.04693333333333333 51.587199999999996-0.04693333333333333-11.675733333333334 40.263466666666666-11.266133333333332 80.16533333333334-0.32639999999999997 120.53333333333333h-18.8c-18.30506666666667 0-36.612266666666656 0.13866666666666666-54.916266666666665-0.04693333333333333-13.075199999999999-0.13226666666666667-24.136533333333333-5.510400000000001-34.2176-13.601066666666666-11.191466666666667-8.982399999999998-16.730666666666668-21.20746666666667-20.917333333333332-34.352v-23.466666666666665zM992 783.696c-2.7786666666666666 9.2768-6.136533333333333 18.110933333333328-12.309333333333331 25.957333333333334-9.434666666666667 11.992533333333334-21.3472 19.668266666666668-36.21653333333334 21.846400000000003-9.544533333333334 1.397333333333333-19.364266666666666 1.12-29.064533333333333 1.216-17.041066666666666 0.16853333333333334-34.0864 0.04693333333333333-51.208533333333335 0.04693333333333333 9.605333333333334-44.993066666666664 12.906666666666666-61.03999999999999 0.22613333333333333-120.53333333333333h18.520533333333333c18.30506666666667 0 36.612266666666656-0.13866666666666666 54.916266666666665 0.04693333333333333 13.075199999999999 0.13226666666666667 24.136533333333333 5.510400000000001 34.2176 13.601066666666666 11.192533333333333 8.982399999999998 16.731733333333334 21.20746666666667 20.918400000000002 34.352v23.466666666666665zM552.5333333333333 252.13546666666667c0.4266666666666667 98.66133333333333-80.17280000000001 184.64426666666668-188.42666666666668 180.47786666666667-50.43733333333333-1.9413333333333331-93.03573333333334-22.416-126.8288-59.8464-30.714666666666673-34.020266666666664-46-74.77226666666667-45.95413333333333-120.38933333333333 0.0512-50.24106666666667 18.046933333333335-94.1024 54.10666666666667-129.2693333333333 39.086933333333334-38.118399999999994 86.82026666666667-54.519466666666666 141.22346666666667-50.82986666666667 86.62186666666666 5.873066666666666 165.77066666666667 79.11786666666667 165.87946666666667 179.85706666666667z m-121.59999999999998 0.5461333333333334c1.6597333333333333-32.32106666666667-26.615466666666666-59.39306666666666-57.34186666666667-59.882666666666665-34.32106666666667-0.5472-60.50773333333333 26.986666666666668-61.01866666666667 58.650666666666666-0.5429333333333334 33.61813333333333 27.765333333333334 58.32319999999999 55.89333333333333 59.992533333333334 35.2 2.087466666666667 64.12693333333333-28.80213333333333 62.467200000000005-58.760533333333335z" fill="#6388b4" p-id="50733"></path></svg>