<?xml version="1.0" standalone="no"?><!DOCTYPE svg PUBLIC "-//W3C//DTD SVG 1.1//EN" "http://www.w3.org/Graphics/SVG/1.1/DTD/svg11.dtd"><svg t="1768799731656" class="icon" viewBox="0 0 1024 1024" version="1.1" xmlns="http://www.w3.org/2000/svg" p-id="30805" xmlns:xlink="http://www.w3.org/1999/xlink" width="200" height="200"><path d="M928.852917 938.203785l-521.990244 81.110791V792.96562l521.990244-81.110791z" fill="#FBFCFC" p-id="30806"></path><path d="M406.862673 1022.311649c-0.709307 0-1.398634-0.249756-1.948097-0.719298-0.669346-0.569444-1.048976-1.398634-1.048976-2.277775V792.96562c0-1.478556 1.078946-2.737327 2.537522-2.957113l522.000234-81.11079c0.869151-0.129873 1.748293 0.119883 2.407649 0.689327 0.669346 0.569444 1.048976 1.398634 1.048975 2.277776v226.348956c0 1.478556-1.078946 2.737327-2.537521 2.957112l-522.000235 81.11079c-0.159844 0.01998-0.309698 0.029971-0.459551 0.029971z m2.997073-226.778537v220.284878l516.006088-80.171707v-220.284878l-516.006088 80.171707z m518.993171 142.670673z" fill="#242D70" p-id="30807"></path><path d="M406.862673 1021.002927L99.402927 850.379551V620.633912l307.459746 170.623376z" fill="#FFB475" p-id="30808"></path><path d="M406.862673 1024c-0.499512 0-0.999024-0.129873-1.458575-0.379629L97.944351 852.996995a2.996074 2.996074 0 0 1-1.538497-2.617444V620.633912c0-1.058966 0.559454-2.048 1.478556-2.577483s2.048-0.549463 2.977092-0.039961l307.459747 170.623376c0.949073 0.529483 1.538498 1.528507 1.538497 2.617444V1021.002927c0 1.058966-0.559454 2.048-1.478556 2.577483-0.469541 0.279727-0.999024 0.41959-1.518517 0.41959zM102.4 848.621268l301.4656 167.296625V793.015571L102.4 625.728937v222.892331z" fill="#242D70" p-id="30809"></path><path d="M930.551259 713.54318l-520.311883 77.714108L99.402927 618.945561l479.761483-67.57401z" fill="#8786C4" p-id="30810"></path><path d="M410.239376 794.254361c-0.509502 0-1.009015-0.129873-1.448586-0.379629L97.954341 621.563005a3.007063 3.007063 0 0 1-1.498536-3.166907 2.9691 2.9691 0 0 1 2.527532-2.417639l479.761483-67.57401c0.569444-0.079922 1.148878 0.00999 1.66837 0.249756L931.790049 710.825834c1.198829 0.559454 1.898146 1.838205 1.708331 3.146927s-1.20882 2.347707-2.527531 2.537522L410.678946 794.22439c-0.149854 0.01998-0.289717 0.029971-0.43957 0.029971zM108.683863 620.663883L410.798829 788.140332l509.382556-76.075708L578.714849 554.458537l-470.030986 66.205346z" fill="#242D70" p-id="30811"></path><path d="M561.012137 766.201756l-304.502635-164.149697V37.823063l304.502635 160.763005z" fill="#D0CFF1" p-id="30812"></path><path d="M561.012137 769.198829c-0.489522 0-0.979044-0.119883-1.418615-0.359649l-304.502634-164.149697a3.001069 3.001069 0 0 1-1.578459-2.637424V37.823063a2.997073 2.997073 0 0 1 1.448586-2.567492c0.899122-0.539473 2.018029-0.569444 2.947122-0.079922l304.502634 160.763005c0.979044 0.519493 1.598439 1.538498 1.598439 2.647414v567.615688c0 1.058966-0.559454 2.02802-1.458576 2.577483-0.479532 0.269737-1.009015 0.41959-1.538497 0.41959z m-301.505561-168.935024l298.508487 160.912858V200.394302L259.506576 42.788215v557.47559z" fill="#242D70" p-id="30813"></path><path d="M778.509737 737.200078l-217.4976 29.001678V198.586068l217.4976-22.238283z" fill="#FBFCFC" p-id="30814"></path><path d="M561.012137 769.198829c-0.719298 0-1.428605-0.259746-1.978069-0.739278a2.994076 2.994076 0 0 1-1.019005-2.257795V198.586068c0-1.538498 1.158868-2.827239 2.687376-2.977092l217.4976-22.238283a3.005065 3.005065 0 0 1 3.306771 2.987083v560.852292c0 1.498537-1.108917 2.777288-2.597464 2.967103l-217.4976 29.001678c-0.139863 0.00999-0.269737 0.01998-0.399609 0.01998z m2.997073-567.905405v561.481678l211.503453-28.202458V179.664546l-211.503453 21.628878z m214.500527 535.906654z" fill="#242D70" p-id="30815"></path><path d="M778.509737 176.347785l-217.4976 22.238283-304.502635-160.763005L467.313639 5.394732z" fill="#FFB573" p-id="30816"></path><path d="M561.012137 201.583141c-0.489522 0-0.969054-0.119883-1.398635-0.349658L255.110868 40.470478a3.005065 3.005065 0 0 1-1.558478-3.146927 2.99008 2.99008 0 0 1 2.497561-2.46759L466.864078 2.43762c0.649366-0.099902 1.318712 0.01998 1.898146 0.339668l311.196098 170.943063c1.148878 0.629385 1.758283 1.938107 1.498537 3.226849a3.003067 3.003067 0 0 1-2.627435 2.387668l-217.4976 22.238283c-0.119883 0.00999-0.219785 0.00999-0.319687 0.00999zM265.930302 39.401522L561.601561 195.509073l207.027824-21.169327L466.764176 8.511688 265.930302 39.401522z" fill="#242D70" p-id="30817"></path></svg>