<?xml version="1.0" standalone="no"?><!DOCTYPE svg PUBLIC "-//W3C//DTD SVG 1.1//EN" "http://www.w3.org/Graphics/SVG/1.1/DTD/svg11.dtd"><svg t="1768528691235" class="icon" viewBox="0 0 1024 1024" version="1.1" xmlns="http://www.w3.org/2000/svg" p-id="9648" xmlns:xlink="http://www.w3.org/1999/xlink" width="128" height="128"><path d="M791.0912 790.1696h-44.032a12.1344 12.1344 0 0 1-11.9808-10.24l-5.5296-32.4096a153.6 153.6 0 0 1-39.936-17.2544l-27.0336 19.2a12.1856 12.1856 0 0 1-15.6672-1.28l-31.1296-31.3856a12.1856 12.1856 0 0 1-1.3824-15.36l20.1728-28.3136a151.9616 151.9616 0 0 1-15.36-38.8608l-34.4064-5.7856a12.1856 12.1856 0 0 1-10.24-12.032v-44.032a12.1856 12.1856 0 0 1 10.24-11.9808l35.84-6.0416a150.9376 150.9376 0 0 1 15.872-36.7616l-21.0944-29.696a12.1856 12.1856 0 0 1 1.28-15.36l31.1808-31.1296a12.1344 12.1344 0 0 1 15.36-1.3312l30.4128 21.6064a154.5216 154.5216 0 0 1 36.4544-14.848l6.144-36.3008a12.1344 12.1344 0 0 1 11.9808-10.24h44.032a12.1344 12.1344 0 0 1 11.9808 10.24l6.144 36.3008a153.2928 153.2928 0 0 1 37.12 15.36l29.2352-20.7872a12.1344 12.1344 0 0 1 15.36 1.28l31.1808 31.1296a12.1856 12.1856 0 0 1 1.28 15.6672l-20.48 28.7232a153.856 153.856 0 0 1 16.2816 38.5536l33.6896 5.6832a12.2368 12.2368 0 0 1 10.24 12.032v44.032a12.1856 12.1856 0 0 1-10.24 11.9808l-32.4608 4.9664a153.6 153.6 0 0 1-16.384 40.3456l18.944 26.624a12.1344 12.1344 0 0 1-1.3312 15.616l-31.1296 31.1296a12.1856 12.1856 0 0 1-15.6672 1.3312l-26.624-18.944a154.2144 154.2144 0 0 1-40.96 16.6912l-5.376 31.7952a12.1344 12.1344 0 0 1-11.9808 10.0864z m-33.792-24.32h23.5008l5.12-29.7472a12.1344 12.1344 0 0 1 9.728-9.9328 130.304 130.304 0 0 0 47.616-19.3536 12.1856 12.1856 0 0 1 13.7728 0l24.832 17.7152 16.5888-16.64-17.8176-24.6272a12.1344 12.1344 0 0 1-0.256-13.7216 129.7408 129.7408 0 0 0 19.3024-47.0528 12.1344 12.1344 0 0 1 9.9328-9.6256l30.72-5.12v-23.5008l-31.4368-5.12a12.2368 12.2368 0 0 1-9.8816-9.472 130.5088 130.5088 0 0 0-19.2-45.4144 12.1856 12.1856 0 0 1 0-13.824l19.2-26.9824-16.5888-16.5888-27.392 19.456a12.1344 12.1344 0 0 1-13.6704 0.3072 129.8944 129.8944 0 0 0-44.1856-18.1248 12.1344 12.1344 0 0 1-8.704-10.1376l-5.7856-34.0992h-23.4496l-5.7856 34.0992a12.1344 12.1344 0 0 1-9.472 9.8816 129.4336 129.4336 0 0 0-43.6224 17.7664 12.2368 12.2368 0 0 1-13.6192-0.3584l-28.5184-20.224-16.5888 16.5888 19.8656 27.904a12.1856 12.1856 0 0 1 0 13.824 130.2016 130.2016 0 0 0-18.944 43.776 12.2368 12.2368 0 0 1-9.8304 9.2672l-33.6896 5.6832v23.5008l32.3584 5.4272a12.1344 12.1344 0 0 1 9.9328 9.7792 130.2528 130.2528 0 0 0 17.9712 46.08 12.1344 12.1344 0 0 1-0.4096 13.5168l-18.7392 26.4192 16.5888 16.5888 25.6-18.0736a12.1856 12.1856 0 0 1 13.9264 0 129.4336 129.4336 0 0 0 46.592 20.1728 12.1856 12.1856 0 0 1 9.4208 9.8816z m195.5328-147.9168z" fill="#f3973b" p-id="9649"></path><path d="M769.8944 689.92a94.8736 94.8736 0 1 1 94.9248-94.8736 94.976 94.976 0 0 1-94.9248 94.8736z m0-165.4272a70.5536 70.5536 0 1 0 70.6048 70.5536 70.6048 70.6048 0 0 0-70.6048-70.5536zM345.7536 738.6624H287.8464a12.1344 12.1344 0 0 1-11.9808-10.24l-7.68-45.4656a199.1168 199.1168 0 0 1-56.32-24.2688l-37.6832 26.7776a12.1344 12.1344 0 0 1-15.616-1.28l-40.96-40.96a12.1856 12.1856 0 0 1-1.3312-15.6672l27.904-39.2704A198.4512 198.4512 0 0 1 122.88 533.6576l-47.7696-8.0384a12.0832 12.0832 0 0 1-10.24-11.9808V455.68a12.0832 12.0832 0 0 1 10.24-11.9808L124.8768 435.2a199.68 199.68 0 0 1 22.4768-51.9168l-29.2352-40.96a12.1856 12.1856 0 0 1 1.3312-15.6672l40.96-40.96a12.1344 12.1344 0 0 1 15.616-1.3312l42.0352 29.9008a198.2976 198.2976 0 0 1 51.5584-21.0432l8.448-50.176a12.2368 12.2368 0 0 1 12.032-10.24H348.16a12.1344 12.1344 0 0 1 11.9808 10.24l8.4992 50.176a199.3728 199.3728 0 0 1 52.4288 21.5552l40.4992-28.8256a12.1344 12.1344 0 0 1 15.36 1.3312l40.96 40.96a12.1856 12.1856 0 0 1 1.3312 15.6672L490.9568 384a200.0896 200.0896 0 0 1 22.9888 54.3232l46.6944 7.8848a12.0832 12.0832 0 0 1 10.24 11.9808v57.9072a12.1856 12.1856 0 0 1-10.24 12.032l-46.08 7.7312a199.68 199.68 0 0 1-23.04 56.3712l26.3168 37.0176a12.1344 12.1344 0 0 1-1.3312 15.36l-40.96 40.96a12.1344 12.1344 0 0 1-15.36 1.28L423.1168 660.48a199.3216 199.3216 0 0 1-57.4976 23.3984l-7.4752 44.3392a12.2368 12.2368 0 0 1-12.3904 10.4448z m-47.616-24.32h37.376l7.1168-42.3424a12.1856 12.1856 0 0 1 9.728-9.9328 174.7968 174.7968 0 0 0 64.1024-26.0608 12.1344 12.1344 0 0 1 13.7216 0l35.328 25.1392 26.4704-26.2656-25.1392-35.328a12.1856 12.1856 0 0 1 0-13.7728 174.6432 174.6432 0 0 0 25.9584-63.232 12.0832 12.0832 0 0 1 9.9328-9.6256l43.9296-7.424v-37.376L501.76 460.8a12.288 12.288 0 0 1-9.8816-9.472 175.5648 175.5648 0 0 0-25.6-61.0816 12.0832 12.0832 0 0 1 0-13.824l27.136-38.144-26.4704-26.4192-38.656 27.4944a12.1344 12.1344 0 0 1-13.6192 0.3072 176.128 176.128 0 0 0-59.4432-24.4224 12.1344 12.1344 0 0 1-9.5232-9.8816L337.92 257.2288h-37.376l-8.0896 48.0256a12.1344 12.1344 0 0 1-9.5232 9.8816 177.3568 177.3568 0 0 0-58.6752 23.9104 12.1344 12.1344 0 0 1-13.568-0.3072l-40.1408-28.5696-26.6752 26.4192 28.0576 39.424a12.1856 12.1856 0 0 1 0 13.824 175.104 175.104 0 0 0-25.6 58.8288 12.1344 12.1344 0 0 1-9.8304 9.3184L89.3952 465.92v37.376l46.08 7.7312a12.288 12.288 0 0 1 9.9328 9.7792 174.5408 174.5408 0 0 0 24.1152 61.44 12.2368 12.2368 0 0 1-0.3584 13.5168l-26.5728 37.376 26.368 26.6752 35.84-25.6a12.1856 12.1856 0 0 1 13.9776 0A174.7968 174.7968 0 0 0 281.6 661.1968a12.1856 12.1856 0 0 1 9.4208 9.8816z m260.5056-198.5024z" fill="#f3973b" p-id="9650"></path><path d="M317.952 606.7712a121.0368 121.0368 0 1 1 120.9856-120.9856 121.1392 121.1392 0 0 1-120.9856 120.9856z m0-217.6512A96.7168 96.7168 0 1 0 414.72 485.7856 96.8192 96.8192 0 0 0 317.952 389.12z" fill="#f3973b" p-id="9651"></path></svg>