<?xml version="1.0" standalone="no"?><!DOCTYPE svg PUBLIC "-//W3C//DTD SVG 1.1//EN" "http://www.w3.org/Graphics/SVG/1.1/DTD/svg11.dtd"><svg t="1766539392909" class="icon" viewBox="0 0 1024 1024" version="1.1" xmlns="http://www.w3.org/2000/svg" p-id="55336" xmlns:xlink="http://www.w3.org/1999/xlink" width="128" height="128"><path d="M512 74l213.042 123v246L512 566l-213.042-123v-246zM266 480l213.042 123v246L266 972 52.958 849v-246zM758 480l213.042 123v246L758 972l-213.042-123v-246z" fill="#F2F2F2" p-id="55337"></path><path d="M512 74l213.042 123v246L512 566l-213.042-123v-246L512 74z m0 13.856l-201.044 116.072v232.142L512 552.142l201.042-116.072V203.928L512 87.856zM758 480l213.042 123v246L758 972l-213.042-123v-246L758 480z m0 13.856l-201.044 116.072v232.142L758 958.142l201.042-116.072V609.928L758 493.856zM266 480l213.042 123v246L266 972 52.958 849v-246L266 480z m0 13.856L64.956 609.928v232.142L266 958.142l201.042-116.072V609.928L266 493.856z" fill="#666666" p-id="55338"></path><path d="M854 642v170.334c0 21.688-42.126 39.31-94.412 39.66L758 852c-52.49 0-95.14-17.406-95.988-39.01L662 812v-170h192z m-12 11.998h-168V812l-0.044-0.002 0.046 0.23-0.002 0.106c0 4.566 6.808 11.218 20.7 16.958 15.976 6.6 37.98 10.53 61.644 10.702l1.616 0.006 1.548-0.006c23.99-0.16 46.24-4.176 62.25-10.894 13.334-5.594 19.974-12 20.234-16.494l0.006-0.192-0.222-12.414 0.224-0.002v-146z" fill="#009633" p-id="55339"></path><path d="M842 653.998v146l-0.224 0.002 0.222 12.414-0.006 0.192c-0.26 4.494-6.9 10.9-20.234 16.494-16.01 6.718-38.26 10.734-62.25 10.894l-1.548 0.006-1.616-0.006c-23.664-0.172-45.668-4.1-61.644-10.702-13.892-5.74-20.7-12.392-20.7-16.96v-0.104l-0.044-0.23 0.044 0.002v-158.002h168z" fill="#00B63E" p-id="55340"></path><path d="M758.768 600c53.444 0 96.768 17.826 96.768 39.816 0 21.99-43.324 39.816-96.768 39.816S662 661.806 662 639.816C662 617.826 705.324 600 758.768 600z m0 12c-24.528 0-47.372 3.976-63.86 10.76-1.65 0.68-3.2 1.37-4.654 2.07l-1.42 0.7-1.354 0.708c-9.032 4.838-13.48 9.888-13.48 13.578 0 3.69 4.448 8.74 13.48 13.58l1.354 0.704 1.42 0.702c1.454 0.7 3.004 1.392 4.654 2.07 16.488 6.784 39.332 10.76 63.86 10.76s47.372-3.976 63.86-10.76c1.65-0.68 3.2-1.37 4.654-2.07l1.42-0.7 1.354-0.708c9.032-4.838 13.48-9.888 13.48-13.578 0-3.69-4.448-8.74-13.48-13.58l-1.354-0.704-1.42-0.702a87.294 87.294 0 0 0-4.654-2.07c-16.488-6.784-39.332-10.76-63.86-10.76z" fill="#009633" p-id="55341"></path><path d="M758.768 612c24.528 0 47.372 3.976 63.86 10.76 1.65 0.68 3.2 1.37 4.654 2.07l1.42 0.7 1.354 0.708c9.032 4.838 13.48 9.888 13.48 13.578 0 3.69-4.448 8.74-13.48 13.58l-1.354 0.704-1.42 0.702c-1.454 0.7-3.004 1.392-4.654 2.07-16.488 6.784-39.332 10.76-63.86 10.76s-47.372-3.976-63.86-10.76c-1.65-0.68-3.2-1.37-4.654-2.07l-1.42-0.7-1.354-0.708c-9.032-4.838-13.48-9.888-13.48-13.578 0-3.69 4.448-8.74 13.48-13.58l1.354-0.704 1.42-0.702c1.454-0.7 3.004-1.392 4.654-2.07 16.488-6.784 39.332-10.76 63.86-10.76z" fill="#32DB6B" p-id="55342"></path><path d="M152 642.48v148.732a6 6 0 0 0 3.234 5.324l117 60.788c3.994 2.076 8.766-0.822 8.766-5.324v-148.732a6 6 0 0 0-3.234-5.324l-117-60.788c-3.994-2.076-8.766 0.822-8.766 5.324z m12 9.88l105 54.552v135.208L164 787.566V652.36z" fill="#0091D2" p-id="55343"></path><path d="M164 652.36l105 54.552v135.208L164 787.566V652.36z" fill="#6ECEFF" p-id="55344"></path><path d="M389.234 637.156l-117 60.788a6 6 0 0 0-3.234 5.324V852c0 4.5 4.772 7.4 8.766 5.324l117-60.788a6 6 0 0 0 3.234-5.324V642.48c0-4.5-4.772-7.4-8.766-5.324zM386 652.358v135.208l-105 54.552v-135.206l105-54.554z" fill="#0091D2" p-id="55345"></path><path d="M386 652.358v135.208l-105 54.552v-135.206l105-54.554z" fill="#00A3EC" p-id="55346"></path><path d="M272.186 575.82L154.35 638.4c-4.266 2.264-4.244 8.386 0.04 10.62l117.836 61.42a6 6 0 0 0 5.548 0l117.836-61.42c4.284-2.234 4.306-8.356 0.04-10.62l-117.836-62.58a6 6 0 0 0-5.628 0z m2.814 12.092l104.95 55.736-104.952 54.704-104.948-54.704 104.95-55.736z" fill="#0091D2" p-id="55347"></path><path d="M275 587.912l104.95 55.736-104.952 54.704-104.948-54.704 104.95-55.736z" fill="#49B3EB" p-id="55348"></path><path d="M405.348 358.154l-9.986 17.112-0.104 0.184-0.388 0.74a23.692 23.692 0 0 0-2.87 11.324c0 9.094 5.02 17.784 16.166 24.534 6.724 4.07 15.768 7.552 26.86 10.39 21.074 5.412 48.7 8.362 77.974 8.362s56.898-2.95 77.98-8.364c11.138-2.852 20.134-6.312 26.86-10.392 11.14-6.746 16.16-15.436 16.16-24.528l-0.036-0.876a25.338 25.338 0 0 0-1.548-7.444l-0.112-0.282 0.124 0.53a15.92 15.92 0 0 0-1.944-4.956l-9.546-16.36-102.906-177.14c-2.316-3.99-8.078-3.98-10.384 0.012l-102.3 177.154z m107.512-162.184l97.708 168.196 9.604 16.456c0.194 0.32 0.332 0.632 0.432 0.974l0.09 0.356a6 6 0 0 0 0.192 0.692l0.126 0.336c0.612 1.49 0.948 3.08 0.99 4.69 0 4.692-2.786 9.514-10.382 14.112-5.596 3.394-13.534 6.446-23.62 9.03-20.026 5.142-46.67 7.988-75 7.988-28.332 0-54.976-2.846-74.994-7.986-10.044-2.57-18.03-5.644-23.626-9.032-7.594-4.6-10.38-9.42-10.38-14.266 0-1.712 0.368-3.444 1.214-5.196l0.54-1.058 9.972-17.084 97.134-168.208z" fill="#EF8600" p-id="55349"></path><path d="M512.86 195.97l97.708 168.196 9.604 16.456c0.194 0.32 0.332 0.632 0.432 0.974l0.09 0.356a6 6 0 0 0 0.192 0.692l0.126 0.336c0.612 1.49 0.948 3.08 0.99 4.69 0 4.692-2.786 9.514-10.382 14.112-5.596 3.394-13.534 6.446-23.62 9.03-20.026 5.142-46.67 7.988-75 7.988-28.332 0-54.976-2.846-74.994-7.986-10.044-2.57-18.03-5.644-23.626-9.032-7.594-4.6-10.38-9.42-10.38-14.266 0-1.712 0.368-3.444 1.214-5.196l0.54-1.058 9.972-17.084 97.134-168.208z" fill="#FFC63E" p-id="55350"></path><path d="M513 339.4c-66.61 0-120.972 20.474-120.972 49.3 0 13.538 11.826 25.312 31.98 34l1.75 0.736 1.788 0.722 1.828 0.706 1.868 0.69 0.948 0.34 1.926 0.666 0.976 0.328 1.982 0.642 2.02 0.626c2.38 0.72 4.832 1.408 7.358 2.06l2.18 0.548 1.106 0.268 2.234 0.524 2.268 0.506c36.412 7.918 81.108 7.918 117.52 0l2.268-0.506 2.234-0.524 1.104-0.268 2.182-0.55a183.078 183.078 0 0 0 7.358-2.058l2.02-0.626 1.98-0.642 0.98-0.328 1.924-0.666 0.948-0.34 1.868-0.69 1.828-0.706 1.788-0.72 1.748-0.74c20.156-8.686 31.982-20.46 31.982-34 0-28.824-54.362-49.3-120.972-49.3z m0 12c60.386 0 108.972 18.298 108.972 37.3 0 4.24-2.632 8.648-7.588 12.884l-0.898 0.746c-1.076 0.868-2.25 1.728-3.52 2.576l-1.11 0.726-1.158 0.72-1.202 0.712c-0.818 0.472-1.664 0.94-2.54 1.404l-1.34 0.692-0.686 0.342-1.404 0.68-1.448 0.672c-0.98 0.444-1.988 0.882-3.026 1.314l-1.576 0.644-1.62 0.634-1.66 0.62-0.846 0.308-1.722 0.606c-0.582 0.2-1.17 0.4-1.764 0.596l-1.804 0.58c-0.306 0.098-0.61 0.194-0.92 0.288l-1.862 0.564c-0.942 0.28-1.9 0.552-2.872 0.82l-1.96 0.532-0.998 0.26-2.02 0.508-2.06 0.494-1.04 0.242-2.116 0.472c-34.734 7.552-77.69 7.552-112.424 0l-2.114-0.472-1.044-0.24-2.058-0.496-2.02-0.508a181.01 181.01 0 0 1-0.996-0.26l-1.962-0.532c-0.648-0.18-1.29-0.36-1.924-0.544l-1.884-0.556a157.88 157.88 0 0 1-0.928-0.284l-1.824-0.576a145.004 145.004 0 0 1-2.66-0.888l-1.724-0.606a132.236 132.236 0 0 1-0.846-0.306l-1.66-0.622-1.62-0.634-1.576-0.644a106.014 106.014 0 0 1-3.026-1.314l-1.448-0.672-1.404-0.68-0.686-0.342-1.34-0.692a75.428 75.428 0 0 1-2.54-1.404l-1.202-0.714-1.158-0.72-1.11-0.724a49.054 49.054 0 0 1-3.52-2.576l-0.9-0.746c-4.954-4.236-7.586-8.644-7.586-12.884 0-19.002 48.586-37.3 108.972-37.3z" fill="#EF8600" p-id="55351"></path><path d="M513 351.4c60.386 0 108.972 18.298 108.972 37.3 0 4.24-2.632 8.648-7.588 12.884l-0.898 0.746c-1.076 0.868-2.25 1.728-3.52 2.576l-1.11 0.726-1.158 0.72-1.202 0.712c-0.818 0.472-1.664 0.94-2.54 1.404l-1.34 0.692-0.686 0.342-1.404 0.68-1.448 0.672c-0.98 0.444-1.988 0.882-3.026 1.314l-1.576 0.644-1.62 0.634-1.66 0.62-0.846 0.308-1.722 0.606c-0.582 0.2-1.17 0.4-1.764 0.596l-1.804 0.58c-0.306 0.098-0.61 0.194-0.92 0.288l-1.862 0.564c-0.942 0.28-1.9 0.552-2.872 0.82l-1.96 0.532-0.998 0.26-2.02 0.508-2.06 0.494-1.04 0.242-2.116 0.472c-34.734 7.552-77.69 7.552-112.424 0l-2.114-0.472-1.044-0.24-2.058-0.496-2.02-0.508a181.01 181.01 0 0 1-0.996-0.26l-1.962-0.532c-0.648-0.18-1.29-0.36-1.924-0.544l-1.884-0.556a157.88 157.88 0 0 1-0.928-0.284l-1.824-0.576a145.004 145.004 0 0 1-2.66-0.888l-1.724-0.606a132.236 132.236 0 0 1-0.846-0.306l-1.66-0.622-1.62-0.634-1.576-0.644a106.014 106.014 0 0 1-3.026-1.314l-1.448-0.672-1.404-0.68-0.686-0.342-1.34-0.692a75.428 75.428 0 0 1-2.54-1.404l-1.202-0.714-1.158-0.72-1.11-0.724a49.054 49.054 0 0 1-3.52-2.576l-0.9-0.746c-4.954-4.236-7.586-8.644-7.586-12.884 0-19.002 48.586-37.3 108.972-37.3z" fill="#F3A33C" p-id="55352"></path></svg>