<?xml version="1.0" standalone="no"?><!DOCTYPE svg PUBLIC "-//W3C//DTD SVG 1.1//EN" "http://www.w3.org/Graphics/SVG/1.1/DTD/svg11.dtd"><svg t="1766484333161" class="icon" viewBox="0 0 1024 1024" version="1.1" xmlns="http://www.w3.org/2000/svg" p-id="46119" xmlns:xlink="http://www.w3.org/1999/xlink" width="128" height="128"><path d="M748.001 787.43a78.743 78.743 0 1 0 0 157.41 78.743 78.743 0 0 0 0-157.448zM398.53 275.62C250.635 367.555 164.84 374.57 0 420.518c28.965 55.351 57.171 114.076 65.588 115.934 8.454 1.896 141.525-52.697 160.708-59.256 3.488-1.175 7.886-2.654 7.886-2.502l-3.981 4.094C218.297 489.784 90.837 597.567 90.837 597.567c40.338 55.882 100.466 127.157 109.451 130.341 19.866-4.511 175.912-109.11 204.346-126.626 6.975-4.246 12.624-7.203 12.624-7.089 0.114 0.152-4.284 6.824-7.241 10.729-24.188 32.908-147.932 189.749-147.932 189.749 72.563 69.113 151.95 135.194 162.87 130.606 10.994-11.373 126.777-168.063 151.002-191.872 9.857-9.743 16.037-15.657 16.15-15.543a355.993 355.993 0 0 1-9.629 22.102c-26.159 58.157-97.547 212.193-97.547 212.193 30.746 21.8 77.492 49.096 117.565 71.426 41.324-164.5 51.711-249.233 145.543-397.923L398.53 275.544z m391.781 71.805l233.31-233.159L909.24 0 674.83 234.144a237.821 237.821 0 0 0-241.801 26.235l334.269 330.174c20.737-27.903 93.604-142.814 22.974-243.128z m36.471 440.308c0 21.534 17.591 39.05 39.353 39.05 21.761 0 39.39-17.516 39.39-39.164v-0.455c0-21.61-17.629-39.125-39.39-39.125-21.762 0-39.353 17.478-39.353 39.125v0.57zM314.972 275.62a78.78 78.78 0 0 0 0-157.486 78.78 78.78 0 0 0 0 157.486z" fill="#FF5C5C" p-id="46120"></path></svg>