<?xml version="1.0" standalone="no"?><!DOCTYPE svg PUBLIC "-//W3C//DTD SVG 1.1//EN" "http://www.w3.org/Graphics/SVG/1.1/DTD/svg11.dtd"><svg t="1768546334650" class="icon" viewBox="0 0 1024 1024" version="1.1" xmlns="http://www.w3.org/2000/svg" p-id="32644" xmlns:xlink="http://www.w3.org/1999/xlink" width="128" height="128"><path d="M914.098512 337.647744v300.493339L535.867737 385.29845l-1.845953-301.694056 380.076728 254.04335z m0 0" p-id="32645"></path><path d="M511.131375 0L76.661379 297.985197v428.030604l434.469996 297.985196 434.469996-297.985196V297.985197L511.131375 0z m384.949404 692.001808L511.131375 956.343 126.180974 692.297V332.069996l384.949404-264.117803L896.079782 331.998192v360.003616z m9.437195-396.434001l20.479003 52.227191M83.681184 345.892201l21.941005-50.396198" p-id="32646"></path><path d="M945.601371 365.931406l-434.469996 297.985197-434.469996-297.985197 49.519595-33.934211 384.949404 264.045002L896.079782 331.997195l49.521589 33.934211z m0 0" p-id="32647"></path><path d="M76.661379 659.748999l434.469996-297.986194 434.469996 297.986194-49.520592 34.011998L511.131375 429.714998 126.180974 693.760997l-49.519595-34.011998z m0 0" p-id="32648"></path><path d="M486.11478 604.307596v380.341005h73.142002l-3.364799-367.248804-69.777203-13.092201z m0-571.0994v380.340008h73.142002l-3.364799-367.321605-69.777203-13.018403z m0 0" p-id="32649"></path></svg>