<?xml version="1.0" standalone="no"?><!DOCTYPE svg PUBLIC "-//W3C//DTD SVG 1.1//EN" "http://www.w3.org/Graphics/SVG/1.1/DTD/svg11.dtd"><svg t="1766539498725" class="icon" viewBox="0 0 1024 1024" version="1.1" xmlns="http://www.w3.org/2000/svg" p-id="60165" xmlns:xlink="http://www.w3.org/1999/xlink" width="128" height="128"><path d="M288 160a64 64 0 0 0-64 64v576a64 64 0 0 0 64 64h448a64 64 0 0 0 64-64V224a64 64 0 0 0-64-64H288m0-64h448a128 128 0 0 1 128 128v576a128 128 0 0 1-128 128H288a128 128 0 0 1-128-128V224a128 128 0 0 1 128-128z" fill="#4078FD" p-id="60166"></path><path d="M352 764.448a32 32 0 0 1-32-32v-105.984a32 32 0 0 1 12.576-25.6 32 32 0 0 1 27.84-5.44l136.032 37.152 156.8-114.528a32 32 0 0 1 18.88-6.176 32 32 0 0 1 14.496 3.456 32 32 0 0 1 17.504 28.544v188.448a32 32 0 0 1-32 32z m0-32h320z" fill="#4078FD" opacity=".2" p-id="60167"></path><path d="M672 544l-169.088 123.68L352 626.432v106.016h320V544m0-32a32 32 0 0 1 32 32v188.448a32 32 0 0 1-32 32H352a32 32 0 0 1-32-32v-106.016a32 32 0 0 1 40.416-30.88l136.032 37.152 156.64-114.56A32 32 0 0 1 672 512z" fill="#4078FD" p-id="60168"></path><path d="M320 416m32 0l128 0q32 0 32 32l0 0q0 32-32 32l-128 0q-32 0-32-32l0 0q0-32 32-32Z" fill="#4078FD" p-id="60169"></path><path d="M352 288h256a32 32 0 0 1 0 64H352a32 32 0 0 1 0-64z" fill="#FE9C23" p-id="60170"></path></svg>