<?xml version="1.0" standalone="no"?><!DOCTYPE svg PUBLIC "-//W3C//DTD SVG 1.1//EN" "http://www.w3.org/Graphics/SVG/1.1/DTD/svg11.dtd"><svg t="1768546082817" class="icon" viewBox="0 0 1024 1024" version="1.1" xmlns="http://www.w3.org/2000/svg" p-id="12678" xmlns:xlink="http://www.w3.org/1999/xlink" width="128" height="128"><path d="M157.866667 493.568v19.072c0 22.101333 8.832 43.093333 23.893333 58.581333-64.853333 34.048-101.674667 76.032-101.674667 116.565334 0 38.186667 32.213333 77.482667 90.752 110.634666 48.213333 27.349333 110.634667 48.298667 180.522667 61.013334l-18.773333-29.525334a40.064 40.064 0 0 1 67.541333-43.008l64.810667 101.802667a40.021333 40.021333 0 0 1-8.661334 52.693333L366.464 1013.76a39.936 39.936 0 0 1-56.32-6.058667 40.064 40.064 0 0 1 6.058667-56.32l17.237333-13.866666c-77.354667-14.464-147.157333-38.272-202.069333-69.418667-39.765333-22.528-71.168-48.426667-93.354667-76.885333C12.8 758.784 0 724.053333 0 687.786667c0-75.776 56.021333-144.64 157.824-194.133334z m686.805333 78.933333c15.829333-15.573333 25.130667-37.12 25.130667-59.861333v-17.237333l0.085333 0.042666 11.178667 5.717334C973.482667 550.101333 1024 615.808 1024 687.786667c0 71.722667-50.944 138.112-143.488 186.922666-83.242667 43.946667-195.754667 71.509333-316.757333 77.568a40.021333 40.021333 0 0 1-4.010667-79.957333c109.610667-5.546667 210.261333-29.824 283.392-68.394667 33.28-17.578667 60.032-37.973333 77.312-58.965333 15.573333-18.944 23.466667-38.186667 23.466667-57.173333 0-40.021333-35.84-81.493333-99.114667-115.2z m-268.8-555.946666l200.576 115.797333a124.458667 124.458667 0 0 1 62.08 107.52v231.552a124.586667 124.586667 0 0 1-62.037333 107.52l-200.576 115.754667a124.074667 124.074667 0 0 1-124.16 0l-200.533334-115.797334a124.501333 124.501333 0 0 1-62.08-107.52l0.042667-231.552c0-44.16 23.765333-85.333333 62.08-107.477333l200.533333-115.754667a124.458667 124.458667 0 0 1 124.117334 0z m182.570667 247.04l-181.888 102.272c-8.021333 4.522667-16.426667 8.106667-25.002667 10.752v239.701333l159.701333-92.202667 25.173334-14.549333c13.568-7.850667 22.016-22.442667 22.016-38.144V263.552z m-489.173334-7.253334v215.082667c0 15.701333 8.448 30.293333 22.016 38.144l24.106667 13.909333 156.074667 90.112V374.997333a126.293333 126.293333 0 0 1-23.296-10.965333L269.269333 256.341333z m244.565334-176.298666c-7.68 0-15.317333 2.005333-22.016 5.888l-178.858667 103.253333 176.512 106.24c14.634667 8.789333 32.938667 9.045333 47.786667 0.682667l183.722666-103.338667-185.088-106.837333a44.032 44.032 0 0 0-22.058666-5.888z" p-id="12679"></path></svg>