<?xml version="1.0" standalone="no"?><!DOCTYPE svg PUBLIC "-//W3C//DTD SVG 1.1//EN" "http://www.w3.org/Graphics/SVG/1.1/DTD/svg11.dtd"><svg t="1768798861431" class="icon" viewBox="0 0 1024 1024" version="1.1" xmlns="http://www.w3.org/2000/svg" p-id="10398" xmlns:xlink="http://www.w3.org/1999/xlink" width="200" height="200"><path d="M45.568 606.208l-0.512 0.512v214.528l209.92 110.592v-220.672L45.568 606.208z m0 0" fill="#FFFFFF" p-id="10399"></path><path d="M464.896 606.72l-209.92-110.592-201.216 105.984-8.192 4.096 209.408 104.448 2.56-1.024 207.872-102.912h-0.512z m-207.36 102.912l-2.56 1.024 2.56-1.024z m0 0" fill="#91D5FF" p-id="10400"></path><path d="M506.88 586.24c-3.072-6.656-8.192-12.288-14.848-15.872L271.36 453.632c-10.24-5.12-22.016-5.12-32.256 0L18.432 569.856c-3.584 2.048-6.656 5.12-9.216 8.192-2.048 2.048-4.096 4.608-5.632 7.168-2.56 4.608-3.584 9.728-3.584 15.36v226.816c0 12.8 7.168 24.576 18.944 30.72l220.672 116.224c4.608 2.56 10.24 4.096 15.872 4.608h2.56c4.608 0 9.216-1.536 13.312-3.584l220.672-116.224c11.264-6.144 18.944-17.92 18.944-30.72v-227.84c-0.512-5.12-1.536-9.728-4.096-14.336z m-41.472 20.48l-207.872 102.912-2.56 1.536V931.84l-209.92-110.592v-214.528l8.192-4.096 202.24-106.496 209.92 110.592z m0 0" fill="#40A9FF" p-id="10401"></path><path d="M559.104 606.208l-0.512 0.512v214.528l210.432 110.592v-220.672l-209.92-104.96z m0 0" fill="#FFFFFF" p-id="10402"></path><path d="M978.432 606.72l-209.92-110.592-201.216 105.984-8.192 4.096 209.408 104.448 2.56-1.024 207.872-102.912h-0.512z m-207.36 102.912l-2.56 1.024 2.56-1.024z m0 0" fill="#91D5FF" p-id="10403"></path><path d="M1020.416 586.24c-3.072-6.656-8.192-12.288-14.848-15.872l-220.672-116.736c-10.24-5.12-22.016-5.12-32.256 0l-220.672 116.224c-3.584 2.048-6.656 5.12-9.216 8.192-2.048 2.048-4.096 4.608-5.632 7.168-2.56 4.608-3.584 9.728-3.584 15.36v226.816c0 12.8 7.168 24.576 18.944 30.72l220.672 116.224c4.608 2.56 10.24 4.096 15.872 4.608h2.56c4.608 0 9.216-1.536 13.312-3.584l220.672-116.224c11.264-6.144 18.944-17.92 18.944-30.72v-227.84c-0.512-5.12-2.048-9.728-4.096-14.336z m-41.472 20.48l-207.872 102.912-2.56 1.536V931.84L558.08 821.248v-214.528l8.192-4.096 202.24-106.496 209.92 110.592h0.512z m0 0" fill="#40A9FF" p-id="10404"></path><path d="M302.592 201.728l-0.512 0.512v214.528l209.92 110.592V306.688L302.592 201.728z m0 0" fill="#FFFFFF" p-id="10405"></path><path d="M721.92 202.24l-209.92-110.592-201.216 105.984-8.192 4.096L512 306.688l2.56-1.024 207.872-102.912-0.512-0.512z m-207.36 102.912l-2.56 1.024 2.56-1.024z m0 0" fill="#91D5FF" p-id="10406"></path><path d="M763.904 181.76c-3.072-6.656-8.192-12.288-14.848-15.872L527.872 49.664c-10.24-5.12-22.016-5.12-32.256 0l-220.16 115.712c-3.584 2.048-6.656 5.12-9.216 8.192-2.048 2.048-4.096 4.608-5.632 7.168-2.56 4.608-3.584 9.728-3.584 15.36v226.816c0 12.8 7.168 24.576 18.944 30.72L496.64 569.856c4.608 2.56 10.24 4.096 15.872 4.608h2.56c4.608 0 9.216-1.536 13.312-3.584l220.672-116.224c11.264-6.144 18.944-17.92 18.944-30.72V196.096c-0.512-5.12-2.048-9.728-4.096-14.336z m-41.472 20.992l-207.872 102.912-2.56 1.536v220.16L301.568 416.768V202.24l8.192-4.096L512 91.648l209.92 110.592 0.512 0.512z m0 0" fill="#40A9FF" p-id="10407"></path></svg>