<svg width="24" height="24" viewBox="0 0 24 24" fill="none" xmlns="http://www.w3.org/2000/svg">
<path d="M16.1451 19.1255V16.4804C16.2854 16.6964 16.4512 16.8907 16.6426 17.0634C16.8382 17.2362 17.0444 17.3837 17.2612 17.5061C17.4781 17.6212 17.695 17.7112 17.9118 17.776C18.1287 17.8408 18.3285 17.8731 18.5114 17.8731C19.1492 17.8731 19.6233 17.6932 19.9337 17.3333C20.2484 16.9735 20.4057 16.4516 20.4057 15.7679C20.4057 15.4008 20.3526 15.0841 20.2463 14.8178C20.1442 14.5443 19.9996 14.296 19.8125 14.0729C19.6254 13.8498 19.4043 13.6374 19.1492 13.4359C18.8983 13.2272 18.6283 13.0112 18.3392 12.7881C18.0288 12.5074 17.7396 12.2231 17.4717 11.9352C17.2038 11.6473 16.97 11.3306 16.7701 10.9852C16.5745 10.6325 16.4193 10.2366 16.3045 9.79757C16.194 9.35852 16.1387 8.8439 16.1387 8.25371C16.1387 7.52677 16.2343 6.89699 16.4257 6.36437C16.6213 5.82456 16.8764 5.38192 17.1911 5.03644C17.51 4.68376 17.8714 4.42465 18.2754 4.25911C18.6793 4.08637 19.0918 4 19.5128 4C20.4695 4 21.1669 4.18354 21.6048 4.55061V7.08772C21.0861 6.45434 20.4185 6.13765 19.6021 6.13765C19.3767 6.13765 19.1513 6.17364 18.926 6.24561C18.7049 6.31759 18.505 6.43635 18.3264 6.60189C18.1521 6.76743 18.0096 6.97976 17.8991 7.23887C17.7885 7.49798 17.7332 7.81107 17.7332 8.17814C17.7332 8.52362 17.7758 8.82231 17.8608 9.07422C17.9458 9.32614 18.0692 9.55646 18.2307 9.76518C18.3966 9.97391 18.5964 10.179 18.8303 10.3806C19.0684 10.5749 19.3427 10.7872 19.6531 11.0175C19.972 11.2982 20.2718 11.5933 20.5524 11.9028C20.8373 12.2123 21.0861 12.5542 21.2987 12.9285C21.5155 13.3027 21.6856 13.7202 21.8089 14.1808C21.9365 14.6343 22.0003 15.1525 22.0003 15.7355C22.0003 16.52 21.9067 17.1822 21.7196 17.722C21.5325 18.2618 21.2795 18.7009 20.9606 19.0391C20.646 19.3774 20.2824 19.6221 19.8699 19.7733C19.4575 19.9244 19.0216 20 18.5624 20C18.4093 20 18.2201 19.9784 17.9947 19.9352C17.7736 19.8992 17.5461 19.8417 17.3123 19.7625C17.0784 19.6905 16.8573 19.6005 16.6489 19.4926C16.4406 19.3846 16.2726 19.2623 16.1451 19.1255Z" fill="white"/>
<path d="M11.871 14.1265V19.7406H10.3594V4.25879H13.1339C14.1842 4.25879 14.9985 4.67264 15.5768 5.50035C16.1551 6.32806 16.4442 7.49406 16.4442 8.99833C16.4442 10.5026 16.1423 11.7334 15.5385 12.6906C14.9347 13.6479 14.1183 14.1265 13.0893 14.1265H11.871ZM11.871 6.37485V12.0321H12.8533C13.5039 12.0321 13.9992 11.7766 14.3394 11.2655C14.6796 10.7545 14.8497 10.0348 14.8497 9.10629C14.8497 7.28533 14.2246 6.37485 12.9745 6.37485H11.871Z" fill="white"/>
<path d="M10.5341 19.7406H8.86937L8.04658 15.7999H4.44925L3.65834 19.7406H2L5.42512 4.25879H7.13449L10.5341 19.7406ZM7.64475 13.7055L6.37548 7.53004C6.33721 7.32851 6.29681 7.00463 6.25429 6.55838H6.22878C6.19051 6.96864 6.14799 7.29253 6.10121 7.53004L4.8447 13.7055H7.64475Z" fill="white"/>
</svg>
