<?xml version="1.0" standalone="no"?><!DOCTYPE svg PUBLIC "-//W3C//DTD SVG 1.1//EN" "http://www.w3.org/Graphics/SVG/1.1/DTD/svg11.dtd"><svg t="1752719072278" class="icon" viewBox="0 0 1024 1024" version="1.1" xmlns="http://www.w3.org/2000/svg" p-id="28594" xmlns:xlink="http://www.w3.org/1999/xlink" width="200" height="200"><path d="M132.096 966.0416a74.3424 74.3424 0 0 1-74.1376-74.1376v-675.84A74.3424 74.3424 0 0 1 132.096 143.36h84.3776a29.696 29.696 0 0 1 32.1536 31.9488 29.696 29.696 0 0 1-32.1536 31.9488H122.88v696.32h780.288v-696.32h-95.6416a29.696 29.696 0 0 1-32.1536-31.9488A29.696 29.696 0 0 1 807.5264 143.36h84.3776a74.3424 74.3424 0 0 1 74.1376 74.1376v675.84a74.3424 74.3424 0 0 1-74.1376 74.1376z m342.016-759.808a29.696 29.696 0 0 1-32.1536-31.9488A29.696 29.696 0 0 1 474.112 143.36h84.3776a29.696 29.696 0 0 1 31.9488 31.9488 29.4912 29.4912 0 0 1-31.9488 31.9488z" fill="#040000" p-id="28595"></path><path d="M438.272 721.7152a33.9968 33.9968 0 0 1-24.576-10.24L295.5264 593.92a30.3104 30.3104 0 0 1 0-44.4416 31.5392 31.5392 0 0 1 22.3232-9.8304 31.1296 31.1296 0 0 1 22.3232 9.8304l100.1472 99.9424L658.432 430.08a31.5392 31.5392 0 0 1 22.3232-9.8304 31.1296 31.1296 0 0 1 22.3232 9.8304 30.5152 30.5152 0 0 1 0 44.4416L466.7392 711.4752a5.7344 5.7344 0 0 1-1.8432 1.4336h-3.4816l-2.048 1.8432a35.2256 35.2256 0 0 1-21.0944 6.9632z m242.4832-430.08a29.696 29.696 0 0 1-31.9488-31.9488V89.9072a31.9488 31.9488 0 1 1 63.8976 0v168.96a29.4912 29.4912 0 0 1-31.9488 31.9488z m-337.5104 0a29.4912 29.4912 0 0 1-31.9488-31.9488V89.9072a29.4912 29.4912 0 0 1 31.9488-31.9488 29.696 29.696 0 0 1 31.9488 31.9488v168.96a29.696 29.696 0 0 1-31.9488 31.9488z" fill="#040000" p-id="28596"></path></svg>