<?xml version="1.0" standalone="no"?><!DOCTYPE svg PUBLIC "-//W3C//DTD SVG 1.1//EN" "http://www.w3.org/Graphics/SVG/1.1/DTD/svg11.dtd"><svg t="1752720496888" class="icon" viewBox="0 0 1024 1024" version="1.1" xmlns="http://www.w3.org/2000/svg" p-id="40695" xmlns:xlink="http://www.w3.org/1999/xlink" width="200" height="200"><path d="M964.816387 654.181688a20.443178 20.443178 0 0 0-18.39886-16.763406L910.028671 633.73851a254.313131 254.313131 0 0 0-20.443178-47.019309l23.509654-28.007153a20.443178 20.443178 0 0 0 1.431023-24.531813 303.376758 303.376758 0 0 0-80.750552-80.750553 20.443178 20.443178 0 0 0-24.736245 1.226591l-27.802722 23.509655a263.716993 263.716993 0 0 0-47.223741-19.421019l-2.862045-36.388857a20.443178 20.443178 0 0 0-16.763405-18.603291 325.250958 325.250958 0 0 0-114.277364 0 20.443178 20.443178 0 0 0-16.558974 18.603291l-3.066477 36.388857a255.744154 255.744154 0 0 0-47.019308 19.421019l-25.758404-21.669769a20.443178 20.443178 0 0 0 8.994998-5.519658 261.05938 261.05938 0 0 0 51.72124-89.541118 20.443178 20.443178 0 0 0-7.563976-23.305223l-36.79772-26.167268a224.874955 224.874955 0 0 0 0-78.706234l36.79772-26.167267A20.443178 20.443178 0 0 0 569.240898 183.9886a260.037221 260.037221 0 0 0-51.72124-89.745551 20.443178 20.443178 0 0 0-23.918518-4.906362l-40.886355 18.807723a214.244503 214.244503 0 0 0-68.075782-39.455333l-4.497499-45.383854a20.443178 20.443178 0 0 0-16.558974-18.194429 278.231649 278.231649 0 0 0-102.215889 0 20.443178 20.443178 0 0 0-16.763406 18.194429l-4.293067 45.383854a214.244503 214.244503 0 0 0-68.484646 39.04647l-40.886355-18.807724a20.443178 20.443178 0 0 0-23.918518 5.110795A258.197335 258.197335 0 0 0 55.094977 183.9886 20.443178 20.443178 0 0 0 62.25009 206.680527l36.797719 26.167268a224.874955 224.874955 0 0 0 0 78.706234L62.25009 337.721296a20.443178 20.443178 0 0 0-7.563976 23.305223A258.197335 258.197335 0 0 0 106.611785 449.74991a20.443178 20.443178 0 0 0 23.918518 5.110795l40.886356-18.807724a214.244503 214.244503 0 0 0 68.075782 39.455333l4.293067 45.383855a20.443178 20.443178 0 0 0 16.763406 18.194428 298.879259 298.879259 0 0 0 51.107944 4.701931 299.492554 299.492554 0 0 0 51.312376-4.701931 20.443178 20.443178 0 0 0 16.558974-18.194428l4.497499-45.383855a214.244503 214.244503 0 0 0 68.075782-39.455333l32.300221 14.92352-3.270908 1.431023a306.647666 306.647666 0 0 0-80.546121 80.750552 20.443178 20.443178 0 0 0 1.226591 24.531813l23.509654 28.007153a268.214492 268.214492 0 0 0-20.443177 47.019309l-35.979993 3.679772a20.443178 20.443178 0 0 0-18.39886 16.763406 320.753459 320.753459 0 0 0 0 114.072932 20.443178 20.443178 0 0 0 18.39886 16.763406l36.593288 3.066476a268.214492 268.214492 0 0 0 20.443178 47.019309l-23.509655 27.802722a20.443178 20.443178 0 0 0-1.22659 24.736245 306.647666 306.647666 0 0 0 80.54612 81.772711 20.443178 20.443178 0 0 0 24.736245-1.226591l28.007154-23.714086a254.313131 254.313131 0 0 0 47.019308 20.443178l3.066477 36.388856a20.443178 20.443178 0 0 0 16.558974 18.39886 309.714143 309.714143 0 0 0 114.277364 0 20.443178 20.443178 0 0 0 16.763405-18.39886l2.862045-36.388856a250.428927 250.428927 0 0 0 47.223741-20.443178l27.802722 23.714086a20.443178 20.443178 0 0 0 24.736245 1.226591 306.647666 306.647666 0 0 0 80.750552-81.772711 20.443178 20.443178 0 0 0-1.431023-24.736245l-23.714086-27.802722a254.313131 254.313131 0 0 0 20.443178-47.019309l36.388856-3.066476a20.443178 20.443178 0 0 0 18.39886-16.763406 308.691984 308.691984 0 0 0 0-114.072932zM457.212284 393.735603a20.443178 20.443178 0 0 0-22.896359 4.088636 172.949284 172.949284 0 0 1-74.617599 43.339537 20.443178 20.443178 0 0 0-14.719088 17.581133l-4.088636 42.930673a224.874955 224.874955 0 0 1-57.445329 0l-4.088636-42.930673a20.443178 20.443178 0 0 0-14.719088-17.581133 172.949284 172.949284 0 0 1-74.617599-43.339537 20.443178 20.443178 0 0 0-22.896359-4.088636l-39.250901 17.989997a219.968593 219.968593 0 0 1-28.824881-49.676922l35.366698-25.145109a20.443178 20.443178 0 0 0 7.768408-21.8742 170.291671 170.291671 0 0 1-5.315227-42.930673 167.020762 167.020762 0 0 1 5.315227-42.52181 20.443178 20.443178 0 0 0-7.768408-22.078632L99.047809 182.353146a219.968593 219.968593 0 0 1 28.824881-49.676922l39.250901 17.989996a20.443178 20.443178 0 0 0 22.896359-4.088636 172.949284 172.949284 0 0 1 74.617599-43.339536 20.443178 20.443178 0 0 0 14.719088-17.581133l4.088636-42.930674a224.874955 224.874955 0 0 1 57.445329 0l4.088636 42.930674a20.443178 20.443178 0 0 0 14.719088 17.581133 172.949284 172.949284 0 0 1 74.617599 43.339536 20.443178 20.443178 0 0 0 22.896359 4.088636l39.250901-17.989996a219.968593 219.968593 0 0 1 28.824881 49.676922l-35.366698 25.145108a20.443178 20.443178 0 0 0-7.768408 22.078632 173.562579 173.562579 0 0 1 0 85.248051 20.443178 20.443178 0 0 0 7.768408 22.078632l35.366698 25.145109a215.675525 215.675525 0 0 1-28.824881 49.676922z m470.193088 350.804931l-34.753402 2.862044a20.443178 20.443178 0 0 0-18.194429 15.741247 207.907118 207.907118 0 0 1-25.962835 62.351692 20.443178 20.443178 0 0 0 1.839886 23.918518l22.487495 26.780563a257.788471 257.788471 0 0 1-48.450331 48.2459L798.204488 901.953002a20.443178 20.443178 0 0 0-24.736245-2.453181 217.924275 217.924275 0 0 1-62.556124 25.962836 20.443178 20.443178 0 0 0-15.536815 18.194428l-2.862044 34.54897a277.413922 277.413922 0 0 1-68.893509 0l-2.657614-34.54897a20.443178 20.443178 0 0 0-15.741246-18.194428A222.830637 222.830637 0 0 1 542.664767 899.499821a20.443178 20.443178 0 0 0-23.918518 1.635454L491.556822 924.440498a264.125857 264.125857 0 0 1-48.450331-48.2459l22.487496-26.780563a20.443178 20.443178 0 0 0 1.839886-23.918518 209.951435 209.951435 0 0 1-25.962836-62.556123 20.443178 20.443178 0 0 0-18.194428-15.536816L389.340934 744.540534a289.475397 289.475397 0 0 1 0-68.689078l34.753402-2.862045a20.443178 20.443178 0 0 0 18.194428-15.741246 211.178026 211.178026 0 0 1 25.962836-61.329534 20.443178 20.443178 0 0 0-1.839886-23.918518l-22.487496-26.780562A264.125857 264.125857 0 0 1 491.556822 495.951492l26.576131 22.487496a20.443178 20.443178 0 0 0 23.918518 1.635454 220.377456 220.377456 0 0 1 62.556124-25.962836 20.443178 20.443178 0 0 0 15.741247-18.194428l2.657613-34.753402a277.413922 277.413922 0 0 1 68.893509 0l2.862045 34.753402a20.443178 20.443178 0 0 0 15.536815 18.194428 217.924275 217.924275 0 0 1 62.556124 25.962836 20.443178 20.443178 0 0 0 25.34954-1.635454l26.576132-22.487496a257.788471 257.788471 0 0 1 48.450331 48.2459l-22.487496 26.780563a20.443178 20.443178 0 0 0-1.839886 23.918517 207.907118 207.907118 0 0 1 25.962836 61.329534 20.443178 20.443178 0 0 0 18.194428 15.741247l34.753402 2.862044a263.308129 263.308129 0 0 1 0 68.689078z" fill="#191919" p-id="40696"></path><path d="M658.168721 568.320341a141.875654 141.875654 0 1 0 141.875653 141.875654 141.875654 141.875654 0 0 0-141.875653-141.875654z m0 242.864952a100.989298 100.989298 0 1 1 100.989298-100.989298 100.989298 100.989298 0 0 1-100.989298 100.989298zM312.065722 167.838489a104.464638 104.464638 0 1 0 104.464638 104.260207 104.464638 104.464638 0 0 0-104.464638-104.260207z m0 167.83849a63.578283 63.578283 0 1 1 63.578282-63.578283 63.373851 63.373851 0 0 1-63.578282 63.578283z" fill="#191919" p-id="40697"></path></svg>