<?xml version="1.0" standalone="no"?><!DOCTYPE svg PUBLIC "-//W3C//DTD SVG 1.1//EN" "http://www.w3.org/Graphics/SVG/1.1/DTD/svg11.dtd"><svg t="1712903398740" class="icon" viewBox="0 0 1024 1024" version="1.1" xmlns="http://www.w3.org/2000/svg" p-id="4372" id="mx_n_1712903398740" width="200" height="200" xmlns:xlink="http://www.w3.org/1999/xlink"><path d="M832 64H192a32 32 0 0 0-32 32v832a32 32 0 0 0 32 32h640a32 32 0 0 0 32-32v-832A32 32 0 0 0 832 64z m-40 824h-560v-200.96h97.92c11.52 32.768 32 62.272 59.072 84.672a193.088 193.088 0 0 0 305.088-84.672h97.92V624h-148.416l-5.184 24.704A129.28 129.28 0 0 1 512 752c-61.184 0-114.368-43.52-126.528-103.296l-5.12-24.704H231.936V136h560v752zM320 340.992h384a8 8 0 0 0 8-8v-48A8 8 0 0 0 704 276.992H320a8 8 0 0 0-8 8v48c0 4.416 3.584 8 8 8z m0 160h384a8 8 0 0 0 8-8v-48A8 8 0 0 0 704 436.992H320a8 8 0 0 0-8 8v48c0 4.416 3.584 8 8 8z" fill="#262626" p-id="4373"></path></svg>