<?xml version="1.0" standalone="no"?><!DOCTYPE svg PUBLIC "-//W3C//DTD SVG 1.1//EN" "http://www.w3.org/Graphics/SVG/1.1/DTD/svg11.dtd"><svg t="1752719043676" class="icon" viewBox="0 0 1024 1024" version="1.1" xmlns="http://www.w3.org/2000/svg" p-id="28451" xmlns:xlink="http://www.w3.org/1999/xlink" width="200" height="200"><path d="M697.6 499.2c134.4 0 236.8 108.8 236.8 236.8s-108.8 236.8-236.8 236.8-236.8-108.8-236.8-236.8 108.8-236.8 236.8-236.8z m64-422.4c32 0 57.6 25.6 57.6 57.6v268.8c0 19.2-12.8 32-32 32s-32-12.8-32-32V140.8H160v716.8h211.2c19.2 0 32 12.8 32 32s-12.8 32-32 32H160c-32 0-57.6-25.6-57.6-57.6V140.8c0-32 25.6-57.6 57.6-57.6h601.6z m-64 480c-96 0-179.2 83.2-179.2 179.2s83.2 179.2 179.2 179.2 179.2-83.2 179.2-179.2-76.8-179.2-179.2-179.2z m0 64c19.2 0 32 12.8 32 32v76.8l57.6 57.6c12.8 12.8 12.8 32 0 44.8-12.8 12.8-32 12.8-44.8 0l-57.6-64c-12.8-12.8-19.2-25.6-19.2-44.8v-76.8c6.4-12.8 19.2-25.6 32-25.6zM371.2 499.2c19.2 0 32 12.8 32 32s-12.8 32-32 32H249.6c-19.2 0-32-12.8-32-32s12.8-32 32-32h121.6z m121.6-121.6c19.2 0 32 12.8 32 32s-19.2 25.6-32 25.6H249.6c-19.2 0-32-12.8-32-32s12.8-32 32-32h243.2zM608 256c19.2 0 32 12.8 32 32s-12.8 32-32 32H249.6c-12.8 0-25.6-12.8-25.6-32s12.8-32 25.6-32h358.4z" fill="#323233" p-id="28452"></path></svg>