<?xml version="1.0" standalone="no"?><!DOCTYPE svg PUBLIC "-//W3C//DTD SVG 1.1//EN" "http://www.w3.org/Graphics/SVG/1.1/DTD/svg11.dtd"><svg t="1700458072870" class="icon" viewBox="0 0 1024 1024" version="1.1" xmlns="http://www.w3.org/2000/svg" p-id="17175" xmlns:xlink="http://www.w3.org/1999/xlink" width="200" height="200"><path d="M747.04 697.28H237.28c-17.6 0-32 14.4-32 32s14.4 32 32 32h509.76c17.6 0 31.52-14.4 32-32 0-17.6-14.4-32-32-32zM292.96 577.92l160.64-164.32 84 158.24c2.24 4 5.44 7.04 8.96 9.44l0.16 0.16c2.08 1.44 4.32 2.56 6.72 3.2 0.32 0.16 0.64 0.32 0.8 0.32 2.4 0.64 4.96 1.12 7.52 1.12 4.8 0 8.96-0.96 13.28-2.88 5.28-2.88 9.28-7.2 11.68-12.32l166.72-245.6c8.48-12.32 5.28-29.28-7.04-37.92-12.32-8.48-29.28-5.28-37.92 7.04L564.8 505.92l-80.32-150.4a27.36 27.36 0 0 0-29.44-13.92c-0.32 0-0.64 0.16-0.96 0.16-0.96 0.16-1.92 0.48-2.88 0.96-0.96 0.32-2.08 0.8-3.04 1.28-0.16 0.16-0.32 0.16-0.48 0.16-0.16 0.16-0.32 0.16-0.48 0.32-2.4 1.28-4.64 2.88-6.56 4.8L253.6 540c-10.4 10.4-10.4 27.84 0.48 38.4 5.28 5.28 11.84 7.52 18.88 7.52s14.24-2.4 20-8zM794.4 178.24H284.48c-17.6 0-32 14.4-32 32s14.4 32 32 32h509.76c17.6 0 31.52-14.4 32-32 0.16-17.76-14.24-32-31.84-32z" p-id="17176"></path><path d="M896 0H128C75.04 0 32 43.04 32 96v832c0 52.96 43.04 96 96 96h768c52.96 0 96-43.04 96-96V96c0-52.96-43.04-96-96-96z m32 928c0 17.6-14.4 32-32 32H128c-17.6 0-32-14.4-32-32V96c0-17.6 14.4-32 32-32h768c17.6 0 32 14.4 32 32v832z" p-id="17177"></path></svg>