<?xml version="1.0" standalone="no"?><!DOCTYPE svg PUBLIC "-//W3C//DTD SVG 1.1//EN" "http://www.w3.org/Graphics/SVG/1.1/DTD/svg11.dtd"><svg t="1700622523065" class="icon" viewBox="0 0 1571 1024" version="1.1" xmlns="http://www.w3.org/2000/svg" p-id="19493" xmlns:xlink="http://www.w3.org/1999/xlink" width="306.8359375" height="200"><path d="M157.040781 699.331419h21.174038c5.881677 0 9.998851 4.705342 9.998851 10.587019s-4.705342 10.587019-9.998851 10.587019h-21.174038v21.174038c0 5.881677-4.705342 9.998851-10.587019 9.998851s-10.587019-4.705342-10.587019-9.998851v-21.174038h-21.174038c-5.881677 0-9.998851-4.705342-9.998851-10.587019s4.705342-10.587019 9.998851-10.587019h21.174038v-21.174038c0-5.881677 4.705342-9.998851 10.587019-9.998851s10.587019 4.705342 10.587019 9.998851v21.174038z m1382.194141-83.519816v-21.174038c0-5.881677-4.705342-9.998851-9.998851-9.998852-5.881677 0-10.587019 4.705342-10.587019 9.998852v21.174038h-21.174038c-5.881677 0-10.587019 4.705342-9.998851 10.587018 0 5.881677 4.705342 10.587019 9.998851 10.587019h21.174038v21.174038c0 5.881677 4.705342 9.998851 10.587019 9.998852s10.587019-4.705342 10.587019-9.998852v-21.174038h21.174038c5.881677 0 9.998851-4.705342 9.998851-10.587019s-4.705342-10.587019-9.998851-10.587018h-21.762206z m-761.089029 344.666283H251.147616c-5.293509 0-10.587019-2.352671-14.704193-5.881677-4.117174-4.117174-5.881677-9.410684-5.881677-14.704193 0-11.763354 9.410684-20.58587 21.174038-20.58587h94.695003c-7.058013-12.93969-11.175187-27.055715-11.175187-41.759908v-605.812751c0-22.350373 8.822516-43.524411 24.703044-58.816772 15.880528-15.880528 37.054566-24.703044 59.40494-24.114877H482.29753v-21.174038c0-22.350373 8.822516-43.524411 24.703044-58.816772 15.880528-15.880528 37.054566-24.703044 59.40494-24.114876h502.295233c22.350373 0 43.524411 8.822516 59.404939 24.114876 15.880528 15.880528 24.703044 37.054566 24.703045 58.816772v605.812751c0 14.704193-4.117174 28.820218-11.175187 41.759909h115.869041c11.763354-0.588168 21.174038 8.234348 21.762205 19.997702 0.588168 11.763354-8.234348 21.174038-19.997702 21.762206h-252.91212v21.174038c0 14.704193-4.117174 28.820218-11.175186 41.759908h11.175186c11.763354 0 20.58587 9.410684 20.585871 20.58587s-9.410684 20.58587-20.585871 20.58587h-109.987363c9.998851 16.468696 7.058013 37.642734-6.469845 50.582424-16.468696 16.468696-42.936244 16.468696-59.40494 0l-52.346927-51.170592z m76.461804-41.759908h66.462952c22.938541 0 41.759908-18.821367 41.759908-41.759908V270.557151c0-22.350373-18.233199-40.583573-40.583573-40.583573H417.010913c-22.350373 0-40.583573 18.233199-40.583572 40.583573v606.400919c0 22.938541 18.821367 41.759908 41.759908 41.759908h317.610568l-10.587019-10.587019c-10.587019-10.587019-14.704193-25.87938-11.175186-40.583572l-19.997703-19.997703c-61.757611 45.877082-148.218265 36.466399-198.212521-21.762206-49.994256-57.640437-47.053418-144.689259 7.058012-198.800689 54.11143-54.11143 141.74842-57.640437 199.977025-7.058012 58.228604 49.994256 67.639288 137.043079 21.174038 198.212521l19.997702 19.997703c14.704193-4.117174 29.996554 0 40.583573 10.587019l69.991959 69.991958z m150.570936-104.693854h62.933946c22.938541 0 41.759908-18.821367 41.759908-41.759908V167.039632c0-22.938541-18.821367-41.759908-41.759908-41.759908H565.229179c-22.938541 0-41.759908 18.821367-41.759908 41.759908v20.585871h397.601378c22.350373 0 43.524411 8.822516 59.40494 24.114876 15.880528 15.880528 24.703044 37.054566 24.703044 58.816772v543.466973zM267.028145 47.053418h31.172889c8.822516 0 15.880528 7.058013 15.880528 15.880528 0 8.822516-7.058013 15.880528-15.880528 15.880528h-31.172889v31.17289c0 8.822516-7.058013 15.880528-15.880529 15.880528-4.117174 0-8.234348-1.764503-11.175186-4.705342-2.940839-3.529006-4.705342-7.64618-4.705342-11.763354v-31.172889h-31.172889c-4.117174 0-8.234348-1.764503-11.175187-4.705342s-4.705342-6.469845-4.705342-11.175187C188.21367 54.11143 195.271683 47.053418 204.094199 47.053418H235.267088V15.880528C235.267088 7.058013 242.325101 0 251.147616 0c8.822516 0 15.880528 7.058013 15.880529 15.880528V47.053418zM21.174038 939.303848c0-11.763354 9.410684-20.58587 20.58587-20.58587h125.867892c11.763354 0 20.58587 9.410684 20.58587 20.58587 0 11.763354-9.410684 20.58587-20.58587 20.585871H41.759908c-5.293509 0-10.587019-2.352671-14.704193-5.881678s-5.881677-8.822516-5.881677-14.704193z m659.924181-134.690407c26.467547-26.467547 37.054566-64.698449 27.055716-100.576681-9.998851-35.878231-38.230902-64.110281-74.109133-73.520964-35.878231-9.410684-74.6973 0.588168-101.164848 27.055715-40.583573 40.583573-41.17174 106.458357-0.588168 147.04193l0.588168 0.588167c41.17174 39.995405 107.634693 39.995405 148.218265-0.588167zM460.535325 312.905227c0-11.763354 9.410684-21.174038 21.174037-20.58587H711.682941c11.763354 0 21.174038 9.410684 21.174038 20.58587 0 11.763354-9.410684 21.174038-21.174038 20.58587H481.709362c-5.293509 0-10.587019-2.352671-14.704193-5.881677s-6.469845-8.822516-6.469844-14.704193z m0 104.693854c0-11.763354 9.410684-21.174038 20.58587-21.174038h335.2556c11.763354 0 20.58587 9.410684 20.58587 20.58587 0 11.763354-9.410684 20.58587-20.58587 20.58587h-335.2556c-5.293509 0-10.587019-2.352671-14.704193-5.881677-3.529006-3.529006-5.881677-8.822516-5.881677-14.116025z m0 104.105686c0-11.763354 9.410684-20.58587 21.174037-20.58587h146.453763c11.763354 0 20.58587 9.410684 20.58587 20.58587 0 11.763354-9.410684 20.58587-20.58587 20.585871H481.709362c-5.293509 0-10.587019-2.352671-14.704193-5.881678s-6.469845-8.822516-6.469844-14.704193zM62.933946 396.425043c-22.350373 0-42.936244-11.763354-54.11143-31.172889-11.175187-19.409535-11.175187-43.524411 0-62.345778 11.175187-19.409535 31.761057-31.172889 54.11143-31.172889 34.701895 0 62.933946 28.232051 62.933946 62.933946s-28.232051 61.757611-62.933946 61.75761z m0-31.172889c11.175187 0 21.762206-5.881677 27.055715-15.880528 5.881677-9.410684 5.881677-21.762206 0-31.17289-5.881677-9.410684-15.880528-15.880528-27.055715-15.880528-17.056864 0-31.172889 14.116025-31.172889 31.172889-0.588168 17.645032 13.527858 31.761057 31.172889 31.761057z m1298.086157-94.106835c-34.701895 0-62.933946-28.232051-62.933946-62.345779s28.232051-62.345778 62.933946-62.345778c34.701895 0 62.933946 28.232051 62.933946 62.345778s-28.232051 62.345778-62.933946 62.345779z m0-31.172889c11.175187 0 21.762206-5.881677 27.055715-15.880529 5.881677-9.410684 5.881677-21.762206 0-31.172889-5.881677-9.410684-15.880528-15.880528-27.055715-15.880528-17.056864 0-31.172889 14.116025-31.172889 31.172889 0 17.645032 14.116025 31.761057 31.172889 31.761057z" fill="#99A3B3" p-id="19494"></path></svg>