<?xml version="1.0" standalone="no"?><!DOCTYPE svg PUBLIC "-//W3C//DTD SVG 1.1//EN" "http://www.w3.org/Graphics/SVG/1.1/DTD/svg11.dtd"><svg t="1700639912460" class="icon" viewBox="0 0 1024 1024" version="1.1" xmlns="http://www.w3.org/2000/svg" p-id="27936" xmlns:xlink="http://www.w3.org/1999/xlink" width="200" height="200"><path d="M634.552 154.95v686.38h50.681v-0.972h116.922v-403.36l-116.922-41.166v-77.163l164.496 57.89a55.436 55.436 0 0 1 25.073 42.185l0.17 4.322-0.024 418.24h55.658v72.818H172.328v-72.818h55.341l0.025-556.934c0-19.126 9.855-36.895 26.07-47.065l295.883-129.446c36.966-23.083 84.905 3.47 84.905 47.04z m-72.817 27.137L300.512 296.363v543.972h261.246V536.418l-0.484 0.218v-33.69l0.484 1.14V363.939l-0.484 0.218v-33.594l0.484 1.117V182.087z m-49.37 295.98v78.765L349.931 623.92v-78.789l162.432-67.065z m0-172.214v79.104l-162.433 69.13v-79.129l162.432-69.104z" p-id="27937"></path></svg>