<?xml version="1.0" standalone="no"?><!DOCTYPE svg PUBLIC "-//W3C//DTD SVG 1.1//EN" "http://www.w3.org/Graphics/SVG/1.1/DTD/svg11.dtd"><svg t="1700639781973" class="icon" viewBox="0 0 1024 1024" version="1.1" xmlns="http://www.w3.org/2000/svg" p-id="23905" xmlns:xlink="http://www.w3.org/1999/xlink" width="200" height="200"><path d="M307.861121 391.944022l146.87497 254.366232A236.302239 236.302239 0 0 0 777.183624 925.566989v23.787759a61.727396 61.727396 0 0 1-62.094977 61.386071H149.381086a61.753652 61.753652 0 0 1-61.018489-62.462559v-61.727396l0.131279-4.227184a61.727396 61.727396 0 0 1 61.596117-57.500212h157.771128l-250.19156-417.729847a242.971213 242.971213 0 0 0 77.979739 46.604053l3.176953 0.866441c36.758126 9.530857 102.056312 7.535416 169.034868-62.620093zM758.725794 10.604719a31.769523 31.769523 0 0 1 41.221612-5.303672l180.482399 122.036979c13.70553 9.793415 16.908738 28.802617 7.220347 42.586914l-2.100465 2.651836a31.769523 31.769523 0 0 1-41.221613 5.644998L794.512455 77.504509l-95.676151 111.928494v85.908992l101.084847 116.602027 147.295062-100.349684a31.401942 31.401942 0 0 1 43.322077 8.296834h2.179232a30.693035 30.693035 0 0 1-8.664416 42.245589l-180.508654 121.301816a31.401942 31.401942 0 0 1-43.322078-7.955509l-1.837906-3.045673a29.616547 29.616547 0 0 1-3.229464-17.171296l-72.203462-83.388435c-7.167835 5.750021-16.068552 8.926973-25.258084 9.031997h-58.865513l-0.735163-0.026256a41.510427 41.510427 0 0 1-40.040101-42.92824l-0.026256 0.341326v10.108484h-203.219926c10.738624-23.787759 16.016041-49.702238 15.490925-75.800507l0.052512-8.874462a174.364797 174.364797 0 0 0-15.543437-68.39637h203.219926v10.476066c0-22.921317 18.615365-41.510427 41.536683-41.510427h55.951119l96.411313-110.484425a29.616547 29.616547 0 0 1 4.673533-20.558294zM174.166565 113.448705l7.089068 0.183791a139.36581 139.36581 0 0 1-14.178135 278.337782l-5.776277-0.078768A140.074716 140.074716 0 0 1 26.267619 252.604468l0.157535-5.776277a140.074716 140.074716 0 0 1 140.652344-133.221951l7.089067-0.183791z m-7.089067 46.394006l-5.119882 0.105024a93.496919 93.496919 0 0 0-88.744618 92.682989l0.131279 5.041114a92.788013 92.788013 0 1 0 93.733221-97.829127zM167.786405 206.394252a46.945378 46.945378 0 1 1-47.654285 46.210216l0.183791-3.833347a46.577797 46.577797 0 0 1 46.735331-42.376869z" p-id="23906"></path><path d="M846.10511 714.995439c0.81393-6.301393 1.417813-12.707809 1.417814-19.192993a150.445759 150.445759 0 0 0-1.417814-19.192993l42.796961-32.583454a9.63588 9.63588 0 0 0 2.44179-12.602786l-40.460194-68.265091c-2.546813-4.200929-7.797974-5.986323-12.340228-4.200929l-50.411145 19.770621a154.646688 154.646688 0 0 0-34.211313-19.376784l-7.587927-52.196539A10.344787 10.344787 0 0 0 736.224569 498.883913h-80.9729a10.13474 10.13474 0 0 0-10.003462 8.270578l-7.614183 52.196539c-12.340228 4.988603-23.761503 11.500042-34.185057 19.376784l-50.411145-19.770621a10.239764 10.239764 0 0 0-12.340228 4.200929l-40.460194 68.265091a9.688392 9.688392 0 0 0 2.415534 12.602786l42.718193 32.557198a150.445759 150.445759 0 0 0-1.417813 19.219249c0 6.485184 0.603884 12.8916 1.417813 19.192993l-42.718193 32.583453a9.63588 9.63588 0 0 0-2.415534 12.602786l40.460194 68.265091c2.546813 4.200929 7.797974 5.986323 12.340228 4.200929l50.411145-19.770621a154.646688 154.646688 0 0 0 34.211313 19.376784l7.587927 52.196539c0.787674 4.621022 4.962347 8.270578 10.003462 8.270578h80.9729c5.041114 0 9.189532-3.649557 10.003462-8.270578l7.614183-52.196539c12.340228-4.988603 23.761503-11.500042 34.185057-19.376784l50.411145 19.770621a10.239764 10.239764 0 0 0 12.340228-4.200929l40.460194-68.265091a9.688392 9.688392 0 0 0-2.415534-12.602786l-42.718194-32.557198z m-150.366991 49.728493c-39.17366 0-70.83816-30.824314-70.83816-68.921486s31.6645-68.921486 70.83816-68.921487 70.83816 30.824314 70.83816 68.921487-31.6645 68.921486-70.83816 68.921486z" p-id="23907"></path></svg>