<?xml version="1.0" standalone="no"?><!DOCTYPE svg PUBLIC "-//W3C//DTD SVG 1.1//EN" "http://www.w3.org/Graphics/SVG/1.1/DTD/svg11.dtd"><svg t="1752721483845" class="icon" viewBox="0 0 1024 1024" version="1.1" xmlns="http://www.w3.org/2000/svg" p-id="53120" xmlns:xlink="http://www.w3.org/1999/xlink" width="200" height="200"><path d="M475.79 822.81c-16.57 0-30 13.43-30 30s13.43 30 30 30h388.97c16.57 0 30-13.43 30-30V327.92c0-7.61-2.89-14.93-8.09-20.49L740.14 150.7a29.986 29.986 0 0 0-21.91-9.51H475.79c-16.57 0-30 13.43-30 30s13.43 30 30 30H705.2l129.55 138.57v117.9c-3.09-1.07-6.4-1.66-9.85-1.66h-93.14c-16.57 0-30 13.43-30 30s13.43 30 30 30h93.14c3.45 0 6.77-0.59 9.85-1.66v60.06c-3.09-1.07-6.4-1.66-9.85-1.66h-93.14c-16.57 0-30 13.43-30 30s13.43 30 30 30h93.14c3.45 0 6.77-0.59 9.85-1.66v60.06c-3.09-1.07-6.4-1.66-9.85-1.66h-93.14c-16.57 0-30 13.43-30 30s13.43 30 30 30h93.14c3.45 0 6.77-0.59 9.85-1.66v75.01H475.79zM192.73 879.24h176.83c16.57 0 30-13.43 30-30V256.61c0-8.14-3.3-15.92-9.15-21.57L302 149.62c-11.63-11.23-30.06-11.23-41.69 0l-88.41 85.42a29.992 29.992 0 0 0-9.15 21.57v592.63c-0.02 16.57 13.41 30 29.98 30z m30-60v-72.68h116.3c0.18 0 0.35-0.01 0.52-0.01v72.69H222.73z m58.41-606.34l58.41 56.44v417.23c-0.17 0-0.35-0.01-0.52-0.01h-116.3V269.34l58.41-56.44z" fill="#231815" p-id="53121"></path></svg>