<svg width="20" height="20" viewBox="0 0 20 20" fill="none" xmlns="http://www.w3.org/2000/svg">
<path d="M4.84404 12.0691L3.88292 7.08011H3.84448L2.88336 12.0691H4.84404ZM0 16.884L3.05636 3.11602H4.69026L7.74663 16.884H5.78594L5.20927 13.9254H2.53736L1.96068 16.884H0Z" fill="#0679DC"/>
<path d="M7.75098 16.884V3.11602H10.692C11.2302 3.11602 11.7044 3.18693 12.1145 3.32873C12.5245 3.47053 12.8962 3.72192 13.2294 4.08287C13.5626 4.44383 13.7932 4.86925 13.9214 5.35912C14.0495 5.8361 14.1136 6.48711 14.1136 7.31215C14.1136 7.93094 14.0751 8.45304 13.9983 8.87845C13.9342 9.30387 13.7868 9.7035 13.5561 10.0773C13.287 10.5285 12.9282 10.8831 12.4797 11.1409C12.0312 11.3858 11.4417 11.5083 10.7112 11.5083H9.71166V16.884H7.75098ZM9.71166 4.97238V9.65193H10.6536C11.0508 9.65193 11.3584 9.59392 11.5762 9.4779C11.7941 9.36188 11.9543 9.20074 12.0568 8.99448C12.1593 8.80111 12.217 8.56262 12.2298 8.27901C12.2554 7.9954 12.2682 7.67956 12.2682 7.33149C12.2682 7.00921 12.2618 6.70626 12.249 6.42265C12.2362 6.12615 12.1785 5.86832 12.076 5.64917C11.9735 5.43002 11.8197 5.26243 11.6147 5.14641C11.4096 5.03039 11.1149 4.97238 10.7305 4.97238H9.71166Z" fill="#0679DC"/>
<path d="M20 7.08011H18.0393V6.63536C18.0393 6.18416 17.9304 5.79742 17.7125 5.47514C17.5075 5.13996 17.1551 4.97238 16.6553 4.97238C16.3862 4.97238 16.1683 5.02394 16.0017 5.12707C15.8351 5.2302 15.7006 5.35912 15.5981 5.51381C15.4956 5.6814 15.4251 5.87477 15.3866 6.09392C15.3482 6.30018 15.329 6.51934 15.329 6.75138C15.329 7.0221 15.3354 7.2477 15.3482 7.42818C15.3738 7.60866 15.4251 7.7698 15.502 7.9116C15.5788 8.05341 15.6878 8.17588 15.8287 8.27901C15.9825 8.38214 16.1876 8.48527 16.4439 8.5884L17.9432 9.18785C18.3789 9.35543 18.7313 9.55525 19.0004 9.78729C19.2695 10.0064 19.481 10.2643 19.6348 10.5608C19.7757 10.8702 19.8719 11.2247 19.9231 11.6243C19.9744 12.0111 20 12.4558 20 12.9586C20 13.5387 19.9423 14.0801 19.827 14.5829C19.7117 15.0727 19.5258 15.4917 19.2695 15.8398C19.0004 16.2007 18.648 16.4843 18.2123 16.6906C17.7766 16.8969 17.2448 17 16.6169 17C16.1427 17 15.7006 16.9162 15.2905 16.7486C14.8804 16.581 14.528 16.349 14.2333 16.0525C13.9385 15.756 13.7015 15.4144 13.5221 15.0276C13.3555 14.628 13.2722 14.1961 13.2722 13.732V12.9972H15.2328V13.616C15.2328 13.977 15.3354 14.3057 15.5404 14.6022C15.7583 14.8858 16.1171 15.0276 16.6169 15.0276C16.95 15.0276 17.2063 14.9825 17.3858 14.8923C17.578 14.7891 17.7254 14.6473 17.8279 14.4669C17.9304 14.2864 17.9881 14.0737 18.0009 13.8287C18.0265 13.5709 18.0393 13.2873 18.0393 12.9779C18.0393 12.6169 18.0265 12.3204 18.0009 12.0884C17.9752 11.8564 17.924 11.6694 17.8471 11.5276C17.7574 11.3858 17.6356 11.2698 17.4819 11.1796C17.3409 11.0893 17.1487 10.9926 16.9052 10.8895L15.502 10.3094C14.6562 9.96133 14.0859 9.50368 13.7912 8.93646C13.5092 8.35635 13.3683 7.63444 13.3683 6.77072C13.3683 6.25506 13.4388 5.76519 13.5797 5.30111C13.7207 4.83702 13.9321 4.43739 14.2141 4.10221C14.4832 3.76704 14.8228 3.50276 15.2328 3.30939C15.6557 3.10313 16.1555 3 16.7322 3C17.2192 3 17.6613 3.09024 18.0585 3.27072C18.4686 3.4512 18.821 3.68969 19.1158 3.98619C19.7053 4.60497 20 5.314 20 6.11326V7.08011Z" fill="#0679DC"/>
</svg>
