<svg width="20" height="20" viewBox="0 0 20 20" fill="none" xmlns="http://www.w3.org/2000/svg">
<path d="M8.54183 18.7497C9.34724 18.7497 10.0002 18.0968 10.0002 17.2913C10.0002 16.4859 9.34724 15.833 8.54183 15.833C7.73641 15.833 7.0835 16.4859 7.0835 17.2913C7.0835 18.0968 7.73641 18.7497 8.54183 18.7497Z" fill="#0679DC"/>
<path d="M15.6248 18.7497C16.4303 18.7497 17.0832 18.0968 17.0832 17.2913C17.0832 16.4859 16.4303 15.833 15.6248 15.833C14.8194 15.833 14.1665 16.4859 14.1665 17.2913C14.1665 18.0968 14.8194 18.7497 15.6248 18.7497Z" fill="#0679DC"/>
<path d="M2.0835 2.5L5.8335 5L7.91683 14.1667H16.2502L18.3335 7.08333H10.4168" stroke="#0679DC" stroke-width="1.66667" stroke-linecap="round" stroke-linejoin="round"/>
<path d="M10.4165 10.833H13.4468H17.0832" stroke="#0679DC" stroke-width="1.66667" stroke-linecap="round" stroke-linejoin="round"/>
</svg>
