<svg width="20" height="20" viewBox="0 0 20 20" fill="none" xmlns="http://www.w3.org/2000/svg">
<path d="M5.83317 6.24967C8.13436 6.24967 9.99984 5.31693 9.99984 4.16634C9.99984 3.01575 8.13436 2.08301 5.83317 2.08301C3.53198 2.08301 1.6665 3.01575 1.6665 4.16634C1.6665 5.31693 3.53198 6.24967 5.83317 6.24967Z" stroke="#0679DC" stroke-width="1.66667" stroke-linecap="round" stroke-linejoin="round"/>
<path d="M1.6665 4.16699C1.6665 4.16699 1.6665 5.93308 1.6665 7.08366C1.6665 8.23424 3.53198 9.16699 5.83317 9.16699C8.13434 9.16699 9.99984 8.23424 9.99984 7.08366C9.99984 6.40216 9.99984 4.16699 9.99984 4.16699" stroke="#0679DC" stroke-width="1.66667" stroke-linecap="round" stroke-linejoin="round"/>
<path d="M1.6665 7.08301C1.6665 7.08301 1.6665 8.84909 1.6665 9.99967C1.6665 11.1503 3.53198 12.083 5.83317 12.083C8.13434 12.083 9.99984 11.1503 9.99984 9.99967C9.99984 9.31817 9.99984 7.08301 9.99984 7.08301" stroke="#0679DC" stroke-width="1.66667" stroke-linecap="round" stroke-linejoin="round"/>
<path d="M1.6665 10C1.6665 10 1.6665 11.7661 1.6665 12.9167C1.6665 14.0672 3.53198 15 5.83317 15C8.13434 15 9.99984 14.0672 9.99984 12.9167C9.99984 12.2352 9.99984 10 9.99984 10" stroke="#0679DC" stroke-width="1.66667" stroke-linecap="round" stroke-linejoin="round"/>
<path d="M1.6665 12.917C1.6665 12.917 1.6665 14.6831 1.6665 15.8337C1.6665 16.9842 3.53198 17.917 5.83317 17.917C8.13434 17.917 9.99984 16.9842 9.99984 15.8337C9.99984 15.1522 9.99984 12.917 9.99984 12.917" stroke="#0679DC" stroke-width="1.66667" stroke-linecap="round" stroke-linejoin="round"/>
<path d="M14.1667 12.0837C16.4679 12.0837 18.3333 11.1509 18.3333 10.0003C18.3333 8.84973 16.4679 7.91699 14.1667 7.91699C11.8655 7.91699 10 8.84973 10 10.0003C10 11.1509 11.8655 12.0837 14.1667 12.0837Z" stroke="#0679DC" stroke-width="1.66667" stroke-linecap="round" stroke-linejoin="round"/>
<path d="M10 10C10 10 10 11.7661 10 12.9167C10 14.0672 11.8655 15 14.1667 15C16.4678 15 18.3333 14.0672 18.3333 12.9167C18.3333 12.2352 18.3333 10 18.3333 10" stroke="#0679DC" stroke-width="1.66667" stroke-linecap="round" stroke-linejoin="round"/>
<path d="M10 12.917C10 12.917 10 14.6831 10 15.8337C10 16.9842 11.8655 17.917 14.1667 17.917C16.4678 17.917 18.3333 16.9842 18.3333 15.8337C18.3333 15.1522 18.3333 12.917 18.3333 12.917" stroke="#0679DC" stroke-width="1.66667" stroke-linecap="round" stroke-linejoin="round"/>
</svg>
