<?xml version="1.0" standalone="no"?><!DOCTYPE svg PUBLIC "-//W3C//DTD SVG 1.1//EN" "http://www.w3.org/Graphics/SVG/1.1/DTD/svg11.dtd"><svg t="1715762146942" class="icon" viewBox="0 0 1024 1024" version="1.1" xmlns="http://www.w3.org/2000/svg" p-id="4290" xmlns:xlink="http://www.w3.org/1999/xlink" width="200" height="200"><path d="M622.9 852.4l-16.1-4.4c-31.3-8.5-60.1-25.2-83.3-48.1l-11.9-11.7 9.5-13.7c2.8-4.1 4.6-8.7 5.2-13.5 0.8-6.4-0.5-12.7-3.8-18.3-3.2-5.6-8.1-9.9-14-12.4-4.4-1.9-9.4-2.7-14.3-2.3l-16.6 1.4-4.2-16.1c-4.1-15.6-6.2-31.7-6.2-48.1s2.1-32.5 6.2-48.1l4.2-16.1 16.6 1.4c4.9 0.4 9.8-0.4 14.3-2.3 5.9-2.5 10.7-6.8 13.9-12.4 3.2-5.6 4.5-11.9 3.8-18.3-0.6-4.8-2.3-9.5-5.1-13.5l-9.6-13.7 11.9-11.8c23.2-22.9 52-39.6 83.3-48.1l16.1-4.4 7.1 15.1c2.1 4.4 5.2 8.3 9.1 11.2 5.1 3.8 11.2 5.9 17.7 5.9s12.6-2 17.7-5.9c3.9-2.9 7.1-6.8 9.1-11.2l7.1-15.1 16.1 4.4c31.3 8.5 60.1 25.2 83.3 48.1l11.9 11.7-9.5 13.7c-2.8 4.1-4.6 8.7-5.2 13.5-0.8 6.4 0.5 12.7 3.8 18.3 3.2 5.6 8.1 9.9 14 12.4 4.4 1.9 9.4 2.7 14.3 2.3l16.7-1.4 4.2 16.2c4.1 15.7 6.2 31.9 6.2 48 0 16.4-2.1 32.5-6.2 48.1l-4.2 16.1-16.6-1.4c-4.9-0.4-9.9 0.4-14.3 2.3-5.9 2.5-10.7 6.8-13.9 12.4-3.2 5.6-4.5 11.9-3.8 18.3 0.6 4.8 2.3 9.5 5.1 13.5l9.6 13.7-11.9 11.8c-23.2 22.9-52 39.6-83.3 48.1l-16.1 4.4-7.1-15.1c-2.1-4.4-5.2-8.3-9.1-11.2-5.1-3.8-11.2-5.9-17.7-5.9s-12.6 2-17.7 5.9c-3.9 2.9-7.1 6.8-9.1 11.2l-7.2 15.1z m33.9-71.9c15.1 0 29.5 4.8 41.6 13.8 4.3 3.2 8.2 6.9 11.6 11 15-5.7 29.1-13.9 41.6-24.1-1.8-5-3.1-10.2-3.7-15.6-1.8-14.9 1.3-29.7 8.8-42.8 7.5-13.1 18.9-23.2 32.7-29.1 4.9-2.1 10.1-3.6 15.3-4.5 1.3-7.9 1.9-15.9 1.9-24 0-8-0.6-16.1-1.9-24-5.2-0.9-10.4-2.4-15.3-4.5-13.9-6-25.3-16.1-32.8-29.1-7.5-13-10.6-27.9-8.8-42.8 0.6-5.3 1.9-10.5 3.7-15.5-12.5-10.2-26.6-18.4-41.6-24.1-3.4 4.1-7.3 7.8-11.6 11-12.1 9-26.4 13.8-41.6 13.8s-29.5-4.8-41.6-13.8c-4.3-3.2-8.2-6.9-11.6-11-15 5.7-29.1 13.9-41.6 24.1 1.8 5 3.1 10.3 3.7 15.6 1.8 14.9-1.3 29.7-8.8 42.8-7.5 13.1-18.9 23.2-32.7 29.1-4.9 2.1-10.1 3.6-15.3 4.5-1.3 7.9-1.9 15.9-1.9 24s0.6 16.2 1.9 24c5.2 0.9 10.4 2.4 15.3 4.5 13.9 6 25.2 16.1 32.8 29.1 7.5 13 10.6 27.9 8.8 42.8-0.6 5.3-1.9 10.5-3.7 15.5 12.5 10.2 26.6 18.4 41.6 24.1 3.4-4.1 7.3-7.8 11.6-11 12.1-9.1 26.5-13.8 41.6-13.8z" p-id="4291" fill="#0679DC"></path><path d="M651.6 746.3c-44.8 0-81.2-36.4-81.2-81.2 0-44.8 36.4-81.2 81.2-81.2 11 0 19.9 8.9 19.9 19.9s-8.9 19.9-19.9 19.9c-22.9 0-41.4 18.6-41.4 41.4s18.6 41.4 41.4 41.4c22.9 0 41.4-18.6 41.4-41.4 0-11 8.9-19.9 19.9-19.9s19.9 8.9 19.9 19.9c0.1 44.7-36.4 81.2-81.2 81.2zM210.6 209.8h232M442.6 229.7h-232c-11 0-19.9-8.9-19.9-19.9 0-11 8.9-19.9 19.9-19.9h232c11 0 19.9 8.9 19.9 19.9 0 11-8.9 19.9-19.9 19.9zM431.6 391.7H221.7c-14 0-25.4-11.4-25.4-25.4v-87.8c0-14 11.4-25.4 25.4-25.4h209.9c14 0 25.4 11.4 25.4 25.4v87.8c0 14.1-11.4 25.4-25.4 25.4zM236 352h181.2v-59.1H236V352z" p-id="4292" fill="#0679DC"></path><path d="M326.5 534.6c-5.2 0-10.3-1.8-14.6-5.3l-33.2-27.9c-5.1-4.3-8.1-10.6-8.1-17.3V352.9h112v131.2c0 6.7-3 13.1-8.2 17.4L341 529.3c-4.2 3.5-9.4 5.3-14.5 5.3z m-16.1-58.5l16.1 13.5 16.3-13.6v-83.4h-32.5v83.5z m38.6-5.2z" p-id="4293" fill="#0679DC"></path><path d="M833.1 414.9c-11 0-19.9-8.9-19.9-19.9V251.2c0-11-8.9-19.9-19.9-19.9h-230c-11 0-19.9-8.9-19.9-19.9 0-11 8.9-19.9 19.9-19.9h230c32.9 0 59.7 26.8 59.7 59.7V395c0 11-8.9 19.9-19.9 19.9z" p-id="4294" fill="#0679DC"></path><path d="M392.3 854H248.4c-32.9 0-59.7-26.8-59.7-59.7V567.6c0-11 8.9-19.9 19.9-19.9 11 0 19.9 8.9 19.9 19.9v226.7c0 11 8.9 19.9 19.9 19.9h143.9c11 0 19.9 8.9 19.9 19.9s-8.9 19.9-19.9 19.9z" p-id="4295" fill="#0679DC"></path></svg>