<?xml version="1.0" standalone="no"?><!DOCTYPE svg PUBLIC "-//W3C//DTD SVG 1.1//EN" "http://www.w3.org/Graphics/SVG/1.1/DTD/svg11.dtd"><svg t="1718176710647" class="icon" viewBox="0 0 1024 1024" version="1.1" xmlns="http://www.w3.org/2000/svg" p-id="17226" xmlns:xlink="http://www.w3.org/1999/xlink" width="32" height="32"><path d="M870.4 256h-256V102.4a102.4 102.4 0 0 0-102.4-102.4H153.6a102.4 102.4 0 0 0-102.4 102.4v819.2a102.4 102.4 0 0 0 102.4 102.4h716.8a102.4 102.4 0 0 0 102.4-102.4V358.4a102.4 102.4 0 0 0-102.4-102.4z m-232.96 418.816a34.304 34.304 0 1 1-35.84 34.304 35.84 35.84 0 0 1 35.84-34.304zM396.8 204.8h76.8a38.4 38.4 0 0 1 0 76.8h-76.8a38.4 38.4 0 0 1 0-76.8z m-128 691.2h-76.8a38.4 38.4 0 0 1 0-76.8h76.8a38.4 38.4 0 0 1 0 76.8z m0-153.6h-76.8a38.4 38.4 0 0 1 0-76.8h76.8a38.4 38.4 0 0 1 0 76.8z m0-153.6h-76.8a38.4 38.4 0 0 1 0-76.8h76.8a38.4 38.4 0 0 1 0 76.8z m0-153.6h-76.8a38.4 38.4 0 0 1 0-76.8h76.8a38.4 38.4 0 0 1 0 76.8z m0-153.6h-76.8a38.4 38.4 0 0 1 0-76.8h76.8a38.4 38.4 0 0 1 0 76.8zM358.4 396.8A38.912 38.912 0 0 1 396.8 358.4h76.8a38.4 38.4 0 0 1 0 76.8h-76.8A38.912 38.912 0 0 1 358.4 396.8z m102.4 195.072A82.432 82.432 0 0 1 545.792 512c46.592 0 60.928 41.984 55.808 94.72a116.224 116.224 0 0 0 7.168 47.616 60.416 60.416 0 0 0-33.792 46.592A114.688 114.688 0 0 1 460.8 591.872z m160.256 320a84.48 84.48 0 0 1-112.128-34.304c-20.992-39.936 10.752-71.68 61.952-92.16a141.824 141.824 0 0 0 34.816-23.04 71.168 71.168 0 0 0 31.744 8.192 87.04 87.04 0 0 0 30.72-7.168 109.568 109.568 0 0 1-47.104 148.48z m236.544-179.2c-24.064 37.888-68.608 28.672-113.152-3.072a115.712 115.712 0 0 0-43.008-18.432 59.904 59.904 0 0 0-27.136-51.2 118.784 118.784 0 0 1 153.6-38.912 77.824 77.824 0 0 1 29.696 111.616z" fill="#0679DC" p-id="17227"></path></svg>