<svg width="20" height="20" viewBox="0 0 20 20" fill="none" xmlns="http://www.w3.org/2000/svg">
<g clip-path="url(#clip0_131_312)">
<path d="M18.3332 4.58301C18.3332 4.58301 18.3332 15.0256 18.3332 15.833C18.3332 17.2137 14.6022 18.333 9.99984 18.333C5.39746 18.333 1.66652 17.2137 1.66652 15.833C1.66652 15.059 1.6665 4.58301 1.6665 4.58301" stroke="#0679DC" stroke-width="1.66667" stroke-linecap="round" stroke-linejoin="round"/>
<path d="M18.3332 12.083C18.3332 13.4637 14.6022 14.583 9.99984 14.583C5.39746 14.583 1.6665 13.4637 1.6665 12.083" stroke="#0679DC" stroke-width="1.66667" stroke-linecap="round" stroke-linejoin="round"/>
<path d="M18.3332 8.33301C18.3332 9.71372 14.6022 10.833 9.99984 10.833C5.39746 10.833 1.6665 9.71372 1.6665 8.33301" stroke="#0679DC" stroke-width="1.66667" stroke-linecap="round" stroke-linejoin="round"/>
<path d="M9.99984 6.66699C14.6022 6.66699 18.3332 5.5477 18.3332 4.16699C18.3332 2.78628 14.6022 1.66699 9.99984 1.66699C5.39746 1.66699 1.6665 2.78628 1.6665 4.16699C1.6665 5.5477 5.39746 6.66699 9.99984 6.66699Z" stroke="#0679DC" stroke-width="1.66667" stroke-linecap="round" stroke-linejoin="round"/>
</g>
<defs>
<clipPath id="clip0_131_312">
<rect width="20" height="20" fill="white"/>
</clipPath>
</defs>
</svg>
