<svg width="22" height="22" viewBox="0 0 22 22" fill="none" xmlns="http://www.w3.org/2000/svg">
<g clip-path="url(#clip0_107_439)">
<path fill-rule="evenodd" clip-rule="evenodd" d="M0 19V4H2.08712L4.87705 11.9424H4.91964L7.68827 4H9.62629H9.79669H10.9892C13.5449 4 14.8227 5.4677 14.8227 8.40309C14.8227 9.28792 14.6808 10.0393 14.3968 10.6573C14.127 11.2753 13.6443 11.7739 12.9486 12.1531L14.9508 18.0048V4H18.2092C18.8055 4 19.3309 4.07725 19.7852 4.23174C20.2396 4.38624 20.6513 4.66011 21.0205 5.05337C21.3896 5.44663 21.6452 5.91011 21.7871 6.44382C21.9291 6.96348 22.0001 7.67275 22.0001 8.57163C22.0001 9.24579 21.9575 9.81461 21.8723 10.2781C21.8013 10.7416 21.6381 11.177 21.3825 11.5843C21.0843 12.0758 20.6868 12.4621 20.1899 12.743C19.6929 13.0098 19.0398 13.1433 18.2305 13.1433H17.1231V19H15.2913H14.9508H12.9912L10.968 12.5955H9.79669V19H9.66883H9.62629H7.62438V9.87781H7.58179L5.43077 16.3244H4.34462L2.2149 9.87781H2.17231V19H0ZM9.79669 10.6994H10.9041C11.2874 10.6994 11.5927 10.6503 11.8198 10.552C12.047 10.4396 12.2245 10.2851 12.3523 10.0885C12.4659 9.89185 12.5439 9.65309 12.5865 9.37219C12.6291 9.07725 12.6504 8.74017 12.6504 8.36096C12.6504 7.98174 12.6291 7.65169 12.5865 7.37079C12.5439 7.07584 12.4588 6.82303 12.331 6.61236C12.0612 6.2191 11.5501 6.02247 10.7976 6.02247H9.79669V10.6994ZM17.1231 6.02247V11.1208H18.1666C18.6068 11.1208 18.9475 11.0576 19.1889 10.9312C19.4303 10.8048 19.6077 10.6292 19.7213 10.4045C19.8349 10.1938 19.8988 9.93399 19.913 9.625C19.9414 9.31601 19.9556 8.97191 19.9556 8.5927C19.9556 8.24157 19.9485 7.91152 19.9343 7.60253C19.9201 7.27949 19.8562 6.9986 19.7426 6.75983C19.629 6.52107 19.4587 6.33848 19.2315 6.21208C19.0043 6.08567 18.6778 6.02247 18.2518 6.02247H17.1231Z" fill="#0679DC"/>
</g>
<defs>
<clipPath id="clip0_107_439">
<rect width="22" height="22" fill="white"/>
</clipPath>
</defs>
</svg>
