<svg width="20" height="20" viewBox="0 0 20 20" fill="none" xmlns="http://www.w3.org/2000/svg">
<g clip-path="url(#clip0_131_346)">
<mask id="mask0_131_346" style="mask-type:luminance" maskUnits="userSpaceOnUse" x="0" y="0" width="20" height="20">
<path d="M20 0H0V20H20V0Z" fill="white"/>
</mask>
<g mask="url(#mask0_131_346)">
<path d="M5.4165 5.00065C5.4165 5.92111 6.16271 6.66732 7.08317 6.66732C8.00363 6.66732 8.74984 5.92111 8.74984 5.00065C8.74984 4.08018 8.00363 3.33398 7.08317 3.33398C6.16271 3.33398 5.4165 4.08018 5.4165 5.00065Z" stroke="#0679DC" stroke-width="1.66667" stroke-linejoin="round"/>
<path d="M12.9165 10.0007C12.9165 10.9211 13.6627 11.6673 14.5832 11.6673C15.5036 11.6673 16.2498 10.9211 16.2498 10.0007C16.2498 9.08019 15.5036 8.33398 14.5832 8.33398C13.6627 8.33398 12.9165 9.08019 12.9165 10.0007Z" stroke="#0679DC" stroke-width="1.66667" stroke-linejoin="round"/>
<path d="M5.4165 15.0007C5.4165 15.9211 6.16271 16.6673 7.08317 16.6673C8.00363 16.6673 8.74984 15.9211 8.74984 15.0007C8.74984 14.0802 8.00363 13.334 7.08317 13.334C6.16271 13.334 5.4165 14.0802 5.4165 15.0007Z" stroke="#0679DC" stroke-width="1.66667" stroke-linejoin="round"/>
<path d="M1.6665 15H5.4165" stroke="#0679DC" stroke-width="1.66667" stroke-linecap="round"/>
<path d="M8.75 15H18.3333" stroke="#0679DC" stroke-width="1.66667" stroke-linecap="round"/>
<path d="M1.6665 5H5.4165" stroke="#0679DC" stroke-width="1.66667" stroke-linecap="round"/>
<path d="M8.75 5H18.3333" stroke="#0679DC" stroke-width="1.66667" stroke-linecap="round"/>
<path d="M1.6665 1.66699V18.3337" stroke="#0679DC" stroke-width="1.66667" stroke-linecap="round" stroke-linejoin="round"/>
<path d="M1.6665 10H12.9165" stroke="#0679DC" stroke-width="1.66667" stroke-linecap="round"/>
<path d="M16.25 10H18.3333" stroke="#0679DC" stroke-width="1.66667" stroke-linecap="round"/>
</g>
</g>
<defs>
<clipPath id="clip0_131_346">
<rect width="20" height="20" fill="white"/>
</clipPath>
</defs>
</svg>
