<?xml version="1.0" standalone="no"?><!DOCTYPE svg PUBLIC "-//W3C//DTD SVG 1.1//EN" "http://www.w3.org/Graphics/SVG/1.1/DTD/svg11.dtd"><svg t="1718176963734" class="icon" viewBox="0 0 1024 1024" version="1.1" xmlns="http://www.w3.org/2000/svg" p-id="25857" xmlns:xlink="http://www.w3.org/1999/xlink" width="32" height="32"><path d="M102.4 268.8h384c19.2 0 32-19.2 32-32 0-19.2-19.2-32-32-32h-384c-19.2 0-32 19.2-32 32s12.8 32 32 32z" p-id="25858" fill="#0679DC"></path><path d="M1004.8 524.8s0-6.4 0 0l-217.6-307.2c-6.4-6.4-19.2-6.4-25.6-6.4h-108.8V102.4c0-19.2-19.2-32-32-32H185.6c-19.2 0-32 19.2-32 32s12.8 32 32 32h403.2v428.8c0 19.2 19.2 32 32 32h320V768H896c-12.8-64-70.4-108.8-140.8-108.8s-128 44.8-140.8 108.8H403.2c-12.8-64-70.4-108.8-140.8-108.8S140.8 704 128 768H51.2c-19.2 0-32 19.2-32 32 0 19.2 19.2 32 32 32H128c12.8 64 70.4 108.8 140.8 108.8S390.4 896 403.2 832h211.2c12.8 64 70.4 108.8 140.8 108.8S876.8 896 896 832h76.8c19.2 0 32-19.2 32-32V531.2v-6.4z m-76.8 0h-275.2v-256h89.6l185.6 256z m-172.8 352c-44.8 0-76.8-32-76.8-76.8s32-76.8 76.8-76.8 76.8 32 76.8 76.8-32 76.8-76.8 76.8z m-486.4 0c-44.8 0-76.8-32-76.8-76.8s32-76.8 76.8-76.8 76.8 32 76.8 76.8-38.4 76.8-76.8 76.8z" p-id="25859" fill="#0679DC"></path><path d="M51.2 435.2h384c19.2 0 32-19.2 32-32 0-19.2-19.2-32-32-32H57.6c-6.4 0-12.8 0-19.2 6.4-19.2 0-19.2 12.8-19.2 19.2 0 19.2 12.8 38.4 32 38.4zM51.2 595.2h384c12.8 0 25.6-19.2 25.6-32 0-19.2-19.2-32-32-32H51.2c-6.4 0-12.8 0-19.2 6.4-12.8 6.4-12.8 12.8-12.8 19.2 0 19.2 12.8 38.4 32 38.4z" p-id="25860" fill="#0679DC"></path></svg>