<svg width="20" height="20" viewBox="0 0 20 20" fill="none" xmlns="http://www.w3.org/2000/svg">
<g clip-path="url(#clip0_107_442)">
<path d="M8.09212 13.5017L10.7857 14.3995C10.7857 14.3995 17.5197 13.0527 18.4176 13.0527C19.3155 13.0527 19.3155 13.9506 18.4176 14.8485C17.5197 15.7463 14.3772 18.4399 11.6836 18.4399C8.98999 18.4399 7.19425 17.0931 5.39852 17.0931C3.60278 17.0931 0.90918 17.0931 0.90918 17.0931" stroke="#0679DC" stroke-width="2" stroke-linecap="round" stroke-linejoin="round"/>
<path d="M0.90918 11.7066C1.80705 10.8087 3.60278 9.46191 5.39852 9.46191C7.19425 9.46191 11.4591 11.2576 12.1325 12.1555C12.8059 13.0534 10.7857 14.4002 10.7857 14.4002" stroke="#0679DC" stroke-width="2" stroke-linecap="round" stroke-linejoin="round"/>
<path d="M16.6218 5.4209H12.1324C11.3886 5.4209 10.7856 6.02388 10.7856 6.7677C10.7856 7.51152 11.3886 8.1145 12.1324 8.1145H16.6218C17.3656 8.1145 17.9686 7.51152 17.9686 6.7677C17.9686 6.02388 17.3656 5.4209 16.6218 5.4209Z" stroke="#0679DC" stroke-width="2"/>
<path d="M10.7856 2.72754H17.9686" stroke="#0679DC" stroke-width="2" stroke-linecap="round"/>
</g>
<defs>
<clipPath id="clip0_107_442">
<rect width="20" height="20" fill="white"/>
</clipPath>
</defs>
</svg>
