<?xml version="1.0" standalone="no"?><!DOCTYPE svg PUBLIC "-//W3C//DTD SVG 1.1//EN" "http://www.w3.org/Graphics/SVG/1.1/DTD/svg11.dtd"><svg t="1718176354869" class="icon" viewBox="0 0 1024 1024" version="1.1" xmlns="http://www.w3.org/2000/svg" p-id="10984" xmlns:xlink="http://www.w3.org/1999/xlink" width="32" height="32"><path d="M635.964235 560.911059l-43.730823 12.649412 113.603764 130.770823-65.716705 57.22353-113.724236-130.831059-18.612706 41.562353a201.908706 201.908706 0 0 0 31.924706 215.100235l9.456941 10.24a201.908706 201.908706 0 0 0 172.393412 57.103059l8.131765-1.505883 23.311059 26.744471a101.677176 101.677176 0 0 0 143.420235 10.059294l7.529412-7.228235a101.677176 101.677176 0 0 0 2.529882-136.252235l-23.311059-26.804706 3.072-9.396706a201.848471 201.848471 0 0 0-250.277647-249.434353z m66.198589 50.597647l7.710117 0.662588a143.841882 143.841882 0 0 1 113.423059 201.60753l-7.589647 16.986352 46.923294 53.910589a43.550118 43.550118 0 1 1-65.776941 57.223529l-46.98353-53.970823-17.769411 5.180235a143.841882 143.841882 0 0 1-148.600471-43.851294l-7.469176-9.396706a143.600941 143.600941 0 0 1-27.768471-87.220706l0.361412-7.830588 85.775059 98.785882 153.479529-133.421176-85.714823-98.725647z" fill="#0679DC" p-id="10985"></path><path d="M839.017412 42.104471c63.548235 0 90.473412 38.671059 92.340706 82.823529v423.152941a203.053176 203.053176 0 0 0-60.235294-39.936V126.192941c-0.602353-14.456471-7.168-23.853176-32.105412-23.853176H206.245647c-24.094118 0-31.322353 11.143529-32.105412 23.732706V890.88l0.421647 3.312941c0.602353 3.252706 1.686588 6.505412 3.312942 9.336471 4.336941 7.589647 11.926588 12.047059 28.370823 12.047059h258.048c8.252235 22.166588 20.239059 42.526118 35.177412 60.235294H206.245647c-38.128941 0-65.656471-16.082824-80.715294-42.465883a89.810824 89.810824 0 0 1-11.444706-37.345882l-0.060235-1.325176L113.965176 124.325647c2.469647-42.164706 28.551529-82.221176 92.280471-82.221176z" fill="#0679DC" p-id="10986"></path><path d="M325.270588 92.16v843.294118h-48.188235v-843.294118zM697.825882 462.607059a24.094118 24.094118 0 1 1 0 48.188235h-237.929411a24.094118 24.094118 0 1 1 0-48.188235h237.929411z" fill="#0679DC" p-id="10987"></path><path d="M452.487529 92.16v271.058824l120.470589-60.235295 120.470588 60.235295v-271.058824z" fill="#0679DC" p-id="10988"></path></svg>