<?xml version="1.0" standalone="no"?><!DOCTYPE svg PUBLIC "-//W3C//DTD SVG 1.1//EN" "http://www.w3.org/Graphics/SVG/1.1/DTD/svg11.dtd"><svg t="1700639855841" class="icon" viewBox="0 0 1024 1024" version="1.1" xmlns="http://www.w3.org/2000/svg" p-id="25925" xmlns:xlink="http://www.w3.org/1999/xlink" width="200" height="200"><path d="M243.2 498.2c-87.8 0-159.2-71.4-159.2-159.2s71.4-159.2 159.2-159.2H738L681.4 126c-12-11.4-12.6-30.4-1.2-42.4s30.4-12.6 42.4-1.2L834 188c5.8 5.6 9.2 13.2 9.4 21.4 0.2 8-3 15.8-8.8 21.6l-104.2 104.2c-5.8 5.8-13.6 8.8-21.2 8.8s-15.4-3-21.2-8.8c-11.8-11.8-11.8-30.8 0-42.4l53-53H243.2c-54.6 0-99.2 44.4-99.2 99.2s44.4 99.2 99.2 99.2h272.2c57.2 0 107.2 30.2 135.4 75.6-20.2 4.2-38.2 16-50.2 32.8-17.4-29-49-48.4-85.2-48.4H243.2z m252.2 258.2h-124.2c-13 44.2-53.8 76.6-102.2 76.6-58.8 0-106.6-47.8-106.6-106.6s47.8-106.6 106.6-106.6c48.4 0 89.2 32.4 102.2 76.6h142.2l-7.2 12.6c-8.4 14.6-12 31.2-10.8 47.4z m-179.8-30c0-25.6-20.8-46.6-46.6-46.6-25.6 0-46.6 20.8-46.6 46.6s20.8 46.6 46.6 46.6c25.6 0 46.6-21 46.6-46.6z m502.8-112h-121.2c-11 0-21.2 5.8-26.8 15.4l-60.6 105c-5.6 9.6-5.6 21.4 0 31l60.6 105c5.6 9.6 15.8 15.4 26.8 15.4h121.2c11 0 21.2-5.8 26.8-15.4l60.6-105c5.6-9.6 5.6-21.4 0-31L845.2 630c-5.6-9.6-15.8-15.6-26.8-15.6m0-60c32.4 0 62.6 17.4 78.8 45.4l60.6 105c16.2 28 16.2 62.8 0 91l-60.6 105c-16.2 28-46.4 45.4-78.8 45.4h-121.2c-32.4 0-62.6-17.4-78.8-45.4l-60.6-105c-16.2-28-16.2-62.8 0-91l60.6-105c16.2-28 46.4-45.4 78.8-45.4h121.2z m21.8 196c0-45.6-37-82.6-82.6-82.6s-82.6 37-82.6 82.6 37 82.6 82.6 82.6 82.6-37 82.6-82.6z m-60 0c0 12.4-10.2 22.6-22.6 22.6s-22.6-10.2-22.6-22.6 10.2-22.6 22.6-22.6 22.6 10.2 22.6 22.6z" p-id="25926"></path></svg>