<svg t="1741741240370" class="icon" viewBox="0 0 1024 1024" version="1.1" xmlns="http://www.w3.org/2000/svg" p-id="12087" width="200" height="200"><path d="M991.888108 503.781267h-223.983066V309.421768L1014.647677 62.859764c9.212207-9.212207 11.921679-22.940201 7.044629-34.861881-4.877051-11.921679-16.618098-19.688834-29.623567-19.688834H479.978424c-8.489681 0-16.618098 3.431999-22.578939 9.392838l-447.966131 447.966132c-9.212207 9.212207-11.921679 22.940201-7.044629 34.86188C7.265776 512.451579 19.006824 520.218733 32.012292 520.218733h223.983066v194.540131L9.433354 961.140236c-9.212207 9.212207-11.921679 22.940201-7.044629 34.861881 4.877051 11.921679 16.618098 19.688834 29.623567 19.688834h511.909684c8.489681 0 16.618098-3.431999 22.578938-9.392838l447.966132-447.966132c9.212207-9.212207 11.921679-22.940201 7.044629-34.86188-4.877051-11.741048-16.618098-19.688834-29.623567-19.688834zM493.345155 72.252602h421.4133L530.735876 456.094549H109.322576L493.345155 72.252602z m50.757453 447.7855c8.489681 0 16.618098-3.431999 22.578938-9.392838l137.279943-137.279944v149.201623L320.119542 906.589522v-386.55142h223.983066zM255.995358 805.074616v146.672782H109.322576l146.672782-146.672782z m274.740518 146.672782h-165.458458l384.022579-384.022579h165.458458L530.735876 951.747398z m0 0" p-id="12088"></path></svg>