<?xml version="1.0" standalone="no"?><!DOCTYPE svg PUBLIC "-//W3C//DTD SVG 1.1//EN" "http://www.w3.org/Graphics/SVG/1.1/DTD/svg11.dtd"><svg t="1700186129618" class="icon" viewBox="0 0 1024 1024" version="1.1" xmlns="http://www.w3.org/2000/svg" p-id="13192" xmlns:xlink="http://www.w3.org/1999/xlink" width="200" height="200"><path d="M119.455202 887.347217c65.84674 0 119.439204 53.592464 119.439203 119.439204 0 9.438673-7.614929 17.0696-17.053601 17.069599h-204.771204C7.630927 1023.85602 0 1016.225093 0 1006.786421c0-65.84674 53.592464-119.439204 119.455202-119.439204z m-83.604244 102.385602h167.192489a85.443984 85.443984 0 0 0-66.534644-66.390664v32.251465H102.385602v-32.251465a85.427987 85.427987 0 0 0-66.534644 66.390664z m970.935463-255.964005c9.438673 0 17.0696 7.614929 17.069599 17.053602v102.385602c0 9.438673-7.630927 17.0696-17.069599 17.069599h-29.915793c-0.959865 2.367667-1.91973 4.719336-2.975582 7.103001l21.181021 21.165024a17.037604 17.037604 0 0 1 0 24.140605L922.686247 995.06007a17.037604 17.037604 0 0 1-24.140605 0l-21.165024-21.181022c-2.383665 1.055852-4.735334 2.031714-7.103001 2.959584v29.931791c0 9.438673-7.630927 17.0696-17.069599 17.069599h-102.385602c-9.438673 0-17.053602-7.630927-17.053602-17.069599v-29.915793c-2.383665-0.959865-4.735334-1.91973-7.103001-2.975582L705.484791 995.06007a17.037604 17.037604 0 0 1-24.124607 0l-72.38982-72.389821a17.037604 17.037604 0 0 1 0-24.140605l21.181021-21.165023a178.982831 178.982831 0 0 1-2.975582-7.103002h-29.915793c-9.438673 0-17.0696-7.630927-17.069599-17.069599H213.298005A59.783593 59.783593 0 0 1 153.578403 793.488416a59.783593 59.783593 0 0 1 59.719602-59.719602h30.235748l64.470934-119.455202H85.316002A85.427987 85.427987 0 0 1 0 528.99761V85.316002A85.427987 85.427987 0 0 1 85.316002 0H870.277617a85.427987 85.427987 0 0 1 85.316003 85.316002v443.681608c0 32.667406-18.685372 60.791451-45.721571 75.125435 4.62335-0.223969 9.278695 1.311816 12.7982 4.847319l72.405818 72.38982a17.037604 17.037604 0 0 1 0 24.124607l-21.181021 21.181022c1.055852 2.367667 2.031714 4.719336 2.959584 7.103001h29.931791zM34.123201 85.316002v358.349608H921.470418v-358.349608c0-28.220032-22.972769-51.192801-51.192801-51.192801H85.316002a51.256792 51.256792 0 0 0-51.192801 51.192801z m51.192801 494.874409H870.277617c28.220032 0 51.192801-22.972769 51.192801-51.192801v-51.192801H34.123201v51.192801c0 28.220032 22.972769 51.192801 51.192801 51.192801z m813.005672 29.003921a84.212158 84.212158 0 0 1-28.044057 5.11928v12.862191c2.367667 0.943867 4.719336 1.91973 7.103001 2.975582l20.957053-20.957053z m-164.55286 5.11928h-22.940774l15.837773 15.837773c2.367667-1.055852 4.719336-2.031714 7.103001-2.975582V614.313612z m-57.767877 0H651.268415l10.03059 14.71793 14.701932-14.71793z m-95.826524 204.771204V767.892015H213.314003c-14.110016 0-25.596401 11.486385-25.596401 25.596401 0 14.110016 11.486385 25.596401 25.596401 25.5964h366.892405z m-297.862113-85.332h344.863503c0.943867-2.383665 1.91973-4.735334 2.975582-7.103001l-21.181021-21.181022a17.037604 17.037604 0 0 1 0-24.124607l27.772094-27.772095-26.764236-39.258479H346.783234l-64.470934 119.439204z m707.420519 102.385602V767.892015H964.824322a17.117593 17.117593 0 0 1-16.28571-11.950319 153.53041 153.53041 0 0 0-10.398538-24.8925 17.0696 17.0696 0 0 1 3.05557-19.965192l17.677514-17.677514-48.249214-48.265213-17.677515 17.693512c-5.295255 5.279258-13.358122 6.511084-19.965192 3.071568a153.53041 153.53041 0 0 0-24.908497-10.414536 17.0696 17.0696 0 0 1-11.918324-16.285709V614.313612H767.892015v24.8925c0 7.454952-4.831321 14.030027-11.950319 16.301707-8.238841 2.591636-16.63766 6.079145-24.8925 10.398538a17.037604 17.037604 0 0 1-19.965192-3.05557l-17.677514-17.677514-48.265213 48.249214 17.693512 17.677515c5.279258 5.279258 6.511084 13.342124 3.071568 19.965192a153.53041 153.53041 0 0 0-10.414536 24.892499c-2.239685 7.103001-8.830758 11.934322-16.285709 11.934322H614.313612v68.262401h24.8925c7.454952 0 14.030027 4.831321 16.301707 11.934322 2.591636 8.254839 6.079145 16.63766 10.398538 24.908497 3.455514 6.607071 2.20769 14.685935-3.05557 19.965192l-17.677514 17.677514 48.249214 48.249215 17.677515-17.677514c5.279258-5.279258 13.342124-6.495087 19.965192-3.071568 8.254839 4.319393 16.653658 7.8229 24.892499 10.398538 7.103001 2.271681 11.934322 8.830758 11.934322 16.28571v24.908497h68.262401V964.824322c0-7.454952 4.831321-14.014029 11.934322-16.28571a153.53041 153.53041 0 0 0 24.908497-10.398538 17.101595 17.101595 0 0 1 19.965192 3.05557l17.677514 17.677514 48.249215-48.249214-17.677514-17.677515a17.0696 17.0696 0 0 1-3.071568-19.965192c4.319393-8.270837 7.8229-16.669656 10.398538-24.908497 2.271681-7.087003 8.830758-11.918324 16.28571-11.918324h24.908497z m-187.717602-136.508803c56.472059 0 102.385602 45.913543 102.385602 102.385602 0 56.472059-45.913543 102.385602-102.385602 102.385602-56.472059 0-102.385602-45.913543-102.385602-102.385602 0-56.472059 45.913543-102.385602 102.385602-102.385602z m0 170.648002a68.326392 68.326392 0 0 0 68.2624-68.2624 68.326392 68.326392 0 0 0-68.2624-68.246403 68.326392 68.326392 0 0 0-68.246403 68.246403 68.326392 68.326392 0 0 0 68.246403 68.2624zM336.288709 131.501508l-107.392897 107.392897 107.392897 107.392898-24.124607 24.124608-119.455202-119.455202a17.037604 17.037604 0 0 1 0-24.124607l119.455202-119.439204L336.272712 131.501508z m375.403209 95.346591a17.037604 17.037604 0 0 1 0 24.10861l-119.439204 119.455202-24.124607-24.124608 107.3769-107.392898-107.3769-107.3769 24.124607-24.124607 119.439204 119.439204z m-351.566561 140.940181L513.687763 60.72746l30.523707 15.261854-153.53041 307.06082-30.539705-15.261854zM665.506413 341.280007h34.123202v34.1392H665.506413v-34.1392z m68.262401 0H767.892015v34.1392h-34.123201v-34.1392z m68.246403 0h34.139199v34.1392h-34.139199v-34.1392z" p-id="13193"></path></svg>