<svg t="1741742264020" class="icon" viewBox="0 0 1024 1024" version="1.1" xmlns="http://www.w3.org/2000/svg" p-id="31283" width="200" height="200"><path d="M943.153078 243.602596L529.054227 4.549975a33.945881 33.945881 0 0 0-33.843635 0L80.907247 243.602596A33.945881 33.945881 0 0 0 63.83206 272.998502v478.105242a33.843635 33.843635 0 0 0 16.921817 29.344783l414.098852 239.103745a33.690265 33.690265 0 0 0 16.666201 4.447728h0.357863a33.894758 33.894758 0 0 0 16.717324-4.447728l414.098852-239.052621a33.639141 33.639141 0 0 0 16.921817-29.344783V273.049626a33.843635 33.843635 0 0 0-16.870694-29.44703m-50.765452 48.976136v438.944783l-380.255217 219.830254-380.255217-219.830254V292.578732l380.255217-219.830255z" fill="#666666" p-id="31284"></path><path d="M955.269304 256.076685a33.894758 33.894758 0 0 0-46.317723-12.576336L670.665809 381.175437a33.843635 33.843635 0 0 0 16.666201 63.239541h0.357863a33.485771 33.485771 0 0 0 16.717324-4.447729l238.388018-137.623964a33.843635 33.843635 0 0 0 12.474089-46.2666" fill="#666666" p-id="31285"></path><path d="M353.036653 381.22656L114.597512 243.500349a33.894758 33.894758 0 0 0-33.792512 58.791813L319.448635 440.069496a33.894758 33.894758 0 0 0 16.666201 4.396605h0.204493a33.843635 33.843635 0 0 0 16.717324-63.239541" fill="#666666" p-id="31286"></path><path d="M511.876793 681.013679a33.843635 33.843635 0 0 0-33.843635 33.843635v275.299051a33.843635 33.843635 0 0 0 33.843635 33.843635 34.201498 34.201498 0 0 0 23.925711-9.917923 33.741388 33.741388 0 0 0 9.8668-23.925712v-275.299051a33.843635 33.843635 0 0 0-33.843635-33.843635" fill="#666666" p-id="31287"></path><path d="M704.407197 381.022067L528.747487 279.644533a33.843635 33.843635 0 0 0-33.843635 0L319.244142 381.22656a33.894758 33.894758 0 0 0-16.921817 29.395906v202.755068a33.894758 33.894758 0 0 0 16.921817 29.447029l176.017573 101.582027a36.808787 36.808787 0 0 0 16.410585 4.243235 36.757664 36.757664 0 0 0 16.921817-4.243235l175.65971-101.837643a33.690265 33.690265 0 0 0 16.921818-29.395907V410.315726a33.690265 33.690265 0 0 0-16.921818-29.447029m-50.714328 48.720519v164.770445L511.6723 676.617074l-141.71383-82.257413v-164.617075l141.867199-82.257414z" fill="#666666" p-id="31288"></path><path d="M707.474596 586.077683L545.567057 466.398003V309.193809a33.792511 33.792511 0 0 0-67.585022 0v157.204194l-161.856415 119.67968a33.843635 33.843635 0 0 0-7.157265 47.289067 34.048128 34.048128 0 0 0 26.993111 13.854418h0.357863a33.485771 33.485771 0 0 0 19.529106-6.748277l156.181728-114.771843 155.108138 114.516226a33.690265 33.690265 0 0 0 20.449326 6.799401 33.997004 33.997004 0 0 0 33.281278-38.955966 33.588018 33.588018 0 0 0-13.394309-22.187519" fill="#666666" p-id="31289"></path></svg>