<svg t="1741741883166" class="icon" viewBox="0 0 1802 1024" version="1.1" xmlns="http://www.w3.org/2000/svg" p-id="21418" width="200" height="200"><path d="M0 319.359783c49.7842-20.821032 98.697101-44.466274 150.013585-60.450096 12.528673-3.905821 33.680198 16.164091 49.513797 27.16048a101805.233542 101805.233542 0 0 1 451.302634 315.079604c92.567966 65.107037 185.766872 129.493 275.690898 198.145322 44.195871 33.740288 66.18865-14.481584 100.499788-12.168136l5.708508-15.052434L236.722819 233.672072c8.9233-4.686986 17.335838-9.854688 26.319227-13.670375 60.840679-25.808466 111.946849-35.813377 176.753438 12.288315 120.68988 89.593533 254.26897 161.701004 381.508612 242.611595 97.254952 61.862201 193.278067 125.707358 289.331228 189.462381 45.848334 30.435362 91.035682 58.58732 155.151242 11.657374-271.845166-174.650304-548.167004-338.604666-813.011737-510.701164 89.32313-77.906114 164.465124-20.250181 240.899043 25.598152 175.100976 105.006505 349.841414 210.613905 525.152703 315.259873 50.895857 30.375272 106.658968 53.720066 153.979496 88.722234 43.174348 31.967646 70.15456 7.691464 109.783625-13.219703L652.212076 100.904191c70.304784-46.208871 105.427132-44.37614 182.822484-1.261881 134.059807 74.721367 269.591808 146.768748 404.25251 220.408503 111.195729 60.810634 222.691907 121.050417 332.595711 184.11441 36.203959 20.760943 66.639321 21.992779 108.341475-12.558718L831.939948 32.522272C870.697714 21.045166 904.017374 10.709762 937.667528 1.606194c7.330926-1.982955 17.215659-2.283403 23.615196 1.021522 138.626613 71.867113 276.742465 144.725703 415.339034 216.682951 116.062984 60.239783 231.645251 121.471044 349.240518 178.556125 78.476964 38.096781 79.859024 35.182437 75.532576 117.505134-2.283403 43.56493-8.412538 83.824935-61.321395 96.11325-19.979778 4.626896-38.637587 14.932255-62.523186 24.486495v-80.45992c-82.142428 35.603064-158.816705 69.553665-236.151968 101.971982-27.851511 11.687419-45.00708 27.581108-38.968079 60.059515 6.669941 35.813377-9.464106 55.072081-43.144304 66.519142-32.05778 10.906255-62.372963 26.829988-99.598444 43.264483 1.201791-20.700853 0.150224-38.036691 3.575328-54.471186 6.279359-30.104869-4.236314-32.147914-28.482451-21.331793-86.589055 38.607542-174.109498 75.141994-259.61694 116.002894-12.25827 5.858732-21.482017 31.216526-21.211615 47.380617 0.540806 33.650153-6.579807 51.436663-39.568975 72.257695-79.438397 50.084648-142.021673 52.998991-214.940353-15.65333-77.966203-73.399397-168.040452-134.059807-253.367627-199.587471-137.635135-105.697535-276.08148-210.313457-412.935451-317.00247-11.597285-9.043479-15.983823-29.744332-19.73942-45.938468-6.15918-26.469451-9.073523-53.659976-13.369927-80.580099L0 319.359783z m424.833184 289.060825l-14.301315 5.167702c8.442583 35.092303 5.347971 82.953637 27.460928 102.933415 69.58371 62.943813 148.54139 115.582267 224.194146 171.735961 7.421061 5.498195 17.125524 7.931822 29.864511 13.610285 3.995956-43.264483 18.627763-82.082338-21.241659-111.466133-82.052293-60.540231-163.984407-121.290775-245.976611-181.98123z m-131.56609-0.69103l14.091002-12.528673c-6.579807-28.782899-3.485194-68.682366-21.512063-84.395786-65.227217-56.874768-137.545001-105.637445-209.832741-159.417601-9.884732 83.704756 1.412105 106.118162 65.167127 141.691181 10.095046 5.648419 17.936733 15.202658 27.370795 22.233137 41.461796 30.976168 83.133905 61.651888 124.71588 92.417742z" fill="#333333" p-id="21419"></path></svg>