<?xml version="1.0" standalone="no"?><!DOCTYPE svg PUBLIC "-//W3C//DTD SVG 1.1//EN" "http://www.w3.org/Graphics/SVG/1.1/DTD/svg11.dtd"><svg t="1700639975501" class="icon" viewBox="0 0 1024 1024" version="1.1" xmlns="http://www.w3.org/2000/svg" p-id="29069" xmlns:xlink="http://www.w3.org/1999/xlink" width="200" height="200"><path d="M915.968 950.4768H114.7904A12.4928 12.4928 0 0 1 102.4 937.984v-359.8336a12.4928 12.4928 0 0 1 12.4928-12.4928h65.536l13.2608-347.8528a12.544 12.544 0 0 1 12.4928-12.032h82.7904a12.544 12.544 0 0 1 12.4928 12.032l13.2608 347.8528h109.8752v-96.768a12.3904 12.3904 0 0 1 6.7072-11.0592 12.544 12.544 0 0 1 12.9536 0.8192l139.8272 97.9456V468.8896a12.3904 12.3904 0 0 1 6.7072-11.0592 12.544 12.544 0 0 1 12.9536 0.8192l140.2368 98.2528V468.8896a12.4928 12.4928 0 0 1 19.6608-10.24l152.832 107.008a12.4928 12.4928 0 0 1 12.0832 12.4928v359.8336a12.4928 12.4928 0 0 1-12.5952 12.4928z m-788.48-24.9856h776.192v-338.3808l-134.5024-94.208v85.248a12.4928 12.4928 0 0 1-12.4928 12.4928H752.64a12.8 12.8 0 0 1-7.168-2.2528L609.28 492.9024v85.248a12.4928 12.4928 0 0 1-12.4928 12.4928h-3.584a12.8 12.8 0 0 1-7.168-2.2528L449.5872 492.9024v85.248a12.4928 12.4928 0 0 1-12.4928 12.4928H302.6944a12.544 12.544 0 0 1-12.4928-12.0832l-13.2608-347.8016H218.112L204.8 578.56a12.544 12.544 0 0 1-12.4928 12.032h-65.024z" p-id="29070"></path><path d="M458.0864 822.272H342.6304a12.544 12.544 0 0 1-12.4928-12.4928v-115.456a12.544 12.544 0 0 1 12.4928-12.4928h115.456a12.4928 12.4928 0 0 1 12.4928 12.4928v115.456a12.4928 12.4928 0 0 1-12.4928 12.4928z m-102.9632-24.9856H445.44v-90.4704H355.1232zM643.9424 822.272h-115.4048a12.4928 12.4928 0 0 1-12.4928-12.4928v-115.456a12.4928 12.4928 0 0 1 12.4928-12.4928h115.4048a12.4928 12.4928 0 0 1 12.4928 12.4928v115.456a12.4928 12.4928 0 0 1-12.4928 12.4928z m-102.912-24.9856h90.4192v-90.4704h-90.4192zM829.7984 822.272h-115.4048a12.4928 12.4928 0 0 1-12.4928-12.4928v-115.456a12.4928 12.4928 0 0 1 12.4928-12.4928h115.4048a12.4928 12.4928 0 0 1 12.4928 12.4928v115.456a12.4928 12.4928 0 0 1-12.4928 12.4928zM727.04 797.2864h90.4192v-90.4704H727.04zM593.5616 390.3488a53.248 53.248 0 1 1 53.248-53.248 53.3504 53.3504 0 0 1-53.248 53.248z m0-81.5104a28.2624 28.2624 0 1 0 28.2112 28.2624 28.3136 28.3136 0 0 0-28.2112-28.2624zM425.728 182.9376a12.4416 12.4416 0 0 1-9.3184-20.7872 236.9024 236.9024 0 0 1 354.304 0 12.4928 12.4928 0 1 1-18.688 16.64 211.8144 211.8144 0 0 0-316.928 0 12.5952 12.5952 0 0 1-9.3696 4.1472z" p-id="29071"></path><path d="M711.0656 226.4064a12.5952 12.5952 0 0 1-9.3184-4.1472 145.408 145.408 0 0 0-215.7568-0.7168A12.4928 12.4928 0 1 1 467.5072 204.8a170.4448 170.4448 0 0 1 252.8256 0.8192 12.544 12.544 0 0 1-9.2672 20.8896z" p-id="29072"></path><path d="M525.4144 270.7968a12.3392 12.3392 0 0 1-8.3456-3.1744 12.544 12.544 0 0 1-0.9216-17.664 104.192 104.192 0 0 1 151.04-3.9936 12.4928 12.4928 0 1 1-17.664 17.664 79.2576 79.2576 0 0 0-114.8416 3.072 12.4416 12.4416 0 0 1-9.2672 4.096z" p-id="29073"></path></svg>