<svg t="1741741800204" class="icon" viewBox="0 0 1070 1024" version="1.1" xmlns="http://www.w3.org/2000/svg" p-id="18163" width="200" height="200"><path d="M997.329455 0C1046.155636 0 1070.545455 23.365818 1070.545455 70.050909v210.199273c0 46.731636-24.389818 70.050909-73.216 70.050909h-73.169455c-48.826182 0-73.216-23.319273-73.216-70.050909v-64.698182h-219.601455v740.072727c0 45.614545-24.389818 68.375273-73.216 68.375273H485.003636c-48.826182 0-73.216-22.807273-73.216-68.421818V215.552H219.554909v64.698182c0 46.731636-24.343273 70.050909-73.169454 70.050909H73.216C24.389818 350.301091 0 326.981818 0 280.250182V70.050909C0 53.992727 2.885818 40.680727 8.657455 30.114909 19.223273 10.053818 39.563636 0 69.538909 0h927.790546z" fill="#47454D" p-id="18164"></path></svg>