<?xml version="1.0" standalone="no"?><!DOCTYPE svg PUBLIC "-//W3C//DTD SVG 1.1//EN" "http://www.w3.org/Graphics/SVG/1.1/DTD/svg11.dtd"><svg t="1752719122942" class="icon" viewBox="0 0 1024 1024" version="1.1" xmlns="http://www.w3.org/2000/svg" p-id="32781" xmlns:xlink="http://www.w3.org/1999/xlink" width="200" height="200"><path d="M390.709 596.22h5.219c7.783 0 14.038-6.287 14.038-14.039 0-7.75-6.255-14.038-14.038-14.038h-11.713l-58.84-254.178c16.691-17.029 27.454-39.954 28.372-65.761 0.971-26.254-8.438-51.351-26.353-70.607-8.776-9.388-19.126-16.746-30.392-22.008V90.92c0-15.479-12.608-28.055-28.088-28.055h-28.066c-15.479 0-28.055 12.575-28.055 28.055v64.876c-32.509 15.272-55.412 47.345-56.799 85.673-0.917 26.298 8.406 51.405 26.407 70.685 1.256 1.418 2.827 2.412 4.192 3.689l-58.425 252.3h-12.914c-7.784 0-14.05 6.288-14.05 14.038 0 7.752 6.266 14.039 14.05 14.039h6.44l-39.3 169.771c-0.055 0.109-0.098 0.176-0.131 0.264-0.054 0.109 0 0.24 0 0.305l-19.049 82.201c-0.993 4.302 0.131 8.82 2.937 12.205l41.057 48.601-7.969 34.363c-1.725 7.555 2.97 15.109 10.513 16.855 1.103 0.263 2.117 0.35 3.165 0.35 6.397 0 12.183-4.388 13.679-10.873l9.486-41.066c0-0.067 0.076-0.132 0.076-0.154l72.42-312.821h32.979v14.038c0 7.752 6.266 14.018 14.05 14.018 7.75 0 14.016-6.266 14.016-14.018V596.22h34.158l62.911 271.579 19.147 82.463c1.103 4.738 4.563 8.58 9.17 10.132 1.44 0.479 2.99 0.741 4.476 0.741 3.253 0 6.397-1.091 8.94-3.209l48.829-40.15c4.115-3.385 5.95-8.865 4.771-14.062l-12.805-54.975-58.511-252.519z m-149.86-505.3h28.066v56.679c-3.537-0.481-6.976-1.267-10.589-1.397l-3.373-0.044c-4.847 0-9.432 0.699-14.104 1.354V90.92z m-56.798 151.52c1.364-38.252 32.411-68.173 73.261-68.173h0.076c18.94 0.6 36.516 8.591 49.407 22.454 12.87 13.777 19.573 31.702 18.864 50.533-1.365 38.251-32.488 68.249-70.893 68.249l-2.467-0.055c-18.939-0.654-36.493-8.646-49.331-22.443-12.858-13.787-19.627-31.734-18.917-50.565z m-68.927 632.956l-22.957-27.159 8.646-37.226c4.039 2.577 8.383 4.804 13.23 5.916a43.38 43.38 0 0 0 9.486 1.049c1.758 0 3.329-0.655 5.086-0.873l-13.491 58.293z m22.324-96.347c-1.813 7.356-9.432 12.313-17.161 10.501-3.7-0.808-6.844-3.078-8.863-6.311-1.965-3.142-2.533-6.921-1.747-10.543l0.044-0.264c1.528-6.309 7.293-10.894 13.81-10.894 1.048 0 2.15 0.131 3.198 0.393 7.62 1.746 12.368 9.388 10.742 16.92l-0.023 0.198z m8.908-38.448c-4.038-2.619-8.361-4.89-13.263-6.048-4.923-1.091-9.771-0.917-14.509-0.306l92.79-400.852c8.57 4.171 17.74 6.867 27.303 8.472l-92.321 398.734z m123.268-172.458v-14.017c0-7.794-6.266-14.06-14.016-14.06a14.021 14.021 0 0 0-14.05 14.06v14.017h-26.462l41.111-177.544 41.078 177.544h-27.661z m96.415 172.393l-92.386-398.8c9.639-1.866 18.602-5.403 27.018-9.825l93.215 402.336c-4.747-0.611-9.671-0.785-14.519 0.306-4.868 1.158-9.267 3.319-13.328 5.983z m8.875 38.381c-0.808-3.646-0.152-7.423 1.812-10.675 2.021-3.211 5.186-5.438 8.908-6.311 1.048-0.262 2.15-0.37 3.198-0.37 6.571 0 12.412 4.605 13.907 11.002 0.863 3.646 0.263 7.467-1.758 10.676a14.15 14.15 0 0 1-8.961 6.354c-7.543 1.813-15.349-3.188-17.106-10.676z m17.16 74.058L383.8 817.19c1.703 0.196 3.274 0.853 5.032 0.853 3.188 0 6.419-0.395 9.509-1.115 4.868-1.157 9.268-3.339 13.328-5.981l8.254 35.653-12.281 10.088-15.568-3.713z m16.015 68.905l-8.908-38.34 8.723 2.097c1.069 0.24 2.15 0.392 3.242 0.392a14.07 14.07 0 0 0 8.963-3.208l6.888-5.654 5.688 24.452-24.596 20.261z" fill="#333333" p-id="32782"></path><path d="M253.349 287.078c0.185 0 1.364 0.032 1.495 0.032 22.925 0 41.526-17.925 42.312-40.828 0.394-11.232-3.646-22.029-11.32-30.26-7.696-8.253-18.175-13.045-30.991-13.438-22.848 0-41.449 17.893-42.313 40.851-0.371 11.266 3.646 22.007 11.397 30.314 7.75 8.252 18.208 12.969 29.42 13.329z m2.019-56.405h0.055a14.125 14.125 0 0 1 9.9 4.508c2.598 2.772 3.908 6.364 3.777 10.142-0.24 7.543-6.604 13.723-14.257 13.723l-0.546-0.055c-3.756-0.077-7.259-1.649-9.879-4.422-2.599-2.806-3.963-6.451-3.832-10.119 0.318-7.73 6.551-13.777 14.782-13.777zM629.627 226.557c-4.367-1.801-9.256-1.331-13.143 1.256a14.113 14.113 0 0 0-6.244 11.713v230.348a14.008 14.008 0 0 0 14.039 14.039c15.479 0 28.055 12.608 28.055 28.089 0 15.49-12.576 28.065-28.055 28.065-7.773 0-14.039 6.266-14.039 14.06v230.337c0 4.695 2.334 9.083 6.244 11.659 2.291 1.594 5.02 2.379 7.795 2.379 1.789 0 3.602-0.371 5.348-1.048 116.086-47.945 191.148-159.969 191.148-285.452 0.001-125.497-75.062-237.555-191.148-285.445z m8.668 536.052V566.353c24.191-6.244 42.139-28.229 42.139-54.352 0-26.146-17.947-48.132-42.139-54.365V261.38c94.471 47.498 154.402 143.672 154.402 250.621 0.001 106.926-59.931 203.121-154.402 250.608z" fill="#333333" p-id="32783"></path><path d="M961.139 512.001c0-26.277-2.73-51.843-7.074-76.896-0.045-0.36 0.262-0.655 0.217-1.016-0.043-0.35-0.436-0.479-0.523-0.785-4.475-25.338-11.178-49.91-19.779-73.653-0.133-0.393 0.174-0.786 0.043-1.18-0.131-0.447-0.656-0.523-0.852-0.916-8.799-23.995-19.453-47.028-32.096-68.905-0.174-0.338 0.088-0.786-0.131-1.146-0.195-0.394-0.719-0.394-1.025-0.786-12.881-22.095-27.313-43.153-43.666-62.617-0.131-0.24-0.043-0.524-0.217-0.765-0.221-0.261-0.611-0.207-0.83-0.414-16.506-19.519-34.605-37.651-54.125-54.135-0.219-0.186-0.197-0.578-0.393-0.753-0.217-0.164-0.48-0.033-0.656-0.219-19.584-16.374-40.609-30.828-62.725-43.72-0.371-0.263-0.371-0.765-0.764-0.972-0.326-0.186-0.721 0-1.07-0.132-21.898-12.63-44.932-23.295-68.949-32.148-0.371-0.186-0.5-0.71-0.895-0.841-0.391-0.131-0.785 0.186-1.199 0.055-23.756-8.591-48.34-15.327-73.752-19.835-0.262-0.076-0.393-0.394-0.656-0.437-0.326-0.033-0.523 0.229-0.873 0.175-25.107-4.367-50.805-7.096-77.157-7.096-7.75 0-14.038 6.266-14.038 14.016v140.375c0 7.762 6.288 14.018 14.038 14.018h14.04v561.442h-14.04c-7.75 0-14.038 6.266-14.038 14.039v140.363c0 7.751 6.288 14.017 14.038 14.017 25.632 0 50.565-2.619 75.04-6.791 0.174 0 0.305 0.176 0.502 0.176 0.83 0 1.615-0.045 2.445-0.24 0.35-0.022 0.48-0.415 0.83-0.523 24.758-4.367 48.73-10.917 71.939-19.191 0.916-0.131 1.877-0.196 2.859-0.525 0.416-0.195 0.545-0.72 0.961-0.894 23.688-8.734 46.482-19.257 68.098-31.658 0.633-0.219 1.287-0.132 1.877-0.48 0.502-0.262 0.502-0.873 0.939-1.179 21.965-12.838 42.9-27.204 62.311-43.47 0.283-0.196 0.633-0.087 0.895-0.327 0.305-0.262 0.195-0.654 0.459-0.917 19.234-16.2 37.029-34.016 53.271-53.207 0.525-0.414 1.18-0.678 1.617-1.2 0.217-0.24 0.086-0.568 0.26-0.83 16.092-19.257 30.35-40.02 43.1-61.765 0.459-0.569 1.156-0.83 1.506-1.486 0.24-0.392 0-0.851 0.174-1.243 12.512-21.702 23.078-44.562 31.898-68.315 0.262-0.545 0.83-0.808 1.049-1.376 0.174-0.48-0.176-0.872-0.043-1.353 8.557-23.602 15.238-48.032 19.736-73.314 0.131-0.394 0.48-0.547 0.566-0.962 0.088-0.393-0.262-0.676-0.262-1.068 4.389-25.111 7.12-50.742 7.12-76.995z m-42.248 13.993l13.473 0.022c-0.504 15.294-1.857 30.336-3.953 45.204l-13.121-2.379c-7.51-1.267-14.936 3.756-16.287 11.375-1.377 7.619 3.756 14.911 11.33 16.266l13.514 2.4c-3.121 14.913-7.203 29.475-11.896 43.798l-12.686-4.672c-7.271-2.62-15.35 1.156-18.012 8.383-2.621 7.292 1.092 15.349 8.383 17.968l12.859 4.717c-5.721 14.126-12.029 27.859-19.17 41.134l-11.855-6.835c-6.613-3.886-15.26-1.593-19.168 5.132-3.865 6.659-1.572 15.304 5.131 19.147l11.57 6.724c-8.012 12.794-16.57 25.306-25.893 37.203l-10.328-8.711c-5.916-4.979-14.781-4.235-19.736 1.727-5 5.937-4.234 14.779 1.703 19.779l10.086 8.471c-10.086 11.267-20.697 22.007-31.963 32.094l-8.514-10.173c-5-5.961-13.863-6.747-19.781-1.704-5.916 4.956-6.703 13.82-1.703 19.737l8.473 10.131a419.4 419.4 0 0 1-37.074 26.003l-6.615-11.484c-3.863-6.702-12.4-8.973-19.168-5.131-6.703 3.908-9.039 12.444-5.197 19.17l6.746 11.615a423.196 423.196 0 0 1-41.109 19.125l-4.564-12.554c-2.641-7.27-10.654-11.048-17.99-8.405-7.27 2.619-11.025 10.697-8.361 17.969l4.693 12.858c-14.301 4.693-29.016 8.473-43.906 11.614l-2.336-13.338c-1.375-7.621-8.756-12.903-16.266-11.333-7.576 1.311-12.707 8.581-11.352 16.201l2.357 13.536c-14.826 2.096-29.869 3.581-45.172 4.083v-112.09h14.016a13.995 13.995 0 0 0 14.039-14.017V217.256a13.993 13.993 0 0 0-14.039-14.038h-14.016V91.16c15.303 0.47 30.346 1.965 45.215 4.062l-2.4 13.471c-1.355 7.619 3.711 14.955 11.352 16.265 0.83 0.131 1.66 0.24 2.512 0.24 6.658 0 12.576-4.803 13.754-11.561l2.379-13.328c14.912 3.111 29.563 6.889 43.863 11.571l-4.693 12.816c-2.664 7.28 1.092 15.348 8.361 18.022 1.594 0.579 3.209 0.841 4.846 0.841 5.678 0 11.07-3.56 13.145-9.225l4.605-12.575c14.084 5.709 27.816 12.051 41.09 19.18l-6.701 11.582c-3.908 6.648-1.572 15.25 5.131 19.147a13.803 13.803 0 0 0 7.029 1.889c4.803 0 9.496-2.544 12.139-7.02l6.66-11.473c12.816 8.012 25.172 16.713 37.029 25.98l-8.473 10.087a14.083 14.083 0 0 0 1.703 19.813c2.643 2.227 5.852 3.274 9.039 3.274 3.996 0 7.947-1.702 10.742-4.955l8.58-10.163c11.199 10.087 21.811 20.773 31.896 32.039l-10.086 8.438c-5.916 5-6.703 13.864-1.746 19.803 2.816 3.308 6.746 5.01 10.783 5.01 3.166 0 6.377-1.047 8.996-3.253l10.371-8.612c9.279 11.833 17.838 24.278 25.85 37.148l-11.527 6.604c-6.703 3.898-9.039 12.468-5.174 19.17a13.987 13.987 0 0 0 12.162 7.052c2.4 0 4.779-0.6 6.963-1.833l11.943-6.834c7.096 13.274 13.471 27.007 19.148 41.133l-12.84 4.661c-7.27 2.62-11.047 10.666-8.426 17.914 2.072 5.764 7.467 9.279 13.207 9.279 1.574 0 3.188-0.262 4.783-0.841l12.707-4.607c4.693 14.302 8.775 28.874 11.941 43.776l-13.449 2.357a13.985 13.985 0 0 0-11.439 16.244c1.223 6.789 7.072 11.604 13.797 11.604 0.83 0 1.615-0.021 2.445-0.207l13.166-2.281a419.631 419.631 0 0 1 3.953 45.096l-13.385-0.056h-0.066c-7.684 0-13.973 6.289-14.016 13.995-0.043 7.775 6.265 14.04 13.994 14.095z" fill="#333333" p-id="32784"></path></svg>