<?xml version="1.0" standalone="no"?><!DOCTYPE svg PUBLIC "-//W3C//DTD SVG 1.1//EN" "http://www.w3.org/Graphics/SVG/1.1/DTD/svg11.dtd"><svg t="1752744224307" class="icon" viewBox="0 0 1024 1024" version="1.1" xmlns="http://www.w3.org/2000/svg" p-id="21219" xmlns:xlink="http://www.w3.org/1999/xlink" width="200" height="200"><path d="M513.024 517.802667c-16.384 0-32.768-4.266667-47.274667-12.629334L211.968 358.4c-29.525333-17.066667-47.104-47.616-47.104-81.578667s17.408-64.512 46.762667-81.749333l252.586666-147.797333a94.464 94.464 0 0 1 95.402667 0l254.293333 148.650666a93.559467 93.559467 0 0 1 46.762667 81.92c-0.170667 34.133333-17.749333 64.512-47.274667 81.578667L560.128 505.173333c-14.506667 8.362667-30.890667 12.629333-47.104 12.629334zM512 85.504c-7.509333 0-15.189333 2.048-21.845333 5.973333l-252.586667 147.797334c-13.482667 7.850667-21.504 21.845333-21.504 37.546666 0 15.530667 8.192 29.525333 21.674667 37.376L491.349333 460.8c13.312 7.68 29.866667 7.68 43.349334 0l253.269333-145.92a43.008 43.008 0 0 0 21.674667-37.376c0-15.530667-8.021333-29.696-21.504-37.546667l-254.293334-148.650666c-6.826667-3.754667-14.336-5.802667-21.845333-5.802667zM630.442667 987.818667a85.333333 85.333333 0 0 1-41.642667-10.922667c-29.696-16.384-48.128-48.469333-48.128-83.626667V595.285333c0-33.28 16.896-64.512 44.202667-81.408L819.2 368.469333c26.965333-16.725333 59.733333-17.578667 87.381333-2.218666 29.525333 16.384 47.786667 48.469333 47.786667 83.626666V745.813333c0 33.109333-16.725333 64.170667-43.690667 81.066667l-234.325333 147.285333c-14.165333 9.045333-30.037333 13.653333-45.909333 13.653334z m234.325333-581.461334c-6.314667 0-12.629333 1.877333-18.602667 5.461334l-234.325333 145.408c-12.288 7.68-19.968 22.186667-19.968 37.888v297.984c0 16.896 8.021333 31.402667 21.674667 38.912 11.434667 6.314667 24.405333 5.973333 35.669333-1.024l234.325333-147.285334c12.117333-7.68 19.797333-22.186667 19.797334-37.717333V449.706667c0-16.896-8.021333-31.402667-21.504-38.912-5.632-2.901333-11.434667-4.437333-17.066667-4.437334zM400.042667 987.818667c-16.042667 0-31.914667-4.437333-46.250667-13.312L115.712 827.050667c-27.306667-16.896-44.373333-48.128-44.373333-81.237334V449.706667c0-34.816 18.261333-66.730667 47.786666-83.285334 28.16-15.701333 61.269333-15.018667 88.917334 1.706667l238.08 145.408c27.648 16.896 44.714667 48.128 44.714666 81.408v297.984c0 34.986667-18.432 66.901333-47.957333 83.285333-13.482667 7.850667-28.16 11.605333-42.837333 11.605334zM162.133333 406.357333c-6.144 0-12.117333 1.536-17.92 4.778667-13.482667 7.509333-21.504 22.016-21.504 38.570667V745.813333c0 15.530667 7.68 30.037333 20.138667 37.717334l238.08 147.285333c11.776 7.168 25.258667 7.509333 37.205333 0.853333 13.482667-7.509333 21.674667-22.016 21.674667-38.570666V595.285333c0-15.701333-7.850667-30.208-20.309333-37.717333l-238.08-145.408c-6.144-3.925333-12.8-5.802667-19.285334-5.802667z" p-id="21220"></path></svg>