<?xml version="1.0" standalone="no"?><!DOCTYPE svg PUBLIC "-//W3C//DTD SVG 1.1//EN" "http://www.w3.org/Graphics/SVG/1.1/DTD/svg11.dtd"><svg t="1721624506205" class="icon" viewBox="0 0 1024 1024" version="1.1" xmlns="http://www.w3.org/2000/svg" p-id="10941" xmlns:xlink="http://www.w3.org/1999/xlink" width="200" height="200"><path d="M425.504 645.392a129.232 129.232 0 0 1-47.104 37.76 127.04 127.04 0 0 1-58.624 13.632 107.312 107.312 0 0 1-20.912-2.176l56.08 120.944h148.736l-78.176-170.16z m-59.808-228.832a144.672 144.672 0 0 1 51.6 33.984l49.248-138.336c-47.6 18.352-101.328-0.8-127.04-45.248l-51.584 145.44a154.688 154.688 0 0 1 32.048-3.744 135.456 135.456 0 0 1 45.728 8.288v-0.384z m138.96-248.416a82.8 82.8 0 0 0-74.656-48.016c-12.176 0.208-24.16 3.04-35.184 8.304a83.28 83.28 0 0 0-42.608 48.016 81.856 81.856 0 0 0 2.944 63.632 83.008 83.008 0 0 0 46.704 43.088c20.512 7.616 43.2 6.56 62.928-2.976a85.856 85.856 0 0 0 42.608-48.416 82.048 82.048 0 0 0-3.136-63.632h0.4z m-40.272 49.216a32.816 32.816 0 0 1-19.536 19.76c-8.992 4.16-19.344 4.16-28.336 0a32.432 32.432 0 0 1-19.552-19.76 35.328 35.328 0 0 1 0-28.864c3.2-9.248 10.4-16.512 19.552-19.76a38.704 38.704 0 0 1 16.416-2.96 40.96 40.96 0 0 1 33.808 19.76c2.592 9.92 2.592 20.32 0 30.24l-2.352 1.584z m273.6 626.848h-459.84a63.168 63.168 0 0 0-44.976 18.88 64.592 64.592 0 0 0-18.544 45.536V944h586.304v-35.36c0-35.6-28.528-64.432-63.712-64.432h0.784z m88.352-579.232a11.84 11.84 0 0 0-9.776-3.744l-126.48 4.336c-16.16 0.736-31.36-0.416-44.096-10.464a67.84 67.84 0 0 1-22.16-77.328c10.32-27.904 36.864-36.544 66.24-34.528h126.496a16.32 16.32 0 0 0 9.76-3.76 12.704 12.704 0 0 0 4.512-9.872 14 14 0 0 0-10.56-13.648l-155.568-35.36a40.928 40.928 0 0 0-35.168 10.672l-44.752 45.248a12.256 12.256 0 0 1-7.04 3.36h-58.624c4.672 6.128 8.656 12.752 11.92 19.76a101.808 101.808 0 0 1 4.48 81.024 120.32 120.32 0 0 1-11.92 24.896h54.144a11.648 11.648 0 0 1 8.208 2.976l43.968 44.656c8.976 9.696 22.4 13.76 35.184 10.672l156.336-34.784a14.592 14.592 0 0 0 10.56-13.632 12.704 12.704 0 0 0-4.496-9.888l-1.168-0.592zM283.424 660.224a108.528 108.528 0 0 0 85.984-4.544 112.416 112.416 0 0 0 57.456-65.024 112.8 112.8 0 0 0-4.288-86.944 115.792 115.792 0 0 0-101.824-65.024 110.576 110.576 0 0 0-48.672 11.456 113.6 113.6 0 0 0-57.44 65.216 112.8 112.8 0 0 0 4.48 86.96 112.608 112.608 0 0 0 64.304 58.096v-0.192z m-12.704-125.104a51.584 51.584 0 0 1 26.768-30.24c7.104-3.152 14.72-4.912 22.48-5.12 20.32 0.16 38.832 11.84 47.888 30.24 6.032 12.72 6.88 27.344 2.336 40.704a50.768 50.768 0 0 1-26.96 29.248 53.2 53.2 0 0 1-40.464 2.368 47.472 47.472 0 0 1-29.904-26.48 57.904 57.904 0 0 1-2.144-40.72z" p-id="10942"></path></svg>