<?xml version="1.0" standalone="no"?><!DOCTYPE svg PUBLIC "-//W3C//DTD SVG 1.1//EN" "http://www.w3.org/Graphics/SVG/1.1/DTD/svg11.dtd"><svg t="1700639885022" class="icon" viewBox="0 0 1024 1024" version="1.1" xmlns="http://www.w3.org/2000/svg" p-id="26922" xmlns:xlink="http://www.w3.org/1999/xlink" width="200" height="200"><path d="M238.336195 849.947975C210.969524 843.623233 112.084621 804.093598 103.813805 749.238627c-5.838223-35.637487 8.270816-70.788455 38.799857-96.209051 22.866374-19.095855 80.275567-55.463119 103.871719-67.504454 9.000594-4.500297 21.771707-9.608742 33.204894-14.595558 32.475116-14.109039 45.246229-20.433781 48.408599-26.150374 3.770519-9.000594 3.770519-15.325336 0.608148-32.475116V510.844518l-1.337926-1.337926c-13.379261-14.109039-45.976007-53.638674-54.246822-77.842974-8.270816-24.2043-17.27141-73.342677-17.879558-95.600903v-5.108445H189.197817c1.337926-10.21689 5.838223-31.866968 12.771113-44.029932 10.21689-17.879558 26.150374-33.204894 28.704597-34.42119l2.554222-1.337926v-4.500297c0-14.595558 8.270816-65.68001 45.246229-102.655423 44.638081-44.638081 107.155719-76.505048 148.023281-76.505048h2.554222c40.867561 0 103.3852 32.475116 148.023281 76.505048 36.975413 36.975413 45.246229 87.938235 45.246229 102.655423v3.16237l2.554222 1.337927c2.554223 1.337926 18.487706 16.541632 28.704597 34.42119 6.93289 12.162965 10.825039 33.813042 12.771113 44.029932h-66.896306v5.108445c0 22.258225-9.608742 71.396603-17.879558 95.600903-8.270816 24.2043-40.867561 63.733935-54.246823 77.842974l-1.337926 1.337926v1.337926c-3.162371 17.27141-3.770519 23.596152 0.608149 32.475116 2.554223 6.324742 15.325336 12.162965 48.408599 26.150374 11.433187 5.108445 23.596152 10.21689 33.204894 14.595558 24.2043 12.162965 81.005345 48.4086 103.871719 67.504454 30.650671 25.542226 44.638081 60.571564 38.799857 96.209051-9.000594 54.854971-107.642238 109.101794-134.52239 100.709348-31.866968-9.852001-130.143723-16.541632-168.94358-16.541632h-11.433187c-2.554223 0-5.108445 0.608148-9.000594 0.608148-3.162371 0-6.324742-0.608148-9.000593-0.608148h-11.433187c-38.191709 1.337926-147.780021 10.946668-168.213802 18.001188zM610.766174 818.689155l1.946075-0.608148c9.608742-1.946074 96.209051-21.771707 108.372015-83.559567 6.324742-35.029338-34.42119-65.68001-54.246822-79.667419-13.379261-10.21689-24.934078-17.27141-39.529636-24.934078l-6.324741-3.162371-33.204894 186.823138 5.108445 0.608149c8.270816 1.337926 14.109039 2.554223 15.933484 3.16237l1.946074 1.337926zM227.511156 629.919943c-17.27141 9.000594-28.096449 16.541632-39.529635 24.934078-19.704003 14.595558-60.571564 45.246229-54.246823 79.667419 12.162965 61.90949 98.276755 81.613493 108.372016 83.559567l1.946074 0.608148 1.337926-1.337926c1.946074-0.608148 8.270816-1.946074 15.933484-3.16237l5.108445-0.608149-33.204894-186.823138-5.716593 3.162371zM439.268372 802.147523c36.367265 0.608148 69.572158 2.554223 95.114384 5.108446l5.108445 0.608148 29.312745-205.310845-6.324742-3.16237c-5.108445-2.554223-10.825039-4.500297-16.541632-6.93289-21.771707-9.000594-44.029932-17.879558-52.908896-49.138378-1.337926-5.716593-1.946074-11.433187-1.337926-17.879558 0.608148-7.662668 3.162371-14.109039 5.838223-22.258225 0.608148-3.162371 1.946074-5.838223 3.162371-9.608743 14.595558-12.771113 35.637487-43.300154 46.584155-64.342083l6.932889-14.595558c5.108445-13.379261 9.608742-44.638081 12.162965-68.234232l0.608148-5.838223H288.08272l0.608149 5.838223c3.770519 34.42119 8.270816 57.409193 12.162964 68.234232l6.93289 14.595558c11.433187 21.771707 32.475116 52.300748 47.192303 65.071861 1.337926 3.162371 1.946074 6.324742 3.162371 9.000594 2.554223 7.662668 5.108445 14.595558 5.838223 22.258226 0.608148 6.324742 0.608148 12.162965-1.337926 17.879558-9.000594 31.258819-31.258819 40.137784-52.908896 49.138377-5.838223 2.554223-11.433187 4.500297-16.541632 6.93289l-6.324742 3.162371 29.312745 205.310845 5.108445-0.608149c26.150374-2.554223 58.74712-4.500297 95.114384-5.108445l22.866374-0.12163zM264.486569 257.489963c-5.108445 2.554223-12.771113 6.93289-21.041929 21.041929-4.500297 6.93289-5.108445 12.771113-5.716594 16.541632l-0.608148 5.716594h379.971018l-0.608148-5.716594c0-3.770519-1.337926-9.000594-5.108445-16.541632-8.270816-14.109039-16.541632-18.487706-21.041929-21.041929 0-18.487706 0.608148-55.463119-33.204894-89.276161-44.029932-44.638081-93.04668-70.788455-129.413945-70.788455-48.4086 0-97.546977 38.799857-129.413944 70.788455-33.813042 33.813042-33.813042 71.518233-33.813042 89.276161z m0 0" p-id="26923"></path><path d="M234.687305 855.05642v-2.310963c-14.717187-3.892149-44.75971-15.203706-72.612899-31.866968-25.663856-15.446965-57.165934-40.259413-61.787861-71.153343-5.959853-36.975413 8.635705-73.342677 40.137784-99.614682 22.379855-18.609336 79.667419-55.341489 104.601496-67.990972 5.959853-2.919112 13.257632-6.081482 21.041929-9.365483 4.135408-1.702815 8.270816-3.52726 12.284595-5.351705 28.582967-12.406224 43.665043-19.582373 46.584154-24.447559 3.284-7.905927 3.40563-13.62252 0.24326-30.164152l-0.12163-0.486519-0.243259-0.243259c-13.74415-14.473928-46.584155-54.368452-55.09823-79.180901-8.149186-23.839411-17.39304-73.585937-18.001188-96.695569v-1.581185H185.062409l0.486519-4.135408c1.459556-11.554816 6.203112-33.204894 13.257631-45.367859 10.46015-18.487706 26.880152-34.299561 30.285782-35.880746l0.608149-0.243259v-2.189334c0-15.325336 8.514075-67.382825 46.340895-105.209645 45.002969-45.002969 108.250386-77.599715 150.577504-77.599715h2.554222c41.718969 0 104.966386 32.596745 150.577503 77.599715 37.82682 37.82682 46.340896 90.005939 46.340896 105.209645v0.973037l0.608148 0.24326c3.284 1.702815 19.825632 17.514669 30.285782 35.880746 7.176149 12.406224 11.189928 34.177931 13.014373 44.63808l0.851407 4.865186h-67.626084v1.459556c0 23.717781-9.973631 73.099418-18.001188 96.817199-8.514075 24.812448-41.35408 64.706972-54.9766 79.1809l-0.243259 0.24326v0.486518c-3.162371 17.27141-3.52726 22.623114 0.243259 30.164153l0.12163 0.243259c2.067704 5.230075 18.244447 12.162965 46.462525 24.08267 4.257038 1.824445 8.392446 3.648889 12.649483 5.473334 7.541038 3.284 14.595558 6.324742 20.67704 9.243854 24.325929 12.284594 81.613493 48.773489 104.723126 68.112602 31.502079 26.272004 46.097636 62.639268 40.137784 99.614681-4.378667 26.636893-30.042523 56.922675-68.84238 80.762086-23.961041 14.838817-54.976601 27.60993-70.423566 22.866373-31.13719-9.608742-127.46787-16.420002-167.848913-16.420002h-11.433187c-0.973037 0-1.946074 0.12163-3.162371 0.243259-1.581185 0.12163-3.40563 0.364889-5.838223 0.364889-1.824445 0-3.648889-0.12163-5.351704-0.364889-1.337926-0.12163-2.675852-0.243259-3.64889-0.243259h-11.433187c-40.016154 1.216296-147.415132 10.825039-166.997505 17.636299l-5.351705 1.702815z m97.790237-343.238864c3.162371 16.784891 3.40563 24.08267-0.851408 34.29956l-0.12163 0.364889c-3.770519 6.689631-16.420002 13.014372-50.111414 27.60993-4.013778 1.824445-8.270816 3.648889-12.406224 5.351704-7.662668 3.284-14.838817 6.324742-20.555411 9.243854-24.569189 12.527854-81.248604 48.651859-103.26357 67.139565-29.434375 24.569189-43.178525 58.382231-37.583561 92.92505 7.905927 52.300748 102.777052 90.614087 130.751871 97.546977 23.596152-7.297779 132.697945-16.541632 168.213802-17.636298h11.554816c1.459556 0 2.797482 0.12163 4.378668 0.243259 1.459556 0.12163 3.040741 0.243259 4.621926 0.243259 1.946074 0 3.52726-0.12163 4.986816-0.364889 1.337926-0.12163 2.554223-0.243259 3.892148-0.243259h11.433187c40.745932 0 138.292909 6.93289 170.038247 16.663262 11.068298 3.40563 38.07008-5.838223 64.342083-22.014967 36.975413-22.866374 61.422972-51.206081 65.436751-75.77527 5.594964-34.42119-8.149186-68.234232-37.583561-92.803421-22.744744-18.974225-79.30253-55.09823-103.263571-67.139565-5.959853-2.797482-13.014372-5.838223-20.433781-9.000594-4.135408-1.824445-8.392446-3.648889-12.649483-5.473334-34.664449-14.595558-46.949044-20.190521-50.233044-27.974819-4.865186-9.852001-4.135408-16.906521-0.973037-34.29956v-2.432593l2.310963-2.310964c14.838817-15.568595 45.732747-54.003563 53.395415-76.383418 7.784297-22.744744 17.636299-71.761492 17.636299-94.506236v-8.757334H661.850626c-2.067704-10.825039-5.716593-28.461337-11.554816-38.556599-9.608742-17.028151-24.812448-31.623708-27.245041-33.083264l-4.500297-2.310963V246.908184c0-14.473928-8.149186-63.977194-44.151562-100.1012-44.273192-43.665043-105.452904-75.410381-145.347429-75.410381h-2.554222c-40.502673 0-101.682385 31.745338-145.347429 75.410381C245.147455 182.80936 236.998268 232.312626 236.998268 246.908184v6.68963l-4.621926 2.310964c-2.310963 1.337926-17.39304 15.933484-27.123411 32.961634-5.716593 9.852001-9.852001 27.366671-11.676447 38.556598h65.80164v8.757335c0.608148 22.501485 9.730372 71.153344 17.636298 94.506236 7.662668 22.379855 38.556598 60.814824 53.395416 76.505048l2.310963 2.310963v2.310964zM245.025825 822.824563l-3.770519-1.216296c-2.797482-0.486519-28.096449-5.716593-54.246823-19.582373C154.654997 784.876114 135.559143 762.374629 130.207438 735.251217c-6.81126-36.975413 35.394227-68.234232 55.584749-83.316308 10.946668-8.027557 22.258225-15.933484 40.016154-25.177337l10.095261-5.716593 34.786079 195.702102-8.878964 1.094667c-6.93289 1.216296-12.284594 2.310963-14.595558 2.797482l-2.189334 2.189333zM230.551897 632.474166l-1.337926 0.729777c-17.27141 9.000594-27.974819 16.420002-39.043117 24.569189C171.075 671.882171 131.423735 701.438176 137.383587 733.913291c12.284594 62.517639 104.601497 80.397197 105.452905 80.518827h0.243259l0.364889-0.364889 0.851407-0.243259c2.189334-0.729778 8.757335-2.067704 16.420003-3.284001h0.121629l1.216297-0.12163L230.551897 632.474166z m379.606129 190.228768l-3.040741-1.946075c-2.067704-0.608148-7.297779-1.702815-14.838817-2.919111l-8.878964-1.094667L618.063953 621.284238l10.703409 5.351705c15.811854 8.270816 27.4883 15.568595 40.137784 25.298966 17.028151 12.162965 62.639268 44.638081 55.584749 83.316308-12.892743 65.315121-104.844756 85.140753-111.047868 86.35705l-3.284001 1.094667z m-18.122817-12.284595l1.337926 0.12163c8.149186 1.216296 14.230669 2.554223 16.541632 3.284001l0.486518 0.121629 0.973038 0.608148 0.608148-0.121629c3.770519-0.729778 93.411569-19.217484 105.574534-80.640456 5.594964-30.529041-27.4883-58.017342-52.787267-76.01853-12.406224-9.487112-23.717781-16.541632-39.164747-24.690818l-1.946074-0.973037-31.623708 178.309062z m-278.896781 1.581186l-30.164153-211.513957 8.757335-4.378667c3.040741-1.459556 6.081482-2.675852 9.243853-4.013778 2.432593-0.973037 4.865186-1.946074 7.419408-3.040741l0.973038-0.364889c21.406818-8.878964 41.597339-17.27141 49.868155-46.340896v-0.12163c1.824445-5.473334 1.581185-11.068298 1.094667-16.298372-0.608148-6.81126-2.675852-12.892743-5.108445-20.068892l-0.364889-1.216297c-0.729778-1.702815-1.337926-3.40563-1.824445-5.108445-0.364889-0.973037-0.608148-2.067704-0.973037-3.162371-15.082076-13.500891-35.880746-43.665043-47.435563-65.55838l-0.121629-0.121629-7.176149-14.960447c-4.378667-12.406224-8.757335-36.975413-12.406225-69.085639l-0.973037-9.852002h286.802708l-0.973037 9.852002c-1.702815 15.446965-6.324742 53.273785-12.406224 69.207269l-0.121629 0.243259-6.93289 14.595558c-10.825039 20.920299-31.502079 51.327711-46.705785 64.950231-0.364889 0.973037-0.608148 1.824445-0.973037 2.554223-0.851408 2.067704-1.459556 3.770519-1.702815 5.473334l-0.12163 0.364889c-0.486519 1.702815-1.094667 3.284-1.581185 4.865186-1.946074 5.838223-3.648889 10.946668-4.013778 16.663262-0.486519 5.473334-0.12163 10.703409 1.216296 16.663261 8.270816 29.069486 28.582967 37.461931 49.989785 46.340896l0.729778 0.364889c2.310963 0.973037 4.500297 1.824445 6.689631 2.797482 3.40563 1.337926 6.93289 2.675852 10.09526 4.378667l8.757335 4.378667-30.164153 211.513957-8.635705-0.973037c-26.758522-2.554223-58.868749-4.378667-90.978976-4.986816h-26.515263c-34.299561 0.608148-67.017936 2.310963-94.749495 5.108445l-8.514075 0.851408zM290.880202 604.620976l28.461338 199.229363 1.581185-0.12163c27.974819-2.797482 60.936453-4.500297 95.479273-5.108445l22.988003-0.12163c33.448153 0.608148 67.382825 2.310963 95.357644 5.108445l1.581185 0.24326L564.668538 604.499347l-4.013778-2.067704c-2.919112-1.459556-6.081482-2.797482-9.487113-4.135408-2.189334-0.851408-4.500297-1.824445-6.81126-2.797482l-0.729778-0.243259c-22.136596-9.122224-45.002969-18.609336-54.246823-51.206082v-0.243259c-1.459556-6.689631-1.946074-12.771113-1.337926-18.974225 0.486519-6.446371 2.310963-11.919705 4.378668-18.244447 0.486519-1.459556 0.973037-3.040741 1.459555-4.621927 0.486519-2.310963 1.216296-4.378667 2.067704-6.568001 0.364889-0.973037 0.851408-2.067704 1.216297-3.284l0.364889-0.973037 0.729778-0.608149c14.109039-12.284594 35.029338-42.692006 45.732747-63.247416l6.81126-14.352299c5.959853-15.690224 10.581779-55.341489 11.919706-67.261195l0.121629-1.702815H292.096499l0.121629 1.702815c3.40563 31.01556 7.784297 55.463119 11.919706 67.261195l6.81126 14.352299c11.189928 21.163559 31.988597 51.57097 46.340896 63.977194l0.608148 0.608148 0.364889 0.851408c0.608148 1.581185 1.094667 3.040741 1.581185 4.500297 0.486519 1.581185 0.973037 3.040741 1.581186 4.257038l0.243259 0.486518 0.486518 1.337926c2.432593 7.297779 4.743556 14.109039 5.473335 21.771707 0.486519 5.716593 0.729778 12.527854-1.459556 19.217484-9.365483 32.475116-32.110227 41.962228-54.125193 51.084452l-0.851408 0.364889c-2.554223 1.094667-5.108445 2.189334-7.541038 3.162371-3.040741 1.216296-6.081482 2.432593-8.757334 3.770519l-4.013779 1.946074z m330.224492-300.060339H232.98449l1.094667-10.095261c0.12163-0.364889 0.12163-0.851408 0.243259-1.216297 0.608148-3.892149 1.702815-9.730372 6.081483-16.541632 7.905927-13.500891 15.690224-18.730966 20.43378-21.285188 0-19.217484 1.337926-56.192897 34.907709-89.64105 32.718375-32.718375 82.221642-71.761492 131.968167-71.761492 38.313339 0 87.694976 26.880152 131.968168 71.883122 33.569783 33.569783 34.177931 70.910084 34.17793 89.762679 4.986816 2.919112 12.771113 8.149186 20.555411 21.285189l0.121629 0.243259c3.648889 7.297779 5.473334 13.136002 5.473335 18.001188l1.094666 9.365483z m-379.971018-7.297779h371.943462l-0.24326-2.189334c0-3.648889-1.581185-8.635705-4.621926-14.838817-7.662668-13.014372-15.082076-17.028151-19.460744-19.460743l-2.067704-1.094667v-3.162371c0-18.730966 0-53.638674-32.110227-85.748901C512.24616 127.832759 463.594301 101.195866 427.835185 101.195866c-47.313933 0-95.114384 37.94845-126.859722 69.693788-32.840005 32.718375-32.840005 69.207269-32.840005 86.721939v2.189333l-1.946074 0.973038c-4.013778 2.067704-11.433187 5.838223-19.582373 19.582373l-0.12163 0.12163c-3.648889 5.594964-4.378667 10.21689-4.986816 13.865779-0.12163 0.364889-0.12163 0.851408-0.243259 1.216297l-0.12163 1.702815z" p-id="26924"></path><path d="M884.189621 672.36869c-21.285188-17.879558-74.194085-51.57097-96.695569-62.882528-8.878964-4.135408-20.190521-8.878964-30.893931-13.62252-30.89393-13.014372-42.692006-18.487706-45.124599-24.32593-4.135408-8.270816-3.52726-14.230669-0.608148-30.285782v-1.216296l1.216297-1.216297c12.406224-13.014372 42.692006-49.868155 50.476303-72.49127 7.662668-22.501485 16.663262-68.234232 16.663262-89.032901v-4.743557h62.396009c-1.824445-9.487112-5.351704-29.677634-11.798076-40.989191-9.487112-16.663262-24.325929-30.89393-26.758522-32.110227l-2.432593-1.216296v-3.040741c0-13.62252-7.662668-61.179713-42.205488-95.600903-41.597339-40.989191-99.736311-71.274973-137.684761-71.274973h-2.432592c-10.095261 0-21.528448 2.067704-33.691413 5.838223 4.743556 7.419408 10.095261 15.568595 15.446965 24.08267 6.446371-1.337926 13.014372-2.067704 19.460744-2.067704 33.934672 0 79.545789 24.325929 120.413351 65.801639 31.502079 31.502079 30.89393 65.801639 30.89393 83.073049 4.135408 2.432593 11.919705 6.568001 19.582373 19.582373 3.52726 7.05452 4.743556 11.798076 4.743557 15.446966l0.608148 5.351704H608.090322c-0.486519 9.608742-1.581185 24.08267-4.378667 36.732154h145.225799l-0.608149 5.351704c-2.432593 21.893337-6.568001 50.962822-11.311557 63.490676l-6.568001 13.62252c-10.095261 19.582373-29.677634 48.16534-43.300154 59.963416-1.216296 3.52726-2.432593 5.959853-3.040741 8.878965-2.432593 7.662668-4.743556 13.62252-5.351705 20.67704-0.608148 5.959853 0 11.311557 1.216297 16.663261 8.270816 29.069486 29.069486 37.340302 49.260007 45.732748 5.351704 2.432593 10.703409 4.135408 15.446965 6.568001l5.959853 3.040741-6.689631 46.584155s55.706378 77.356456-29.191115 141.45528c0 0-18.974225 17.757928-36.367265 22.258225l-9.730372 4.257038c45.246229 2.432593 111.169498 9.243853 126.616463 14.595557 25.542226-5.959853 117.007721-42.692006 125.278537-93.776458 5.230075-32.840005-7.784297-65.55838-36.367265-89.154531z m8.270816 77.113196c-11.311557 57.652453-91.952013 76.01853-100.952607 77.721345l-1.824445 0.608148-1.824444-1.216296c-1.824445-0.608148-7.05452-1.824445-14.838817-3.040742l-4.743556-0.608148L799.292128 649.137427l5.959852 3.040741c13.62252 7.05452 24.325929 13.62252 36.732154 23.109633 18.487706 13.014372 56.557786 41.597339 50.476303 74.194085zM259.134864 256.516926h333.265234-333.265234z m513.76363 48.895118h-102.290533 102.290533z m0 0" p-id="26925"></path><path d="M795.03509 859.556717l-0.973037-0.364889c-14.717187-5.108445-80.762086-12.041335-125.643426-14.352298l-15.325335-0.851408 24.325929-10.703409c16.298373-4.257038 34.664449-21.163559 34.786079-21.406818l0.243259-0.243259c34.056301-25.785485 49.260007-56.557786 45.00297-91.465495-3.162371-26.150374-16.420002-44.75971-16.541632-45.002969l-0.851408-1.216297 6.568001-45.489488-3.648889-1.824444c-2.675852-1.337926-5.594964-2.554223-8.635705-3.77052-2.189334-0.851408-4.378667-1.824445-6.689631-2.797481l-0.851407-0.364889c-19.582373-8.149186-41.840599-17.39304-50.476304-47.678822v-0.243259c-1.459556-6.568001-1.824445-12.041335-1.216296-17.757929 0.486519-5.959853 2.189334-11.311557 4.135408-16.906521 0.486519-1.337926 0.973037-2.797482 1.337926-4.378667 0.486519-2.067704 1.094667-3.770519 1.824445-5.716594 0.364889-1.094667 0.851408-2.189334 1.216296-3.40563l0.364889-0.973037 0.729778-0.608148c13.257632-11.554816 32.718375-39.772895 42.448747-58.868749l6.446371-13.379262c4.378667-11.798076 8.514075-39.894524 10.946668-62.396009l0.12163-1.337926H599.211358l0.973037-4.378667c2.067704-9.608742 3.52726-21.771707 4.257038-36.124005l0.121629-3.40563h187.066398l-0.12163-1.702815c0-3.40563-1.459556-7.905927-4.378667-13.622521-6.689631-11.189928-13.136002-15.325336-17.27141-17.636299H670.364702v-7.297779h96.573939c0-17.879558-1.337926-48.530229-29.799263-76.991566-39.408006-40.016154-84.532605-64.828602-117.859128-64.828602-6.203112 0-12.406224 0.729778-18.609336 2.067704l-2.554223 0.486518-1.337926-2.189333c-5.351704-8.514075-10.581779-16.541632-15.446965-24.08267l-2.675852-4.013779 4.621926-1.459556c12.892743-4.013778 24.569189-6.081482 34.786079-6.081482h2.432593c38.799857 0 97.790236 30.407412 140.238983 72.248011 35.272598 35.150968 43.178525 83.924457 43.178525 98.155125v0.729778l0.364889 0.243259c3.648889 1.824445 18.974225 17.14978 28.218078 33.569783 6.446371 11.189928 10.095261 30.407412 12.041335 40.624302l1.094667 5.716593h-63.125787v1.094667c0 22.014966-9.243853 67.990973-16.784891 90.249198-7.905927 23.352892-38.556598 60.449935-51.206082 73.829196l-0.243259 0.243259-0.121629 0.364889c-3.040741 16.055113-3.40563 20.79867 0.243259 27.974819l0.121629 0.24326c1.946074 4.743556 16.906521 11.189928 43.178525 22.379855 4.378667 1.946074 8.878964 3.892149 13.257632 5.838223 6.446371 2.797482 12.406224 5.351704 17.757928 7.905927 22.623114 11.311557 76.01853 45.367858 97.546977 63.369046 29.312745 24.447559 43.056895 58.382231 37.583561 93.04668-4.621927 28.826226-34.056301 51.935859-57.895712 66.288158-27.853189 16.784891-57.165934 27.366671-70.180306 30.407412l-0.729778 0.243259z m-109.953201-21.041929c43.178525 2.919112 94.992754 8.757335 110.31809 13.379261 26.028745-6.446371 113.602091-42.083858 121.508017-90.614087 5.108445-32.110227-7.662668-63.490676-35.029338-86.23542-21.163559-17.757928-73.707566-51.206081-96.087421-62.396009-5.108445-2.432593-11.068298-4.986816-17.514669-7.784297-4.378667-1.946074-8.878964-3.892149-13.257632-5.838223C722.66545 585.403492 711.110633 580.173417 708.069892 572.875638c-4.621927-9.122224-4.013778-15.811854-0.973037-32.110226v-2.310964l2.310963-2.310963c13.74415-14.352298 42.448747-50.111415 49.503267-71.031714 7.297779-21.285188 16.420002-66.896306 16.420002-87.938235v-8.392446H836.997318c-1.946074-10.21689-5.230075-26.272004-10.581779-35.515857-9.000594-15.690224-22.988003-29.312745-25.298967-30.650671l-4.378667-2.189333v-5.230075c0-13.500891-7.541038-59.476897-41.110821-92.925051-41.23245-40.624302-98.033496-70.180306-135.130538-70.180306h-2.432593c-8.270816 0-17.636299 1.459556-27.974819 4.378667 3.648889 5.716593 7.541038 11.676446 11.433187 17.879558 5.838223-1.094667 11.798076-1.702815 17.636299-1.702815 35.759116 0 81.735123 25.055707 123.089203 66.896306 31.258819 31.258819 31.988597 66.044898 31.988597 83.559568 4.621927 2.675852 11.919705 7.784297 19.095855 19.825632l0.12163 0.24326c3.52726 6.81126 5.108445 12.284594 5.230074 16.906521l0.973038 9.243853H611.617582c-0.729778 11.311557-1.824445 21.163559-3.40563 29.434374h144.73928l-1.094667 9.487113c-1.216296 11.189928-5.594964 48.895118-11.433187 64.342083l-0.121629 0.24326-6.568001 13.62252c-9.973631 19.460744-29.191115 47.678822-43.543414 60.449935-0.364889 0.973037-0.729778 1.946074-0.973037 2.797482-0.729778 1.824445-1.216296 3.162371-1.581186 4.743556l-0.121629 0.364889c-0.486519 1.581185-0.973037 3.162371-1.459556 4.621926-1.824445 5.473334-3.284 10.21689-3.770519 15.325336-0.486519 4.986816-0.12163 9.730372 1.094667 15.446965 7.662668 26.880152 26.393633 34.664449 46.219266 42.935266l0.851407 0.364889c2.189334 0.973037 4.378667 1.824445 6.568001 2.675852 3.162371 1.337926 6.203112 2.554223 9.122224 4.013778l8.270816 4.135408-6.81126 47.800452c3.162371 4.743556 14.109039 22.744744 17.02815 47.070673 3.162371 25.907115-2.554223 63.855565-47.678822 98.033496-1.581185 1.824445-16.298373 15.203706-31.866967 21.285188z m104.114978-6.689631l-2.797482-1.946074c-1.824445-0.486519-6.689631-1.581185-13.86578-2.675852l-8.514075-1.094667 32.475116-182.444471 10.33852 5.230075c14.473928 7.541038 25.298967 14.230669 37.340301 23.474522 15.933484 11.433187 58.50386 41.718969 51.93586 77.842974-4.986816 25.298967-22.866374 46.219266-53.152156 62.396009-24.2043 12.771113-47.557192 17.636299-50.354674 18.244447l-3.40563 0.973037z m-16.541632-12.041335l0.973037 0.12163c7.905927 1.216296 13.500891 2.432593 15.568595 3.162371l0.486518 0.121629 0.729778 0.486519 0.608149-0.12163c0.851408-0.12163 86.721938-17.028151 98.033495-74.802233 5.108445-28.218078-25.542226-53.760304-49.016748-70.545195-11.798076-9.000594-22.379855-15.568595-36.367264-22.866374l-1.581185-0.729778L772.655235 819.783822zM592.400098 260.165815h-333.265234v-7.297778h333.265234v7.297778z" p-id="26926"></path></svg>