<?xml version="1.0" standalone="no"?><!DOCTYPE svg PUBLIC "-//W3C//DTD SVG 1.1//EN" "http://www.w3.org/Graphics/SVG/1.1/DTD/svg11.dtd"><svg t="1752721891030" class="icon" viewBox="0 0 1024 1024" version="1.1" xmlns="http://www.w3.org/2000/svg" p-id="57869" xmlns:xlink="http://www.w3.org/1999/xlink" width="200" height="200"><path d="M824.915769 1023.99744H201.132221A72.532971 72.532971 0 0 1 128.00192 952.019133V72.023533A72.532971 72.532971 0 0 1 201.132221 0.00256h345.598272a72.788969 72.788969 0 0 1 29.013188 6.186636l1.023995 0.469331h0.426665l1.32266 0.639997c1.237327 0.59733 2.559987 1.279994 4.266645 2.303988A78.890272 78.890272 0 0 1 597.332907 21.335787l278.185275 280.489264A71.423643 71.423643 0 0 1 895.99808 352.512797v599.506336A70.783646 70.783646 0 0 1 824.915769 1023.99744zM200.06556 72.023533v879.9956h623.86888V384.00064H584.532971a72.532971 72.532971 0 0 1-73.044968-71.978307V72.023533z m383.486082 38.399808v201.598992h201.086995zM540.586524 895.99808H256.00128v-42.666453h284.585244v42.666453zM405.333867 815.870481a176.212452 176.212452 0 0 1-69.460986-12.117273 97.748845 97.748845 0 0 1-43.989114-36.351818 103.850147 103.850147 0 0 1-16.725249-54.869059l38.143809-3.327984a84.351578 84.351578 0 0 0 12.799936 37.589146 69.034321 69.034321 0 0 0 30.719846 23.765214 116.863416 116.863416 0 0 0 46.933099 9.045288 113.364767 113.364767 0 0 0 40.874462-6.869299 57.130381 57.130381 0 0 0 26.325202-18.858572 43.946447 43.946447 0 0 0 8.533291-26.154536 39.850467 39.850467 0 0 0-8.533291-25.130541 61.567692 61.567692 0 0 0-27.477196-18.005243A532.69067 532.69067 0 0 0 389.120614 669.865877a275.710621 275.710621 0 0 1-58.922372-19.071904 82.474254 82.474254 0 0 1-32.59717-28.415858 69.844984 69.844984 0 0 1-10.751946-38.01581 77.95161 77.95161 0 0 1 13.141267-43.221117 81.791591 81.791591 0 0 1 38.399808-30.549181 146.175269 146.175269 0 0 1 56.06372-10.410615 153.940564 153.940564 0 0 1 59.733035 10.922612 86.996898 86.996898 0 0 1 39.893134 32.170506 92.927535 92.927535 0 0 1 14.975925 48.12776l-38.74114 2.901318a62.719686 62.719686 0 0 0-21.333227-43.733114 82.64492 82.64492 0 0 0-53.205067-14.805259 85.588905 85.588905 0 0 0-53.418399 13.439932 40.362465 40.362465 0 0 0-16.767917 32.383838 34.986492 34.986492 0 0 0 11.861274 27.093198 162.132523 162.132523 0 0 0 60.927696 21.717225 407.080631 407.080631 0 0 1 67.626328 19.498569 93.183534 93.183534 0 0 1 39.381137 31.146511 76.03162 76.03162 0 0 1 12.799936 43.43445 83.199584 83.199584 0 0 1-13.994597 45.909103 92.074206 92.074206 0 0 1-40.106466 33.578499 140.415298 140.415298 0 0 1-58.751706 11.903941z" opacity=".65" p-id="57870" fill="#2c2c2c"></path></svg>