<svg width="24" height="24" viewBox="0 0 24 24" fill="none" xmlns="http://www.w3.org/2000/svg">
<path d="M6.83607 17.3159C7.01897 16.7971 7.35832 16.3478 7.80734 16.03C8.25635 15.7122 8.79291 15.5415 9.34302 15.5415C9.89312 15.5415 10.4297 15.7122 10.8787 16.03C11.3277 16.3478 11.6671 16.7971 11.85 17.3159H20.3892C20.6491 17.3159 20.8617 17.5285 20.8617 17.7885V18.6154C20.8617 18.7408 20.812 18.861 20.7233 18.9496C20.6347 19.0382 20.5145 19.088 20.3892 19.088H11.85C11.6671 19.6068 11.3277 20.0561 10.8787 20.3739C10.4297 20.6917 9.89312 20.8624 9.34302 20.8624C8.79291 20.8624 8.25635 20.6917 7.80734 20.3739C7.35832 20.0561 7.01897 19.6068 6.83607 19.088H3.61319C3.48786 19.088 3.36766 19.0382 3.27904 18.9496C3.19041 18.861 3.14062 18.7408 3.14062 18.6154V17.7885C3.14062 17.5285 3.35328 17.3159 3.61319 17.3159H6.83607ZM12.1524 11.1135C12.3353 10.5947 12.6747 10.1454 13.1237 9.82759C13.5727 9.50978 14.1092 9.33911 14.6594 9.33911C15.2095 9.33911 15.746 9.50978 16.195 9.82759C16.644 10.1454 16.9834 10.5947 17.1663 11.1135H20.3892C20.6491 11.1135 20.8617 11.3262 20.8617 11.5861V12.413C20.8617 12.5384 20.812 12.6586 20.7233 12.7472C20.6347 12.8358 20.5145 12.8856 20.3892 12.8856H17.1663C16.9829 13.4039 16.6433 13.8526 16.1943 14.1699C15.7454 14.4872 15.2091 14.6576 14.6594 14.6576C14.1096 14.6576 13.5733 14.4872 13.1244 14.1699C12.6754 13.8526 12.3358 13.4039 12.1524 12.8856H3.61319C3.48786 12.8856 3.36766 12.8358 3.27904 12.7472C3.19041 12.6586 3.14062 12.5384 3.14062 12.413V11.5861C3.14062 11.3262 3.35328 11.1135 3.61319 11.1135H12.1524ZM6.83607 4.91111C7.01897 4.39229 7.35832 3.94301 7.80734 3.6252C8.25635 3.30739 8.79291 3.13672 9.34302 3.13672C9.89312 3.13672 10.4297 3.30739 10.8787 3.6252C11.3277 3.94301 11.6671 4.39229 11.85 4.91111H20.3892C20.6491 4.91111 20.8617 5.12376 20.8617 5.38367V6.21065C20.8617 6.33599 20.812 6.45618 20.7233 6.54481C20.6347 6.63343 20.5145 6.68322 20.3892 6.68322H11.85C11.6671 7.20203 11.3277 7.65132 10.8787 7.96912C10.4297 8.28693 9.89312 8.4576 9.34302 8.4576C8.79291 8.4576 8.25635 8.28693 7.80734 7.96912C7.35832 7.65132 7.01897 7.20203 6.83607 6.68322H3.61319C3.48786 6.68322 3.36766 6.63343 3.27904 6.54481C3.19041 6.45618 3.14062 6.33599 3.14062 6.21065V5.38367C3.14062 5.12376 3.35328 4.91111 3.61319 4.91111H6.83607ZM9.34302 6.68322C9.45939 6.68324 9.57462 6.66033 9.68214 6.61581C9.78966 6.57129 9.88735 6.50603 9.96964 6.42375C10.0519 6.34147 10.1172 6.24378 10.1618 6.13627C10.2063 6.02876 10.2292 5.91353 10.2292 5.79716C10.2292 5.68079 10.2063 5.56556 10.1618 5.45805C10.1172 5.35054 10.0519 5.25286 9.96964 5.17058C9.88735 5.0883 9.78966 5.02303 9.68214 4.97851C9.57462 4.93399 9.45939 4.91109 9.34302 4.91111C9.10805 4.91114 8.88271 5.00451 8.71657 5.17067C8.55043 5.33684 8.4571 5.56219 8.4571 5.79716C8.4571 6.03213 8.55043 6.25748 8.71657 6.42365C8.88271 6.58981 9.10805 6.68318 9.34302 6.68322ZM14.6594 12.8856C14.8944 12.8856 15.1197 12.7923 15.2859 12.6261C15.4521 12.4599 15.5454 12.2346 15.5454 11.9996C15.5454 11.7646 15.4521 11.5392 15.2859 11.373C15.1197 11.2068 14.8944 11.1135 14.6594 11.1135C14.4244 11.1135 14.199 11.2068 14.0328 11.373C13.8666 11.5392 13.7733 11.7646 13.7733 11.9996C13.7733 12.2346 13.8666 12.4599 14.0328 12.6261C14.199 12.7923 14.4244 12.8856 14.6594 12.8856ZM9.34302 19.088C9.45939 19.088 9.57462 19.0651 9.68214 19.0206C9.78966 18.9761 9.88735 18.9108 9.96964 18.8285C10.0519 18.7463 10.1172 18.6486 10.1618 18.5411C10.2063 18.4335 10.2292 18.3183 10.2292 18.2019C10.2292 18.0856 10.2063 17.9703 10.1618 17.8628C10.1172 17.7553 10.0519 17.6576 9.96964 17.5754C9.88735 17.4931 9.78966 17.4278 9.68214 17.3833C9.57462 17.3388 9.45939 17.3159 9.34302 17.3159C9.10805 17.3159 8.88271 17.4093 8.71657 17.5755C8.55043 17.7416 8.4571 17.967 8.4571 18.2019C8.4571 18.4369 8.55043 18.6623 8.71657 18.8284C8.88271 18.9946 9.10805 19.088 9.34302 19.088Z" fill="#0779DC"/>
</svg>
