<svg width="24" height="24" viewBox="0 0 24 24" fill="none" xmlns="http://www.w3.org/2000/svg">
<path d="M11.9999 6.16113C12.2041 6.16116 12.4013 6.23614 12.5539 6.37185C12.7065 6.50756 12.804 6.69457 12.8279 6.8974L12.8337 6.99495V16.167C12.8333 16.3794 12.7518 16.5837 12.6058 16.7381C12.4598 16.8925 12.2605 16.9853 12.0484 16.9977C11.8363 17.01 11.6275 16.9409 11.4646 16.8045C11.3017 16.6681 11.197 16.4747 11.1719 16.2637L11.1661 16.167V6.99495C11.1661 6.77381 11.2539 6.56173 11.4103 6.40535C11.5667 6.24898 11.7788 6.16113 11.9999 6.16113ZM7.4139 9.49642C7.61813 9.49645 7.81525 9.57143 7.96787 9.70714C8.12049 9.84285 8.21799 10.0299 8.24188 10.2327L8.24772 10.3302V16.167C8.24728 16.3794 8.16575 16.5837 8.01979 16.7381C7.87383 16.8925 7.67445 16.9853 7.46235 16.9977C7.25026 17.01 7.04145 16.9409 6.87856 16.8045C6.71568 16.6681 6.61101 16.4747 6.58592 16.2637L6.58008 16.167V10.3302C6.58008 10.1091 6.66793 9.89701 6.8243 9.74064C6.98067 9.58427 7.19276 9.49642 7.4139 9.49642ZM16.5859 11.9979C16.7902 11.9979 16.9873 12.0729 17.1399 12.2086C17.2925 12.3443 17.39 12.5313 17.4139 12.7341L17.4198 12.8317V16.167C17.4193 16.3794 17.3378 16.5837 17.1918 16.7381C17.0459 16.8925 16.8465 16.9853 16.6344 16.9977C16.4223 17.01 16.2135 16.9409 16.0506 16.8045C15.8877 16.6681 15.783 16.4747 15.758 16.2637L15.7521 16.167V12.8317C15.7521 12.7222 15.7737 12.6138 15.8156 12.5126C15.8575 12.4115 15.9189 12.3195 15.9963 12.2421C16.0738 12.1647 16.1657 12.1033 16.2668 12.0614C16.368 12.0195 16.4764 11.9979 16.5859 11.9979Z" fill="#0779DC"/>
<rect x="2.79414" y="2.79219" width="18.4117" height="18.4117" rx="2.2" stroke="#0779DC" stroke-width="1.6"/>
</svg>
