<svg width="24" height="24" viewBox="0 0 24 24" fill="none" xmlns="http://www.w3.org/2000/svg">
<path d="M16.5915 4.59513L12.6783 2.33635C12.4963 2.23121 12.2562 2.17871 12.0165 2.17871C11.7763 2.17871 11.5363 2.23121 11.3543 2.33635L7.44134 4.59513C7.07724 4.80539 6.7793 5.31891 6.7793 5.73641V10.2645C6.7793 10.682 7.07724 11.1956 7.44134 11.4057L11.3542 13.6644C11.5362 13.7693 11.7763 13.822 12.0163 13.822C12.2565 13.822 12.4965 13.7693 12.6783 13.6644L16.5913 11.4056C16.9556 11.1954 17.2534 10.682 17.2534 10.2643V5.73628C17.2535 5.31891 16.9556 4.80527 16.5915 4.59513ZM8.84831 5.21277L11.3542 3.76621C11.5362 3.6612 11.7763 3.60857 12.0163 3.60857C12.2562 3.60857 12.4962 3.6612 12.6783 3.76621L15.1842 5.21277C15.3266 5.31221 15.3167 5.45972 15.1559 5.55056L14.7299 5.79043L14.728 5.79132L14.704 5.80523L14.6663 5.82636L14.6671 5.82649L12.6213 7.00737C12.4548 7.10339 12.2355 7.15147 12.0163 7.15147C11.797 7.15147 11.5776 7.10339 11.4112 7.00737L9.36549 5.82649L9.36613 5.82636L9.32868 5.80523L9.30451 5.79132L9.30249 5.79056L8.87664 5.55056C8.71585 5.45972 8.70598 5.31221 8.84831 5.21277ZM11.4506 11.4574L11.4423 11.9386C11.4393 12.1093 11.3301 12.1896 11.1894 12.139L8.67991 10.6907C8.31581 10.4804 8.01787 9.96691 8.01787 9.54941V7.0333L8.02356 6.70652C8.02647 6.53231 8.14046 6.45222 8.28582 6.50979L8.75861 6.78242L8.87045 6.84821L8.86994 6.84657L10.7559 7.93421L11.172 8.18407C11.3195 8.27263 11.441 8.47986 11.4507 8.65395V11.4574H11.4506ZM16.0148 9.54928C16.0148 9.96678 15.717 10.4804 15.3529 10.6906L12.8434 12.139C12.7026 12.1896 12.5932 12.1093 12.5903 11.9386L12.5821 11.4574V8.65382C12.592 8.47986 12.7134 8.27251 12.8608 8.18395L13.2773 7.93408L15.1629 6.84644L15.1622 6.84796L15.2743 6.7823L15.747 6.50953C15.8921 6.4521 16.0063 6.53218 16.0092 6.70639L16.0148 7.03318V9.54928Z" fill="white"/>
<path d="M11.9564 12.595L8.04375 10.3363C7.86157 10.2312 7.62157 10.1787 7.3817 10.1787C7.14158 10.1787 6.90171 10.2312 6.71953 10.3363L2.80658 12.5951C2.4426 12.8054 2.14453 13.319 2.14453 13.7364V18.2645C2.14453 18.682 2.44247 19.1956 2.80658 19.4057L6.71953 21.6647C6.90171 21.7695 7.14158 21.822 7.3817 21.822C7.62157 21.822 7.86169 21.7695 8.04375 21.6647L11.9566 19.4057C12.3208 19.1956 12.6187 18.6818 12.6187 18.2645V13.7364C12.6187 13.3189 12.3207 12.8054 11.9564 12.595ZM4.21354 13.213L6.7194 11.7662C6.90158 11.6612 7.14145 11.6088 7.38145 11.6088C7.62145 11.6088 7.86144 11.6612 8.04362 11.7662L10.5494 13.213C10.6917 13.3123 10.6822 13.4597 10.521 13.5506L10.0952 13.7906L10.0931 13.7912L10.069 13.8052L10.0314 13.8265H10.0322L7.98644 15.0072C7.8202 15.1035 7.60082 15.1513 7.38132 15.1513C7.16207 15.1513 6.9427 15.1035 6.77646 15.0072L4.73073 13.8265H4.73136L4.69391 13.8052L4.66975 13.7912L4.66772 13.7906L4.24188 13.5506C4.08095 13.4597 4.07134 13.3123 4.21354 13.213ZM6.8158 19.4575L6.80771 19.939C6.80467 20.1095 6.69549 20.1898 6.55468 20.1393L4.04528 18.6908C3.68117 18.4808 3.3831 17.9673 3.3831 17.5495V15.0333L3.3888 14.7066C3.39183 14.5323 3.50569 14.4524 3.65119 14.5098L4.12384 14.7823L4.23581 14.8482L4.2353 14.8464L6.12112 15.934L6.53735 16.1838C6.68486 16.2725 6.80619 16.4799 6.81593 16.6537V19.4575H6.8158ZM11.38 17.5495C11.38 17.967 11.0821 18.4807 10.718 18.6908L8.20847 20.1393C8.06766 20.1898 7.95848 20.1095 7.95544 19.9388L7.94722 19.4575V16.6538C7.95709 16.48 8.07854 16.2726 8.22593 16.1839L8.64216 15.9341L10.528 14.8466C10.5277 14.8471 10.5276 14.8477 10.5276 14.8483L10.6394 14.7824L11.1121 14.5099C11.2573 14.4525 11.3714 14.5324 11.3744 14.7068L11.38 15.0334V17.5495Z" fill="white"/>
<path d="M21.1945 12.5912L17.2816 10.3326C17.0997 10.2274 16.8599 10.1748 16.6196 10.1748C16.3796 10.1748 16.1397 10.2274 15.9579 10.3326L12.0447 12.5912C11.6806 12.8014 11.3828 13.3151 11.3828 13.7325V18.2604C11.3828 18.6781 11.6806 19.1917 12.0447 19.4018L15.9579 21.6606C16.1399 21.7656 16.3796 21.8183 16.6196 21.8183C16.8599 21.8183 17.0998 21.7656 17.2816 21.6606L21.1945 19.4018C21.5588 19.1916 21.8566 18.6779 21.8566 18.2604V13.7325C21.8566 13.3151 21.5588 12.8014 21.1945 12.5912ZM13.4517 13.2089L15.9578 11.7624C16.1397 11.6573 16.3796 11.6048 16.6196 11.6048C16.8597 11.6048 17.0997 11.6573 17.2816 11.7624L19.7878 13.2089C19.93 13.3084 19.9202 13.4558 19.7592 13.5467L19.3333 13.7868L19.3312 13.7874L19.3074 13.8015L19.2697 13.8225H19.2706L17.2247 15.0035C17.0584 15.0995 16.8391 15.1476 16.6196 15.1476C16.4002 15.1476 16.1811 15.0995 16.0149 15.0035L13.9689 13.8225H13.9696L13.9321 13.8015L13.9079 13.7874L13.9061 13.7868L13.4803 13.5467C13.3192 13.4558 13.3095 13.3084 13.4517 13.2089ZM16.0541 19.4537L16.0457 19.9351C16.0428 20.1055 15.9338 20.186 15.7928 20.1355L13.2833 18.6869C12.9191 18.4768 12.6215 17.9631 12.6215 17.5456V15.0294L12.6268 14.7026C12.6297 14.5284 12.744 14.4482 12.8893 14.506L13.3619 14.7784L13.4738 14.8442L13.4735 14.8428L15.3593 15.93L15.7754 16.18C15.9226 16.2687 16.0442 16.4758 16.0541 16.65V19.4537ZM20.6181 17.5456C20.6181 17.963 20.3203 18.4766 19.956 18.6869L17.4468 20.1355C17.3059 20.186 17.1966 20.1055 17.1938 19.9348L17.1858 19.4537V16.65C17.1952 16.4758 17.3166 16.2687 17.4643 16.18L17.8802 15.93L19.7663 14.8428C19.7661 14.8433 19.7659 14.8437 19.7656 14.8442L19.8775 14.7784L20.3504 14.506C20.4956 14.4482 20.6096 14.5284 20.6126 14.7026L20.6183 15.0294V17.5456H20.6181Z" fill="white"/>
</svg>
