<svg width="24" height="24" viewBox="0 0 24 24" fill="none" xmlns="http://www.w3.org/2000/svg">
<path d="M11.8937 16.0459C11.3072 16.0459 10.8379 16.5152 10.8379 17.1017C10.8379 17.6883 11.3072 18.1576 11.8937 18.1576C12.4803 18.1576 12.9496 17.6883 12.9496 17.1017C12.9496 16.5152 12.4803 16.0459 11.8937 16.0459Z" fill="white"/>
<path d="M21.7486 19.7999C22.4525 18.6267 22.4525 17.3363 21.7486 16.1631L15.1789 4.66612C14.475 3.49296 13.3018 2.78906 12.0114 2.78906C10.7209 2.78906 9.54773 3.49296 8.84383 4.66612L2.15683 16.1631C1.45293 17.3363 1.45293 18.744 2.15683 19.7999C2.86073 20.973 4.03389 21.5596 5.32436 21.5596H18.5811C19.8715 21.6769 21.0447 20.973 21.7486 19.7999ZM20.2235 18.9787C19.8715 19.5652 19.1676 20.0345 18.4638 20.0345H5.20703C4.50313 20.0345 3.79924 19.6826 3.4473 19.096C3.09536 18.5094 3.09536 17.6882 3.4473 17.1016L10.1343 5.60466C10.4862 5.01809 11.1901 4.54882 11.894 4.54882C12.5979 4.54882 13.3018 4.90076 13.6538 5.60466L20.2235 17.1016C20.6928 17.5709 20.6928 18.3921 20.2235 18.9787Z" fill="white"/>
<path d="M11.6591 8.65523C11.1898 8.77254 10.8379 9.2418 10.8379 9.8284C10.8379 10.1803 10.8379 10.5323 10.9552 10.8842C11.0725 12.1747 11.0725 13.3479 11.1898 14.6383C11.1898 15.1076 11.5418 15.3422 12.011 15.3422C12.4803 15.3422 12.8322 14.9903 12.8322 14.521V13.6998C12.8322 12.8786 12.9495 12.0574 12.9495 11.2362C12.9495 10.6496 13.0668 10.1804 13.0668 9.59376C13.0668 9.35913 13.0668 9.24183 12.9495 9.00719C12.7149 8.77254 12.1284 8.53791 11.6591 8.65523Z" fill="white"/>
</svg>
