<svg width="24" height="24" viewBox="0 0 24 24" fill="none" xmlns="http://www.w3.org/2000/svg">
<path d="M14.9375 14.4785H11.4062V13.3691H14.9375C15.3145 13.3691 15.6191 13.0645 15.6191 12.6875C15.6191 12.3105 15.3145 12.0059 14.9375 12.0059H11.6465L14.1074 9.54492C14.373 9.2793 14.373 8.84375 14.1074 8.57812C13.8418 8.3125 13.4062 8.3125 13.1406 8.57812L10.7246 10.9941L8.30664 8.57812C8.04102 8.3125 7.60547 8.3125 7.33984 8.57812C7.07422 8.84375 7.07422 9.2793 7.33984 9.54492L9.80078 12.0059H6.50977C6.13281 12.0059 5.82812 12.3105 5.82812 12.6875C5.82812 13.0645 6.13281 13.3691 6.50977 13.3691H10.041V14.4785H6.50977C6.13281 14.4785 5.82812 14.7832 5.82812 15.1602C5.82812 15.5371 6.13281 15.8418 6.50977 15.8418H10.041V17.4844C10.041 17.8613 10.3457 18.166 10.7227 18.166C11.0996 18.166 11.4043 17.8613 11.4043 17.4844V15.8418H14.9355C15.3125 15.8418 15.6172 15.5371 15.6172 15.1602C15.623 14.7871 15.3145 14.4785 14.9375 14.4785Z" fill="#0779DC"/>
<path d="M20.4375 2H6.11523C5.25586 2 4.55273 2.70312 4.55273 3.5625V4.55273H3.5625C2.70312 4.55273 2 5.25586 2 6.11523V20.4375C2 21.2969 2.70312 22 3.5625 22H17.8848C18.7441 22 19.4473 21.2969 19.4473 20.4375V19.4473H20.4375C21.2969 19.4473 22 18.7441 22 17.8848V3.5625C22 2.70312 21.2969 2 20.4375 2ZM17.8848 20.4375H3.5625V6.11523H17.8848V20.4375ZM20.4375 17.8848H19.4473V6.11523C19.4473 5.25586 18.7441 4.55273 17.8848 4.55273H6.11523V3.5625H20.4375V17.8848Z" fill="#0779DC"/>
</svg>
