<svg width="24" height="24" viewBox="0 0 24 24" fill="none" xmlns="http://www.w3.org/2000/svg">
<path d="M22.4944 11.6192L17.5659 2.85023C17.5017 2.73587 17.4093 2.64083 17.2982 2.57457C17.187 2.50832 17.0609 2.47318 16.9324 2.47266H7.07546C6.94696 2.47318 6.82085 2.50832 6.70969 2.57457C6.59854 2.64083 6.50623 2.73587 6.44198 2.85023L1.5135 11.6192C1.44838 11.7337 1.41406 11.8641 1.41406 11.9967C1.41406 12.1294 1.44838 12.2597 1.5135 12.3743L6.43565 21.1433C6.49958 21.2584 6.59165 21.3544 6.70275 21.4217C6.81386 21.4891 6.94014 21.5255 7.06913 21.5273H16.9261C17.0551 21.5255 17.1814 21.4891 17.2925 21.4217C17.4036 21.3544 17.4956 21.2584 17.5596 21.1433L22.488 12.3743C22.5511 12.2593 22.5848 12.1296 22.5859 11.9976C22.587 11.8655 22.5555 11.7353 22.4944 11.6192ZM20.2519 12.3743L16.3876 19.2554C16.3234 19.3697 16.2311 19.4648 16.1199 19.531C16.0088 19.5973 15.8826 19.6324 15.7541 19.6329H8.01935C7.89111 19.6311 7.76548 19.5955 7.65453 19.5293C7.54359 19.4632 7.45107 19.3689 7.38587 19.2554L3.5153 12.3743C3.45319 12.2587 3.42061 12.1288 3.42061 11.9967C3.42061 11.8647 3.45319 11.7348 3.5153 11.6192L7.37953 4.73813C7.44473 4.62463 7.53726 4.53028 7.6482 4.46416C7.75914 4.39803 7.88477 4.36235 8.01301 4.36055H15.7415C15.87 4.36107 15.9961 4.39621 16.1072 4.46246C16.2184 4.52872 16.3107 4.62377 16.375 4.73813L20.2392 11.6192C20.3062 11.7326 20.3428 11.8623 20.345 11.995C20.3472 12.1277 20.3151 12.2586 20.2519 12.3743Z" fill="white"/>
<path d="M7.69821 10.7133C7.64884 10.6127 7.57859 10.5231 7.49187 10.4502C7.40516 10.3773 7.30387 10.3226 7.19437 10.2897C7.08488 10.2568 6.96956 10.2462 6.85567 10.2588C6.74178 10.2713 6.6318 10.3067 6.53265 10.3626C6.4335 10.4185 6.34733 10.4938 6.27956 10.5837C6.2118 10.6736 6.16391 10.7762 6.13891 10.885C6.11391 10.9937 6.11235 11.1064 6.13431 11.2158C6.15628 11.3252 6.2013 11.429 6.26654 11.5207L9.1359 16.3535C9.24518 16.5405 9.42636 16.6776 9.63957 16.7346C9.85278 16.7917 10.0806 16.764 10.2728 16.6577C10.4651 16.5514 10.606 16.3752 10.6647 16.1678C10.7233 15.9604 10.6949 15.7389 10.5856 15.5519L7.69821 10.7133ZM14.9468 6.44799C14.8375 6.26333 14.6573 6.12847 14.4458 6.07306C14.2342 6.01764 14.0087 6.04623 13.8189 6.15252C13.629 6.25882 13.4904 6.43411 13.4334 6.63985C13.3764 6.84558 13.4058 7.0649 13.5151 7.24956L16.3845 12.0882C16.5034 12.2515 16.6807 12.3656 16.8817 12.4081C17.0827 12.4507 17.2928 12.4186 17.4707 12.3181C17.6486 12.2177 17.7814 12.0561 17.8431 11.8653C17.9048 11.6744 17.8909 11.468 17.8041 11.2866L14.9468 6.44799ZM12.2218 10.684C12.0333 10.6828 11.8487 10.7362 11.6915 10.8374C11.5343 10.9385 11.4116 11.0828 11.3389 11.252C11.2662 11.4211 11.2469 11.6075 11.2833 11.7873C11.3198 11.9672 11.4105 12.1325 11.5437 12.2621C11.677 12.3917 11.8469 12.4799 12.0319 12.5154C12.2168 12.5509 12.4084 12.5321 12.5823 12.4614C12.7562 12.3907 12.9046 12.2713 13.0086 12.1184C13.1125 11.9654 13.1674 11.7859 13.1662 11.6026C13.1662 11.359 13.0667 11.1253 12.8896 10.9531C12.7125 10.7808 12.4723 10.684 12.2218 10.684Z" fill="white"/>
</svg>
