<svg width="24" height="24" viewBox="0 0 24 24" fill="none" xmlns="http://www.w3.org/2000/svg">
<path d="M20.2145 2.91602H10.9445C9.85208 2.91602 8.96115 3.80695 8.96115 4.8994V5.84336H6.94595C6.22473 5.84336 5.54592 6.16155 5.07924 6.72368L2.36403 10.0116C2.00341 10.4465 1.8125 10.9874 1.8125 11.5496V17.3724C1.8125 18.5073 2.73525 19.4407 3.88073 19.4407H5.27016C5.31258 19.4407 5.3444 19.4194 5.37622 19.4194C5.6732 20.3846 6.55352 21.0846 7.61415 21.0846C8.66418 21.0846 9.5445 20.3846 9.84148 19.4407H14.5083C14.5189 19.4407 14.5295 19.43 14.5507 19.43C14.8477 20.3846 15.728 21.0846 16.7886 21.0846C17.8386 21.0846 18.719 20.3952 19.0159 19.4407H20.119C21.2539 19.4407 22.1872 18.5179 22.1872 17.3724V4.88879C22.1872 3.79634 21.3069 2.91602 20.2145 2.91602ZM10.3824 4.88879C10.3824 4.58121 10.637 4.32666 10.9445 4.32666H20.2145C20.522 4.32666 20.7766 4.58121 20.7766 4.88879V12.0162H10.9445C10.637 12.0162 10.3824 11.7617 10.3824 11.4541V4.88879ZM7.61415 19.6528C7.09444 19.6528 6.6808 19.2285 6.6808 18.7194C6.6808 18.1997 7.10505 17.7861 7.61415 17.7861C8.12326 17.7861 8.54751 18.2103 8.54751 18.7194C8.55811 19.2285 8.13386 19.6528 7.61415 19.6528ZM16.7886 19.6528C16.2689 19.6528 15.8553 19.2285 15.8553 18.7194C15.8553 18.1997 16.2795 17.7861 16.7886 17.7861C17.3083 17.7861 17.722 18.2103 17.722 18.7194C17.722 19.2285 17.3083 19.6528 16.7886 19.6528ZM20.1296 18.0088H19.0265C18.7296 17.0542 17.8492 16.3648 16.7992 16.3648C15.7492 16.3648 14.8689 17.0648 14.5613 18.0194C14.5507 18.0194 14.5401 18.0088 14.5189 18.0088H9.86269H9.85208C9.55511 17.0542 8.67478 16.3648 7.62476 16.3648C6.56413 16.3648 5.6838 17.0648 5.38683 18.03C5.3444 18.0194 5.31258 18.0088 5.28076 18.0088H3.87012C3.50951 18.0088 3.22314 17.7118 3.22314 17.3618V11.5389C3.22314 11.3056 3.30799 11.0829 3.45648 10.9026L6.17169 7.61461C6.36261 7.38127 6.64898 7.254 6.94595 7.254H8.97176V11.4541C8.97176 12.5465 9.86269 13.4375 10.9551 13.4375H20.7872V17.3618C20.7766 17.7224 20.4796 18.0088 20.1296 18.0088ZM6.97777 9.83133C7.28536 10.0753 7.33839 10.5101 7.10505 10.8283L5.97017 12.3026C5.83229 12.4829 5.62017 12.5784 5.40804 12.5784C5.25955 12.5784 5.10046 12.5253 4.97318 12.4299C4.6656 12.1859 4.61257 11.7511 4.84591 11.4329L5.98078 9.95861C6.22473 9.65102 6.67019 9.59799 6.97777 9.83133Z" fill="#0779DC"/>
</svg>
