<svg width="24" height="24" viewBox="0 0 24 24" fill="none" xmlns="http://www.w3.org/2000/svg">
<path d="M6.02385 17.1213C6.02385 16.8949 6.11381 16.6777 6.27393 16.5176C6.43406 16.3575 6.65124 16.2675 6.87769 16.2675H17.1238C17.3502 16.2675 17.5674 16.3575 17.7275 16.5176C17.8877 16.6777 17.9776 16.8949 17.9776 17.1213C17.9776 17.3478 17.8877 17.565 17.7275 17.7251C17.5674 17.8852 17.3502 17.9752 17.1238 17.9752H6.87769C6.65124 17.9752 6.43406 17.8852 6.27393 17.7251C6.11381 17.565 6.02385 17.3478 6.02385 17.1213Z" fill="#0779DC"/>
<path d="M17.6745 7.07676C17.7603 7.1491 17.831 7.23764 17.8825 7.33732C17.934 7.43699 17.9654 7.54585 17.9749 7.65766C17.9843 7.76947 17.9716 7.88204 17.9375 7.98895C17.9034 8.09585 17.8486 8.19498 17.7761 8.28068L14.1712 12.5499C14.0962 12.6387 14.0038 12.7112 13.8997 12.763C13.7957 12.8149 13.6821 12.8449 13.566 12.8513C13.45 12.8577 13.3338 12.8403 13.2247 12.8002C13.1156 12.7601 13.0158 12.6982 12.9314 12.6182L9.7927 9.64511L7.53002 12.3245C7.45837 12.4123 7.36996 12.4849 7.26994 12.5382C7.16992 12.5915 7.06029 12.6243 6.94745 12.6348C6.83461 12.6453 6.72081 12.6332 6.61268 12.5993C6.50456 12.5653 6.40428 12.5102 6.31769 12.4371C6.23109 12.364 6.15992 12.2743 6.10831 12.1734C6.0567 12.0725 6.0257 11.9624 6.01711 11.8494C6.00851 11.7364 6.0225 11.6228 6.05825 11.5153C6.09401 11.4077 6.15081 11.3084 6.22536 11.223L9.07121 7.85205C9.14625 7.76326 9.23863 7.69073 9.34269 7.6389C9.44675 7.58707 9.5603 7.55704 9.67637 7.55065C9.79245 7.54425 9.90861 7.56163 10.0177 7.60171C10.1269 7.64179 10.2266 7.70373 10.311 7.78374L13.4497 10.7568L16.4714 7.17837C16.5438 7.09259 16.6323 7.02191 16.732 6.97038C16.8317 6.91884 16.9405 6.88746 17.0523 6.87802C17.1642 6.86859 17.2767 6.88128 17.3836 6.91538C17.4905 6.94948 17.5888 7.00432 17.6745 7.07676Z" fill="#0779DC"/>
<rect x="3.45761" y="2.60312" width="17.0854" height="18.7938" rx="2.33533" stroke="#0779DC" stroke-width="1.69842"/>
</svg>
