<svg width="24" height="24" viewBox="0 0 24 24" fill="none" xmlns="http://www.w3.org/2000/svg">
<path d="M12 2.5879C14.2143 2.58457 16.3582 3.36514 18.052 4.79132L19.1565 3.71429C19.3151 3.55744 19.5287 3.46874 19.7517 3.46708C19.9748 3.46542 20.1897 3.55095 20.3506 3.70543C20.5115 3.8599 20.6057 4.07112 20.6132 4.29406C20.6206 4.517 20.5407 4.73403 20.3904 4.89891L20.3513 4.93971L19.2572 6.00618C20.6531 7.69135 21.4154 9.81178 21.4121 12C21.4121 17.1982 17.1982 21.4121 12 21.4121C6.80181 21.4121 2.58789 17.1982 2.58789 12C2.58789 6.80182 6.80181 2.5879 12 2.5879ZM12 4.29904C7.74698 4.29904 4.29903 7.74699 4.29903 12C4.29903 16.253 7.74698 19.701 12 19.701C16.253 19.701 19.701 16.253 19.701 12C19.7037 10.2581 19.1133 8.56723 18.0269 7.20563L14.9283 10.2278C15.2525 10.7621 15.4235 11.3753 15.4226 12.0003C15.4226 13.8906 13.8901 15.4228 12 15.4228C10.1096 15.4228 8.57744 13.8904 8.57744 12.0003C8.57744 10.1099 10.1099 8.57773 12 8.57773C12.6204 8.57773 13.202 8.74268 13.7037 9.03149L16.8195 5.99362C15.4539 4.89451 13.753 4.29644 12 4.29904ZM12 10.2886C11.7752 10.2886 11.5527 10.3328 11.345 10.4188C11.1373 10.5048 10.9487 10.6309 10.7897 10.7898C10.6308 10.9487 10.5047 11.1374 10.4187 11.345C10.3327 11.5527 10.2884 11.7752 10.2884 12C10.2884 12.2248 10.3327 12.4473 10.4187 12.655C10.5047 12.8626 10.6308 13.0513 10.7897 13.2102C10.9487 13.3692 11.1373 13.4952 11.345 13.5812C11.5527 13.6672 11.7752 13.7115 12 13.7114C12.4539 13.7114 12.8891 13.531 13.21 13.2101C13.5309 12.8892 13.7112 12.4539 13.7112 12C13.7112 11.5461 13.5309 11.1109 13.21 10.7899C12.8891 10.469 12.4539 10.2886 12 10.2886Z" fill="white"/>
</svg>
