<svg width="24" height="24" viewBox="0 0 24 24" fill="none" xmlns="http://www.w3.org/2000/svg">
<path d="M20.2868 3.71484C20.8361 3.71484 21.363 3.93309 21.7515 4.32156C22.14 4.71004 22.3582 5.23692 22.3582 5.78631V18.2151C22.3582 18.7645 22.14 19.2914 21.7515 19.6799C21.363 20.0683 20.8361 20.2866 20.2868 20.2866H3.71502C3.16563 20.2866 2.63875 20.0683 2.25027 19.6799C1.8618 19.2914 1.64355 18.7645 1.64355 18.2151V5.78631C1.64355 5.23692 1.8618 4.71004 2.25027 4.32156C2.63875 3.93309 3.16563 3.71484 3.71502 3.71484H20.2868ZM20.8046 9.39895H3.19715V18.2151C3.19715 18.2831 3.21055 18.3505 3.23657 18.4133C3.2626 18.4761 3.30075 18.5332 3.34883 18.5813C3.39692 18.6294 3.45401 18.6675 3.51684 18.6936C3.57967 18.7196 3.64701 18.733 3.71502 18.733H20.2868C20.3548 18.733 20.4221 18.7196 20.4849 18.6936C20.5478 18.6675 20.6049 18.6294 20.6529 18.5813C20.701 18.5332 20.7392 18.4761 20.7652 18.4133C20.7912 18.3505 20.8046 18.2831 20.8046 18.2151V9.39895ZM20.2868 5.26844H3.71502C3.64701 5.26844 3.57967 5.28184 3.51684 5.30786C3.45401 5.33389 3.39692 5.37203 3.34883 5.42012C3.30075 5.46821 3.2626 5.5253 3.23657 5.58813C3.21055 5.65096 3.19715 5.7183 3.19715 5.78631V7.84535H20.8046V5.78631C20.8046 5.7183 20.7912 5.65096 20.7652 5.58813C20.7392 5.5253 20.701 5.46821 20.6529 5.42012C20.6049 5.37203 20.5478 5.33389 20.4849 5.30786C20.4221 5.28184 20.3548 5.26844 20.2868 5.26844Z" fill="white"/>
<path d="M15.6612 11.4166C15.7374 11.3463 15.8269 11.292 15.9245 11.2568C16.022 11.2217 16.1256 11.2064 16.2291 11.2119C16.3327 11.2174 16.4341 11.2436 16.5273 11.289C16.6206 11.3343 16.7038 11.3978 16.7721 11.4758C16.8404 11.5538 16.8924 11.6447 16.9251 11.7431C16.9577 11.8415 16.9703 11.9454 16.9622 12.0488C16.954 12.1522 16.9252 12.2529 16.8775 12.3449C16.8298 12.437 16.7642 12.5186 16.6845 12.5849L13.395 15.4642C13.2532 15.5887 13.071 15.6574 12.8823 15.6574C12.6936 15.6574 12.5114 15.5887 12.3696 15.4642L9.83103 13.227L7.36184 15.6165C7.22805 15.7457 7.05234 15.8226 6.86665 15.8332C6.68095 15.8439 6.4976 15.7875 6.34993 15.6745L6.26396 15.5978C6.12094 15.4497 6.04256 15.2509 6.04606 15.045C6.04955 14.8392 6.13463 14.6431 6.2826 14.4999L9.26759 11.6133C9.40791 11.4776 9.59421 11.3996 9.7894 11.395C9.98459 11.3904 10.1744 11.4595 10.3209 11.5885L12.8844 13.8464L15.6601 11.4166H15.6612Z" fill="white"/>
</svg>
