<svg width="24" height="24" viewBox="0 0 24 24" fill="none" xmlns="http://www.w3.org/2000/svg">
<path d="M22.1796 9.97131C22.0581 9.3296 21.6663 8.91498 21.1813 8.91498C21.1751 8.91498 21.1688 8.91504 21.1654 8.91516H21.0761C19.6735 8.91516 18.5324 7.77407 18.5324 6.37147C18.5324 5.9163 18.7519 5.406 18.7538 5.4016C19.0052 4.8358 18.8118 4.14197 18.3045 3.788L18.2738 3.76638L15.6959 2.33433L15.6633 2.32003C15.4954 2.24704 15.3116 2.21002 15.117 2.21002C14.7183 2.21002 14.3261 2.37007 14.0682 2.63788C13.7854 2.92973 12.8095 3.7628 12.0596 3.7628C11.3029 3.7628 10.3212 2.91336 10.0372 2.61611C9.77791 2.34283 9.38261 2.17969 8.97984 2.17969C8.78907 2.17969 8.60861 2.2154 8.44357 2.28579L8.41008 2.3L5.74126 3.76599L5.70975 3.78785C5.20075 4.1415 5.00629 4.83471 5.25738 5.40021C5.25959 5.40529 5.47948 5.91281 5.47948 6.37141C5.47948 7.77401 4.3384 8.9151 2.9358 8.9151H2.84792C2.84181 8.91498 2.83572 8.91489 2.82967 8.91489C2.34516 8.91489 1.95364 9.32954 1.83223 9.97137C1.82337 10.0184 1.61523 11.1341 1.61523 12.0068C1.61523 12.8794 1.82337 13.995 1.83226 14.0422C1.95376 14.6839 2.34551 15.0986 2.83035 15.0986C2.83649 15.0986 2.84284 15.0985 2.8465 15.0984H2.9358C4.3384 15.0984 5.47948 16.2394 5.47948 17.642C5.47948 18.0977 5.25998 18.6074 5.25803 18.6119C5.00688 19.1772 5.19969 19.871 5.70676 20.226L5.73686 20.2469L8.2656 21.661L8.29774 21.6752C8.46558 21.7489 8.64884 21.7863 8.84242 21.7863C9.24679 21.7863 9.64179 21.6193 9.89905 21.3395C10.2582 20.9493 11.2326 20.1434 11.9523 20.1434C12.7315 20.1434 13.7308 21.0468 14.0192 21.363C14.277 21.6474 14.6747 21.8173 15.0831 21.8175H15.0832C15.273 21.8175 15.453 21.7813 15.6183 21.7101L15.6511 21.6959L18.2723 20.2472L18.3033 20.2255C18.8114 19.8715 19.0053 19.1782 18.7548 18.614C18.7526 18.6089 18.5324 18.0946 18.5324 17.642C18.5324 16.2395 19.6735 15.0984 21.0761 15.0984L21.1627 15.0984C21.1685 15.0985 21.1742 15.0985 21.18 15.0985C21.6658 15.0985 22.0581 14.6839 22.1794 14.0425C22.1815 14.0312 22.3966 12.9012 22.3966 12.0067C22.3966 11.1301 22.1884 10.0183 22.1796 9.97131ZM8.85562 20.3178L6.64358 19.0809C6.74106 18.8306 6.93968 18.2462 6.93968 17.6421C6.93968 15.544 5.32514 13.8095 3.24576 13.6499C3.19498 13.354 3.07555 12.5956 3.07555 12.0068C3.07555 11.4188 3.19492 10.6597 3.24567 10.3636C5.32514 10.2041 6.93968 8.46958 6.93968 6.37144C6.93968 5.76887 6.74212 5.18614 6.64485 4.9357L8.99871 3.64287C8.99877 3.64287 8.9988 3.6429 8.99886 3.6429C9.0837 3.72957 9.42317 4.06641 9.89187 4.40041C10.6577 4.94634 11.387 5.22315 12.0595 5.22315C12.7254 5.22315 13.4489 4.95171 14.21 4.41634C14.6757 4.08874 15.0136 3.7584 15.0982 3.67318C15.0984 3.67315 15.0985 3.67309 15.0987 3.67306L17.3678 4.93372C17.2704 5.18413 17.0721 5.76807 17.0721 6.37147C17.0721 8.46961 18.6866 10.2042 20.7661 10.3636C20.8168 10.6602 20.9362 11.4206 20.9362 12.0068C20.9362 12.5954 20.8169 13.3541 20.7661 13.6501C18.6867 13.8095 17.0721 15.544 17.0721 17.6422C17.0721 18.2454 17.27 18.8286 17.3674 19.0789L15.0699 20.3486C14.9707 20.2433 14.6363 19.9005 14.1734 19.5567C13.3927 18.977 12.6454 18.683 11.9523 18.683C11.2658 18.683 10.5241 18.9715 9.74789 19.5403C9.29166 19.8748 8.95496 20.2143 8.85562 20.3178ZM15.6414 11.9933C15.6414 9.96396 13.9903 8.31296 11.9609 8.31296C9.93151 8.31296 8.28052 9.96396 8.28052 11.9933C8.28052 14.0227 9.93151 15.6737 11.9609 15.6737C13.9903 15.6737 15.6414 14.0227 15.6414 11.9933ZM11.9609 9.77331C13.1851 9.77331 14.181 10.7692 14.181 11.9933C14.181 13.2175 13.1851 14.2135 11.9609 14.2135C10.7368 14.2135 9.74086 13.2175 9.74086 11.9933C9.74086 10.7692 10.7368 9.77331 11.9609 9.77331Z" fill="#0779DC"/>
</svg>
