<svg width="24" height="24" viewBox="0 0 24 24" fill="none" xmlns="http://www.w3.org/2000/svg">
<path d="M3.31209 4.27205C3.83396 3.74988 4.54185 3.45637 5.28009 3.45605H18.7201C19.4585 3.45605 20.1666 3.74937 20.6887 4.27147C21.2108 4.79357 21.5041 5.50169 21.5041 6.24005V17.7601C21.5041 18.4984 21.2108 19.2065 20.6887 19.7286C20.1666 20.2507 19.4585 20.5441 18.7201 20.5441H5.28009C4.54173 20.5441 3.83361 20.2507 3.31151 19.7286C2.78941 19.2065 2.49609 18.4984 2.49609 17.7601V6.24005C2.4964 5.50181 2.78992 4.79392 3.31209 4.27205ZM5.28009 5.18405C5.00003 5.18405 4.73143 5.29531 4.53339 5.49335C4.33535 5.69139 4.22409 5.95999 4.22409 6.24005V17.7601C4.22409 18.0401 4.33535 18.3087 4.53339 18.5068C4.73143 18.7048 5.00003 18.8161 5.28009 18.8161H18.7201C19.0002 18.8161 19.2688 18.7048 19.4668 18.5068C19.6648 18.3087 19.7761 18.0401 19.7761 17.7601V6.24005C19.7761 5.95999 19.6648 5.69139 19.4668 5.49335C19.2688 5.29531 19.0002 5.18405 18.7201 5.18405H5.28009ZM7.54953 8.50949C7.71153 8.3477 7.93113 8.25681 8.16009 8.25681C8.38905 8.25681 8.60865 8.3477 8.77065 8.50949L11.6507 11.3895C11.7309 11.4697 11.7946 11.565 11.838 11.6698C11.8815 11.7747 11.9038 11.887 11.9038 12.0005C11.9038 12.114 11.8815 12.2264 11.838 12.3312C11.7946 12.4361 11.7309 12.5313 11.6507 12.6116L8.77065 15.4916C8.69105 15.5746 8.59567 15.6409 8.49011 15.6866C8.38455 15.7322 8.27093 15.7564 8.15592 15.7576C8.0409 15.7588 7.92681 15.737 7.82033 15.6935C7.71385 15.65 7.61712 15.5857 7.53582 15.5043C7.45452 15.423 7.39029 15.3262 7.34688 15.2197C7.30348 15.1131 7.28178 14.999 7.28305 14.884C7.28433 14.769 7.30856 14.6554 7.35432 14.5499C7.40008 14.4444 7.46645 14.349 7.54953 14.2695L9.81801 12.001L7.54953 9.73158C7.46927 9.65134 7.40561 9.55608 7.36217 9.45124C7.31873 9.3464 7.29637 9.23402 7.29637 9.12053C7.29637 9.00705 7.31873 8.89468 7.36217 8.78983C7.40561 8.68499 7.46927 8.58973 7.54953 8.50949ZM12.0961 14.881C12.0961 14.7676 12.1184 14.6552 12.1619 14.5504C12.2053 14.4456 12.2689 14.3503 12.3492 14.2701C12.4294 14.1898 12.5246 14.1262 12.6295 14.0828C12.7343 14.0394 12.8466 14.017 12.9601 14.017H15.8401C15.9536 14.017 16.0659 14.0394 16.1707 14.0828C16.2756 14.1262 16.3708 14.1898 16.451 14.2701C16.5313 14.3503 16.5949 14.4456 16.6383 14.5504C16.6817 14.6552 16.7041 14.7676 16.7041 14.881C16.7041 14.9945 16.6817 15.1068 16.6383 15.2117C16.5949 15.3165 16.5313 15.4117 16.451 15.492C16.3708 15.5722 16.2756 15.6358 16.1707 15.6792C16.0659 15.7227 15.9536 15.745 15.8401 15.745H12.9601C12.8466 15.745 12.7343 15.7227 12.6295 15.6792C12.5246 15.6358 12.4294 15.5722 12.3492 15.492C12.2689 15.4117 12.2053 15.3165 12.1619 15.2117C12.1184 15.1068 12.0961 14.9945 12.0961 14.881Z" fill="#0779DC"/>
</svg>
