<svg width="24" height="24" viewBox="0 0 24 24" fill="none" xmlns="http://www.w3.org/2000/svg">
<path d="M8 22H3C2.73478 22 2.48043 21.8946 2.29289 21.7071C2.10536 21.5196 2 21.2652 2 21V9.5C2 9.23478 2.10536 8.98043 2.29289 8.79289C2.48043 8.60536 2.73478 8.5 3 8.5H8V3C8 2.73478 8.10536 2.48043 8.29289 2.29289C8.48043 2.10536 8.73478 2 9 2H15C15.2652 2 15.5196 2.10536 15.7071 2.29289C15.8946 2.48043 16 2.73478 16 3V12.5H21C21.2523 12.4999 21.4953 12.5952 21.6803 12.7667C21.8653 12.9383 21.9786 13.1734 21.9975 13.425L22 13.5V21C22.0001 21.2523 21.9048 21.4953 21.7333 21.6803C21.5617 21.8653 21.3266 21.9786 21.075 21.9975L21 22H8ZM8 10H3.5V20.5H8V10ZM20.5 14H16V20.5H20.5V14ZM14.5 3.5H9.5V20.5H14.5V3.5Z" fill="#0779DC"/>
</svg>
