<svg width="24" height="24" viewBox="0 0 24 24" fill="none" xmlns="http://www.w3.org/2000/svg">
<path d="M12.5037 1.91208C12.2108 1.66602 11.789 1.66602 11.496 1.91208C11.1953 2.16595 4.16504 8.1612 4.16504 14.4337C4.16114 18.7573 7.67626 22.2725 11.9999 22.2725C16.3196 22.2725 19.8347 18.7574 19.8347 14.4376C19.8347 8.1651 12.8005 2.16595 12.5037 1.91208ZM11.9999 20.7102C8.53942 20.7102 5.72732 17.8942 5.72732 14.4376C5.72732 9.79378 10.4298 5.02492 11.9999 3.56419C13.57 5.02883 18.2724 9.79768 18.2724 14.4376C18.2724 17.8942 15.4564 20.7102 11.9999 20.7102Z" fill="white"/>
<path d="M14.0777 13.1488L11.7499 13.1449L13.2341 11.6607C13.5387 11.3561 13.5387 10.86 13.2341 10.5554C12.9294 10.2507 12.4334 10.2507 12.1288 10.5554L9.31275 13.3675C9.09013 13.5901 9.02373 13.926 9.14481 14.2189C9.26588 14.5119 9.551 14.6993 9.86345 14.7032L12.1912 14.7071L10.7071 16.1913C10.5979 16.3006 10.5236 16.4398 10.4933 16.5913C10.4631 16.7428 10.4784 16.8999 10.5373 17.0427C10.5962 17.1855 10.696 17.3077 10.8242 17.3939C10.9525 17.4801 11.1033 17.5264 11.2578 17.5271C11.457 17.5271 11.6562 17.4489 11.8085 17.2966L14.6206 14.4845C14.8432 14.2619 14.9096 13.926 14.7885 13.6331C14.6675 13.3401 14.3941 13.1488 14.0777 13.1488Z" fill="white"/>
</svg>
