<svg width="24" height="24" viewBox="0 0 24 24" fill="none" xmlns="http://www.w3.org/2000/svg">
<path d="M19.1379 2.57422H4.86211C4.25602 2.57648 3.6754 2.81825 3.24682 3.24682C2.81825 3.6754 2.57648 4.25602 2.57422 4.86211V15.3504C2.57648 15.9565 2.81825 16.5372 3.24682 16.9657C3.6754 17.3943 4.25602 17.6361 4.86211 17.6383H19.1379C19.744 17.6361 20.3246 17.3943 20.7532 16.9657C21.1818 16.5372 21.4235 15.9565 21.4258 15.3504V4.86211C21.4235 4.25602 21.1818 3.6754 20.7532 3.24682C20.3246 2.81825 19.744 2.57648 19.1379 2.57422ZM19.9348 15.3504C19.9348 15.5618 19.8508 15.7645 19.7014 15.9139C19.5519 16.0634 19.3492 16.1473 19.1379 16.1473H4.86211C4.65076 16.1473 4.44806 16.0634 4.29861 15.9139C4.14917 15.7645 4.06521 15.5618 4.06521 15.3504V11.6658H6.73013L7.95548 13.7138C8.02014 13.8224 8.11163 13.9125 8.22118 13.9755C8.33072 14.0386 8.45464 14.0724 8.58101 14.0737H8.57244C8.69705 14.0734 8.81959 14.0418 8.92886 13.982C9.03813 13.9221 9.13066 13.8358 9.19797 13.7309L13.2425 7.48419L16.3444 11.3573C16.4149 11.4437 16.5038 11.5131 16.6046 11.5606C16.7055 11.6081 16.8157 11.6323 16.9271 11.6315H19.9091V15.359L19.9348 15.3504ZM19.9348 10.132H17.3127L13.7909 5.73614C13.7169 5.64458 13.6226 5.5714 13.5156 5.52234C13.4086 5.47328 13.2916 5.44967 13.1739 5.45337C13.0549 5.45778 12.9387 5.49133 12.8356 5.55109C12.7325 5.61085 12.6457 5.69499 12.5827 5.79612L8.62386 11.9057L7.76697 10.5347C7.69956 10.4248 7.60508 10.334 7.49257 10.271C7.38005 10.208 7.25326 10.1749 7.1243 10.1748H4.06521V4.86211C4.06521 4.65076 4.14917 4.44806 4.29861 4.29861C4.44806 4.14917 4.65076 4.06521 4.86211 4.06521H19.1379C19.3492 4.06521 19.5519 4.14917 19.7014 4.29861C19.8508 4.44806 19.9348 4.65076 19.9348 4.86211V10.132ZM16.4473 19.9348H7.55274C7.45523 19.9359 7.35891 19.9564 7.26937 19.995C7.17982 20.0336 7.09882 20.0896 7.03107 20.1597C6.96332 20.2298 6.91017 20.3127 6.87469 20.4036C6.83921 20.4944 6.82211 20.5914 6.82439 20.6889C6.82656 20.8822 6.90373 21.067 7.03962 21.2045C7.17551 21.342 7.35949 21.4214 7.55274 21.4258H16.4473C16.645 21.4258 16.8346 21.3472 16.9744 21.2074C17.1142 21.0676 17.1927 20.878 17.1927 20.6803C17.1927 20.4826 17.1142 20.293 16.9744 20.1531C16.8346 20.0133 16.645 19.9348 16.4473 19.9348Z" fill="white"/>
</svg>
