<svg width="24" height="24" viewBox="0 0 24 24" fill="none" xmlns="http://www.w3.org/2000/svg">
<path d="M6.0391 19.3083H17.996V13.2818C17.996 9.95367 15.3194 7.25391 12.0172 7.25391C8.71498 7.25391 6.03705 9.95163 6.03705 13.2811L6.0391 19.3077V19.3083ZM7.74752 13.2818C7.73992 12.5237 7.93232 11.777 8.30533 11.117C8.67834 10.457 9.21876 9.90702 9.87212 9.52248C10.5228 9.14087 11.2635 8.93971 12.0179 8.93971C12.7722 8.93971 13.5129 9.14087 14.1636 9.52248C14.8171 9.90693 15.3577 10.4569 15.7308 11.1169C16.1039 11.7769 16.2964 12.5237 16.2889 13.2818V17.587H7.74683V13.2818H7.74752ZM11.994 5.54891C12.4661 5.54891 12.8482 5.24052 12.8482 4.85981V2.79457C12.8482 2.41386 12.4648 2.10547 11.994 2.10547C11.5232 2.10547 11.1398 2.41386 11.1398 2.79457V4.86049C11.1398 5.24052 11.5225 5.54959 11.994 5.54959V5.54891ZM18.5077 7.93278L19.9568 6.47134C20.2236 6.20253 20.1697 5.71197 19.8361 5.37561C19.5024 5.03925 19.016 4.98467 18.7485 5.25348L17.3 6.71492C17.0333 6.98373 17.0872 7.47429 17.4208 7.81065C17.7544 8.14769 18.2416 8.20159 18.5084 7.93278H18.5077ZM6.11756 20.1694C5.96545 20.1667 5.81539 20.2048 5.68295 20.2796C5.5505 20.3545 5.4405 20.4634 5.36433 20.5951C5.28752 20.7273 5.24706 20.8775 5.24706 21.0304C5.24706 21.1833 5.28752 21.3335 5.36433 21.4657C5.52057 21.7345 5.80849 21.8976 6.11756 21.8914H17.9189C18.071 21.8941 18.221 21.856 18.3535 21.7812C18.4859 21.7063 18.5959 21.5974 18.6721 21.4657C18.7489 21.3335 18.7894 21.1833 18.7894 21.0304C18.7894 20.8775 18.7489 20.7273 18.6721 20.5951C18.5959 20.4634 18.4859 20.3545 18.3535 20.2796C18.221 20.2048 18.071 20.1667 17.9189 20.1694H6.11756ZM21.5506 12.4167H19.4997C19.1224 12.4167 18.8161 12.8015 18.8161 13.2777C18.8161 13.7533 19.1224 14.1381 19.4997 14.1381H21.5493C21.9265 14.1381 22.2329 13.7533 22.2329 13.2777C22.2329 12.8022 21.9265 12.4181 21.5493 12.4181L21.5513 12.4167H21.5506ZM5.48441 7.93892C5.75118 8.20773 6.23764 8.15383 6.57196 7.81747C6.90627 7.48111 6.95949 6.99056 6.69272 6.72106L5.24289 5.26099C4.97612 4.99217 4.48897 5.04675 4.15534 5.38312C3.82102 5.7188 3.76781 6.21003 4.03458 6.47885L5.48305 7.93892H5.48441ZM5.18216 13.288C5.18216 12.8124 4.87582 12.4269 4.49852 12.4269H2.44829C2.07031 12.4256 1.76465 12.8104 1.76465 13.288C1.76465 13.7649 2.07031 14.149 2.44829 14.149H4.49784C4.87514 14.1476 5.18148 13.7621 5.18148 13.288H5.18216Z" fill="#0779DC"/>
</svg>
