<svg width="24" height="24" viewBox="0 0 24 24" fill="none" xmlns="http://www.w3.org/2000/svg">
<path d="M16.7354 9.08652C16.3229 9.08652 15.9924 8.75605 15.9924 8.34355C15.9924 7.27012 15.1252 6.40293 14.0518 6.40293C12.9783 6.40293 12.1111 7.27012 12.1111 8.34355C12.1111 8.75605 11.7807 9.08652 11.3682 9.08652C10.9604 9.08652 10.6322 8.75605 10.6322 8.34355C10.6322 6.45918 12.1674 4.92402 14.0518 4.92402C15.9361 4.92402 17.4713 6.45918 17.4713 8.34355C17.4713 8.74902 17.1408 9.08652 16.7354 9.08652Z" fill="#0779DC"/>
<path d="M19.4119 9.08652C18.9994 9.08652 18.6689 8.75605 18.6689 8.34355C18.6689 5.79121 16.5971 3.71934 14.0447 3.71934C11.4924 3.71934 9.42051 5.79121 9.42051 8.34355C9.42051 8.75605 9.09004 9.08652 8.67754 9.08652C8.26504 9.08652 7.93457 8.75605 7.93457 8.34355C7.93457 4.98027 10.6721 2.2334 14.0447 2.2334C17.4174 2.2334 20.1549 4.9709 20.1549 8.34355C20.1549 8.74902 19.8244 9.08652 19.4119 9.08652Z" fill="#0779DC"/>
<path d="M4.5666 21.7615C3.2002 21.6912 2.11035 20.5779 2.11035 19.2232V14.4467C2.11035 13.0451 3.2752 11.9037 4.70723 11.9037H13.3416V8.10449C13.3416 7.84902 13.5455 7.6498 13.8057 7.6498H14.4104C14.6658 7.6498 14.8744 7.85371 14.8744 8.10449V11.9084H19.2947C20.7268 11.9084 21.8916 13.0498 21.8916 14.4514V19.2256C21.8916 20.6271 20.7268 21.7686 19.2947 21.7686H4.5666V21.7615ZM4.70723 13.4178C4.12363 13.4178 3.6502 13.8795 3.6502 14.449V19.2232C3.6502 19.7928 4.12363 20.2545 4.70723 20.2545H19.2994C19.8643 20.2545 20.3377 19.8045 20.3564 19.249V14.4467C20.3564 13.8795 19.883 13.4154 19.2994 13.4154L4.70723 13.4178Z" fill="#0779DC"/>
<path d="M10.7752 18.0584C10.4377 18.0584 10.1213 17.9271 9.88691 17.6928C9.65254 17.4514 9.52129 17.142 9.52129 16.8045C9.52129 16.1178 10.0838 15.5529 10.7729 15.5529C11.4666 15.5529 12.0338 16.1154 12.0338 16.8045C12.0338 17.135 11.9096 17.4514 11.6682 17.6928C11.4221 17.9295 11.1127 18.0584 10.7752 18.0584ZM6.52363 18.0584C5.82988 18.0584 5.2627 17.4936 5.2627 16.7975C5.2627 16.1014 5.8252 15.5365 6.52363 15.5365C7.21973 15.5365 7.78457 16.099 7.78457 16.7975C7.78457 17.4959 7.21738 18.0584 6.52363 18.0584Z" fill="#0779DC"/>
</svg>
