<svg width="24" height="24" viewBox="0 0 24 24" fill="none" xmlns="http://www.w3.org/2000/svg">
<path d="M12.0031 2.1377C14.8407 2.1377 17.1416 4.4504 17.1416 7.30327C17.1416 9.31293 16.0003 11.0545 14.333 11.9085C14.3532 12.2799 14.4364 12.6342 14.5721 12.9613L18.3652 12.9608C19.9867 12.9608 21.3012 14.2822 21.3012 15.9126V17.3885C21.3012 18.2036 20.6439 18.8643 19.8332 18.8643H4.17309C3.97979 18.8638 3.78849 18.8252 3.6101 18.7508C3.43171 18.6763 3.26974 18.5675 3.13342 18.4304C2.9971 18.2934 2.88912 18.1308 2.81562 17.952C2.74213 17.7733 2.70457 17.5817 2.70508 17.3885V15.9126C2.70508 14.2822 4.0196 12.9608 5.6411 12.9608L9.4346 12.9613C9.57343 12.6265 9.65428 12.2705 9.6737 11.9085C8.82681 11.474 8.11637 10.814 7.62069 10.0014C7.12502 9.18883 6.86338 8.25512 6.8646 7.30327C6.8646 4.4504 9.1655 2.1377 12.0031 2.1377ZM12.0031 3.71197C10.0368 3.71197 8.43888 5.31822 8.43888 7.30327C8.43765 7.94276 8.60706 8.57099 8.92963 9.12316C9.2522 9.67532 9.71624 10.1314 10.2739 10.4444L10.392 10.5074L11.3016 10.9738L11.2455 11.9946C11.2199 12.4669 11.1243 12.9328 10.9616 13.377L10.8888 13.5649L10.4854 14.5356L5.6411 14.5351C4.9189 14.5351 4.32462 15.1053 4.28181 15.8284L4.27935 15.9126V17.2901H19.7264L19.7269 15.9126C19.7269 15.1781 19.1597 14.5808 18.4478 14.5375L18.3652 14.5351L13.5208 14.5356L13.1174 13.5644C12.9366 13.128 12.8217 12.6671 12.7765 12.1968L12.7612 11.9936L12.7061 10.9733L13.6153 10.5074C14.2042 10.205 14.6982 9.74571 15.0427 9.18031C15.3871 8.61491 15.5687 7.96534 15.5674 7.30327C15.5674 5.31822 13.9695 3.71197 12.0031 3.71197ZM20.4107 20.291C20.6129 20.2916 20.8071 20.3699 20.9531 20.5098C21.0991 20.6497 21.1857 20.8404 21.1949 21.0424C21.204 21.2444 21.1351 21.4422 21.0024 21.5948C20.8697 21.7473 20.6834 21.843 20.4821 21.8618L20.4107 21.8653H3.59061C3.38837 21.8648 3.19406 21.7866 3.04797 21.6467C2.90188 21.5069 2.81524 21.3161 2.806 21.1141C2.79676 20.9121 2.86564 20.7142 2.99835 20.5616C3.13107 20.409 3.31743 20.3133 3.51878 20.2945L3.59061 20.291H20.4107Z" fill="#0779DC"/>
</svg>
