<svg width="22" height="22" viewBox="0 0 22 22" fill="none" xmlns="http://www.w3.org/2000/svg">
<path d="M8.75 21.5C9.7165 21.5 10.5 20.7165 10.5 19.75C10.5 18.7835 9.7165 18 8.75 18C7.7835 18 7 18.7835 7 19.75C7 20.7165 7.7835 21.5 8.75 21.5Z" fill="#CCC"/>
<path d="M17.25 21.5C18.2165 21.5 19 20.7165 19 19.75C19 18.7835 18.2165 18 17.25 18C16.2835 18 15.5 18.7835 15.5 19.75C15.5 20.7165 16.2835 21.5 17.25 21.5Z" fill="#CCC"/>
<path d="M1 2L5.5 5L8 16H18L20.5 7.5H11" stroke="#CCC" stroke-width="2" stroke-linecap="round" stroke-linejoin="round"/>
<path d="M11 12H14.6364H19" stroke="#CCC" stroke-width="2" stroke-linecap="round" stroke-linejoin="round"/>
</svg>
