<?xml version="1.0" standalone="no"?><!DOCTYPE svg PUBLIC "-//W3C//DTD SVG 1.1//EN" "http://www.w3.org/Graphics/SVG/1.1/DTD/svg11.dtd"><svg t="1715762337125" class="icon" viewBox="0 0 1024 1024" version="1.1" xmlns="http://www.w3.org/2000/svg" p-id="4546" width="256" height="256" xmlns:xlink="http://www.w3.org/1999/xlink"><path d="M981.296397 127.99953h-42.499844V42.299845c0-23.399914-18.99993-42.299845-42.399844-42.299845S853.996864 18.99993 853.996864 42.299845V127.99953H170.199375V42.299845c0-23.399914-18.99993-42.299845-42.399844-42.299845S85.399686 18.99993 85.399686 42.299845V127.99953H42.699843C19.09993 127.99953 0 147.09946 0 170.699373s19.09993 42.699843 42.699843 42.699843h42.699843v128.899527c0 11.199959 4.499983 21.999919 12.399955 29.89989 7.899971 7.899971 18.699931 12.399954 29.99989 12.399955h85.499686V741.997275c0 11.499958 4.499983 22.499917 12.399954 30.499888L463.798297 1011.996284c7.699972 7.699972 17.899934 12.099956 28.599895 11.999956 6.999974 0 13.69995-1.799993 19.599928-5.099981 5.899978 3.299988 12.699953 5.199981 19.699928 5.099981 10.599961 0 20.799924-4.199985 28.499895-11.799957l237.899126-235.399135c8.09997-7.999971 12.699953-19.09993 12.699954-30.699888V384.498588h85.599686c11.199959 0 22.099919-4.399984 29.999889-12.399954 7.999971-7.899971 12.399954-18.699931 12.399955-29.899891V213.399216h42.499844c23.599913 0 42.699843-19.09993 42.699843-42.699843s-19.09993-42.699843-42.699843-42.699843zM512.09812 941.696542L298.698903 725.397336V554.697963h426.698433v170.699373L512.09812 941.696542z m213.299216-472.298266H298.698903v-84.799688h426.698433v84.799688zM853.996864 300.098898h-75.499723c-3.399988-0.899997-6.899975-1.399995-10.499961-1.399995-3.599987 0-7.099974 0.499998-10.399962 1.399995H266.499021c-3.399988-0.899997-6.899975-1.399995-10.499961-1.399995-3.599987 0-7.099974 0.499998-10.499961 1.399995h-75.299724v-86.699682H853.996864v86.699682z" fill="#ccc" p-id="4547"></path></svg>