<?xml version="1.0" standalone="no"?><!DOCTYPE svg PUBLIC "-//W3C//DTD SVG 1.1//EN" "http://www.w3.org/Graphics/SVG/1.1/DTD/svg11.dtd"><svg t="1718176839737" class="icon" viewBox="0 0 1024 1024" version="1.1" xmlns="http://www.w3.org/2000/svg" p-id="19366" xmlns:xlink="http://www.w3.org/1999/xlink" width="32" height="32"><path d="M468.504 734.453h-216.24c-23.613 0-43.497-19.884-43.497-43.496v-1.864c0-23.613 19.884-43.497 43.497-43.497H476.58c7.457-28.583 19.263-55.924 34.176-80.779H252.264c-23.613 0-43.497-19.263-43.497-43.496v-1.864c0-23.613 19.884-43.497 43.497-43.497h343.622c46.603-32.312 103.77-50.953 164.665-50.953 26.098 0 52.196 3.728 76.43 9.942V246.671L597.75 14.897H213.737c-74.565 0-134.839 60.895-134.839 134.84V773.6c0 74.566 60.895 134.84 134.84 134.84h324.98c-43.496-66.488-66.487-123.034-70.215-173.987z m54.06-616.407c0-7.456 6.213-13.049 13.048-13.049l214.376 214.376c0 7.456-6.214 13.049-13.049 13.049H535.612c-7.456 0-13.049-6.214-13.049-13.05V118.047z m-270.3 192.006h81.4c23.613 0 43.497 19.263 43.497 43.497 0 23.612-19.263 43.496-43.497 43.496h-81.4c-23.613 0-43.497-19.263-43.497-43.496 0.622-24.234 19.884-43.497 43.497-43.497z" p-id="19367" fill="#ccc"></path><path d="M760.551 524.428c-106.877 0-193.87 86.993-193.87 193.87 0 42.875 28.584 102.527 83.886 177.092 41.633 55.303 82.644 99.421 87.615 103.77a30.08 30.08 0 0 0 22.37 9.943h0.62c8.7 0 16.778-3.729 22.37-10.564l55.924-63.38c37.283-45.361 65.867-86.993 85.13-121.79 19.883-36.662 29.825-68.352 29.825-94.45 0-107.498-86.993-194.491-193.87-194.491z m0 283.97c-50.331 0-90.72-40.39-90.72-90.722s40.389-90.721 90.72-90.721 90.722 40.39 90.722 90.721-40.39 90.721-90.722 90.721z" p-id="19368" fill="#ccc"></path></svg>