<?xml version="1.0" standalone="no"?><!DOCTYPE svg PUBLIC "-//W3C//DTD SVG 1.1//EN" "http://www.w3.org/Graphics/SVG/1.1/DTD/svg11.dtd"><svg t="1715762455328" class="icon" viewBox="0 0 1102 1024" version="1.1" xmlns="http://www.w3.org/2000/svg" p-id="5681" width="275.5" height="256" xmlns:xlink="http://www.w3.org/1999/xlink"><path d="M551.384615 630.153846m-157.538461 0a157.538462 157.538462 0 1 0 315.076923 0 157.538462 157.538462 0 1 0-315.076923 0Z" fill="#ccc" p-id="5682"></path><path d="M0 0h1102.769231v157.538462H0zM945.230769 393.846154v78.769231A393.846154 393.846154 0 0 1 157.538462 472.615385V393.846154h787.692307m157.538462-157.538462H0v236.307693a551.384615 551.384615 0 0 0 1102.769231 0V236.307692z" fill="#ccc" p-id="5683"></path><path d="M827.076923 512m-39.384615 0a39.384615 39.384615 0 1 0 78.76923 0 39.384615 39.384615 0 1 0-78.76923 0Z" fill="#ccc" p-id="5684"></path></svg>