<?xml version="1.0" standalone="no"?><!DOCTYPE svg PUBLIC "-//W3C//DTD SVG 1.1//EN" "http://www.w3.org/Graphics/SVG/1.1/DTD/svg11.dtd"><svg t="1718176612811" class="icon" viewBox="0 0 1024 1024" version="1.1" xmlns="http://www.w3.org/2000/svg" p-id="16056" xmlns:xlink="http://www.w3.org/1999/xlink" width="32" height="32"><path d="M847.906237 545.393466a425.608739 425.608739 0 0 1-723.242342 353.869534 425.608739 425.608739 0 0 1 353.869534-723.242341l-2.486374 2.486374-36.198681 36.198681 20.03725 46.948593 3.437046 8.263538a330.322109 330.322109 0 0 0-271.014774 561.628026 330.687752 330.687752 0 0 0 467.072683 0 329.883337 329.883337 0 0 0 94.628472-270.941646l8.263538 3.437047 46.948592 20.03725 36.198682-36.198682 2.486374-2.486374z m-353.211376-191.231417l-79.710228 79.052069a164.831976 164.831976 0 0 0-106.329056 281.325914 164.831976 164.831976 0 0 0 233.35352 0c29.690232-29.25146 45.559149-67.644001 47.972394-106.255927l79.417713-79.417713a253.610156 253.610156 0 1 1-174.704343-174.704343z m-111.886834 219.605333l204.028932-204.028931-56.528446-138.140019L761.906945 0l77.662626 184.284196L1023.926896 262.093079 792.328463 493.618383l-138.140018-56.601575-204.028932 204.028932a47.533622 47.533622 0 0 1-67.278357 0 47.533622 47.533622 0 0 1 0-67.278358z" fill="#ccc" p-id="16057"></path></svg>