<svg width="44" height="44" viewBox="0 0 44 44" fill="none" xmlns="http://www.w3.org/2000/svg">
<g clip-path="url(#clip0_132_285)">
<path fill-rule="evenodd" clip-rule="evenodd" d="M0 38V8H4.17424L9.7541 23.8848H9.83928L15.3765 8H19.2534H19.5934H21.9785C27.0899 8 29.6455 10.9354 29.6455 16.8062C29.6455 18.5758 29.3615 20.0787 28.7936 21.3146C28.2541 22.5506 27.2886 23.5478 25.8972 24.3062L29.9015 36.0095V8H36.4185C37.6111 8 38.6618 8.15449 39.5704 8.46348C40.4791 8.77247 41.3026 9.32022 42.0409 10.1067C42.7792 10.8933 43.2903 11.8202 43.5743 12.8876C43.8583 13.927 44.0002 15.3455 44.0002 17.1433C44.0002 18.4916 43.9151 19.6292 43.7447 20.5562C43.6027 21.4831 43.2761 22.3539 42.765 23.1685C42.1687 24.1517 41.3736 24.9242 40.3797 25.486C39.3859 26.0197 38.0796 26.2865 36.461 26.2865H34.2461V38H30.5826H29.9015H25.9824L21.9359 25.191H19.5934V38H19.3377H19.2534H15.2488V19.7556H15.1636L10.8615 32.6489H8.68924L4.42981 19.7556H4.34462V38H0ZM19.5934 21.3989H21.8082C22.5749 21.3989 23.1854 21.3006 23.6397 21.1039C24.0941 20.8792 24.449 20.5702 24.7046 20.177C24.9317 19.7837 25.0879 19.3062 25.1731 18.7444C25.2583 18.1545 25.3009 17.4803 25.3009 16.7219C25.3009 15.9635 25.2583 15.3034 25.1731 14.7416C25.0879 14.1517 24.9175 13.6461 24.662 13.2247C24.1224 12.4382 23.1002 12.0449 21.5952 12.0449H19.5934V21.3989ZM34.2461 12.0449V22.2416H36.3333C37.2135 22.2416 37.8951 22.1152 38.3778 21.8624C38.8605 21.6096 39.2155 21.2584 39.4426 20.809C39.6698 20.3876 39.7976 19.868 39.826 19.25C39.8828 18.632 39.9112 17.9438 39.9112 17.1854C39.9112 16.4831 39.897 15.823 39.8686 15.2051C39.8402 14.559 39.7124 13.9972 39.4852 13.5197C39.2581 13.0421 38.9173 12.677 38.463 12.4242C38.0086 12.1713 37.3555 12.0449 36.5036 12.0449H34.2461Z" fill="white"/>
</g>
<defs>
<clipPath id="clip0_132_285">
<rect width="44" height="44" fill="white"/>
</clipPath>
</defs>
</svg>
