<svg width="22" height="22" viewBox="0 0 22 22" fill="none" xmlns="http://www.w3.org/2000/svg">
<path d="M8.90123 14.8522L11.8642 15.8399C11.8642 15.8399 19.2716 14.3584 20.2593 14.3584C21.2469 14.3584 21.2469 15.3461 20.2593 16.3337C19.2716 17.3214 15.8148 20.2843 12.8519 20.2843C9.88889 20.2843 7.91358 18.8028 5.93827 18.8028C3.96296 18.8028 1 18.8028 1 18.8028" stroke="#CCC" stroke-width="2" stroke-linecap="round" stroke-linejoin="round"/>
<path d="M1 12.8764C1.98765 11.8887 3.96296 10.4072 5.93827 10.4072C7.91358 10.4072 12.6049 12.3825 13.3457 13.3702C14.0864 14.3578 11.8642 15.8393 11.8642 15.8393" stroke="#CCC" stroke-width="2" stroke-linecap="round" stroke-linejoin="round"/>
<path d="M18.284 5.96289H13.3457C12.5275 5.96289 11.8643 6.62617 11.8643 7.44437C11.8643 8.26257 12.5275 8.92585 13.3457 8.92585H18.284C19.1022 8.92585 19.7655 8.26257 19.7655 7.44437C19.7655 6.62617 19.1022 5.96289 18.284 5.96289Z" stroke="#CCC" stroke-width="2"/>
<path d="M11.8643 3H19.7655" stroke="#CCC" stroke-width="2" stroke-linecap="round"/>
</svg>
