<svg width="20" height="20" viewBox="0 0 20 20" fill="none" xmlns="http://www.w3.org/2000/svg">
<path d="M17.0832 2.5H2.9165C2.22615 2.5 1.6665 3.05964 1.6665 3.75V13.75C1.6665 14.4404 2.22615 15 2.9165 15H17.0832C17.7735 15 18.3332 14.4404 18.3332 13.75V3.75C18.3332 3.05964 17.7735 2.5 17.0832 2.5Z" stroke="#ccc" stroke-width="1.66667" stroke-linecap="round" stroke-linejoin="round"/>
<path d="M10 15V17.9167" stroke="#ccc" stroke-width="1.66667" stroke-linecap="round" stroke-linejoin="round"/>
<path d="M13.3332 5.83301L6.6665 11.6663" stroke="#ccc" stroke-width="1.66667" stroke-linecap="round" stroke-linejoin="round"/>
<path d="M4.1665 17.917H15.8332" stroke="#ccc" stroke-width="1.66667" stroke-linecap="round" stroke-linejoin="round"/>
<path d="M6.25 8.33301C6.94036 8.33301 7.5 7.77336 7.5 7.08301C7.5 6.39265 6.94036 5.83301 6.25 5.83301C5.55964 5.83301 5 6.39265 5 7.08301C5 7.77336 5.55964 8.33301 6.25 8.33301Z" stroke="#ccc" stroke-width="1.66667" stroke-linecap="round" stroke-linejoin="round"/>
<path d="M13.75 11.667C14.4404 11.667 15 11.1073 15 10.417C15 9.72664 14.4404 9.16699 13.75 9.16699C13.0596 9.16699 12.5 9.72664 12.5 10.417C12.5 11.1073 13.0596 11.667 13.75 11.667Z" stroke="#ccc" stroke-width="1.66667" stroke-linecap="round" stroke-linejoin="round"/>
</svg>
